G04*
G04 #@! TF.GenerationSoftware,Altium Limited,Altium Designer,23.5.1 (21)*
G04*
G04 Layer_Color=16711935*
%FSLAX44Y44*%
%MOMM*%
G71*
G04*
G04 #@! TF.SameCoordinates,5C111197-4597-48D1-979B-7C2AAD06A796*
G04*
G04*
G04 #@! TF.FilePolarity,Negative*
G04*
G01*
G75*
%ADD50C,1.9032*%
%ADD51R,1.9032X1.9032*%
%ADD52R,1.9032X1.9032*%
%ADD53C,2.0032*%
%ADD54R,2.0032X2.0032*%
%ADD55R,1.7272X1.7272*%
%ADD56C,1.7272*%
%ADD57C,1.4732*%
%ADD101O,2.2032X1.7032*%
%ADD102O,1.7032X2.2032*%
D50*
X1581600Y1500000D02*
D03*
X1556200D02*
D03*
X1530800D02*
D03*
X1591650Y993652D02*
D03*
Y968252D02*
D03*
Y942852D02*
D03*
X1629250Y1124000D02*
D03*
X1603850D02*
D03*
X1578450D02*
D03*
X1629100Y1156250D02*
D03*
X1603700D02*
D03*
X1578300D02*
D03*
X1629750Y1189250D02*
D03*
X1604350D02*
D03*
X1578950D02*
D03*
X1564000Y1228650D02*
D03*
Y1254050D02*
D03*
Y1279450D02*
D03*
X1595750Y1228550D02*
D03*
Y1253950D02*
D03*
Y1279350D02*
D03*
X1628000Y1228800D02*
D03*
Y1254200D02*
D03*
Y1279600D02*
D03*
X1565250Y1370100D02*
D03*
Y1395500D02*
D03*
Y1420900D02*
D03*
X1597750Y1369850D02*
D03*
Y1395250D02*
D03*
Y1420650D02*
D03*
X1580800Y1532000D02*
D03*
X1555400D02*
D03*
X1530000D02*
D03*
X1581150Y1565500D02*
D03*
X1555750D02*
D03*
X1530350D02*
D03*
X1629500Y1480700D02*
D03*
Y1506100D02*
D03*
Y1531500D02*
D03*
X1628750Y1370300D02*
D03*
Y1395700D02*
D03*
Y1421100D02*
D03*
X1629750Y1589700D02*
D03*
Y1615100D02*
D03*
Y1640500D02*
D03*
X1581300Y1597750D02*
D03*
X1555900D02*
D03*
X1530500D02*
D03*
X1471600Y1598000D02*
D03*
X1446200D02*
D03*
X1420800D02*
D03*
X1471300Y1631500D02*
D03*
X1445900D02*
D03*
X1420500D02*
D03*
X1581650Y1631250D02*
D03*
X1556250D02*
D03*
X1530850D02*
D03*
X1581350Y1663250D02*
D03*
X1555950D02*
D03*
X1530550D02*
D03*
X1419850Y1664250D02*
D03*
X1445250D02*
D03*
X1470650D02*
D03*
X1128000Y789400D02*
D03*
Y764000D02*
D03*
Y738600D02*
D03*
D51*
X1505400Y1500000D02*
D03*
X1553050Y1124000D02*
D03*
X1552900Y1156250D02*
D03*
X1553550Y1189250D02*
D03*
X1504600Y1532000D02*
D03*
X1504950Y1565500D02*
D03*
X1505100Y1597750D02*
D03*
X1395400Y1598000D02*
D03*
X1395100Y1631500D02*
D03*
X1505450Y1631250D02*
D03*
X1505150Y1663250D02*
D03*
X1394450Y1664250D02*
D03*
D52*
X1591650Y917452D02*
D03*
X1564000Y1304850D02*
D03*
X1595750Y1304750D02*
D03*
X1628000Y1305000D02*
D03*
X1565250Y1446300D02*
D03*
X1597750Y1446050D02*
D03*
X1629500Y1556900D02*
D03*
X1628750Y1446500D02*
D03*
X1629750Y1665900D02*
D03*
X1128000Y814800D02*
D03*
D53*
X1108400Y997400D02*
D03*
X1133800D02*
D03*
X1159200D02*
D03*
X1184600D02*
D03*
X1286200D02*
D03*
X1260800D02*
D03*
X1235400D02*
D03*
X1210000D02*
D03*
X1489400D02*
D03*
X1464000D02*
D03*
X1438600D02*
D03*
X1413200D02*
D03*
X1311600D02*
D03*
X1337000D02*
D03*
X1362400D02*
D03*
X1387800D02*
D03*
X1083000D02*
D03*
X1057600D02*
D03*
X1006800D02*
D03*
X1032200D02*
D03*
X1489400Y845000D02*
D03*
X1362400D02*
D03*
X1387800D02*
D03*
X1337000D02*
D03*
X1260800D02*
D03*
X1286200D02*
D03*
X1235400D02*
D03*
X1032200D02*
D03*
X1057600D02*
D03*
X1083000D02*
D03*
X1108400D02*
D03*
X1133800D02*
D03*
X1159200D02*
D03*
X1184600D02*
D03*
X1210000D02*
D03*
X1311600D02*
D03*
X1438600D02*
D03*
X1413200D02*
D03*
X1464000D02*
D03*
D54*
X1006800D02*
D03*
D55*
X994001Y758499D02*
D03*
D56*
X1014000D02*
D03*
X1034000D02*
D03*
Y803501D02*
D03*
X1014000D02*
D03*
X994001D02*
D03*
D57*
X1570000Y761250D02*
D03*
X1550250Y761500D02*
D03*
X1050250Y1208500D02*
D03*
X1033250Y1214750D02*
D03*
X1026750Y1181750D02*
D03*
X1182500Y780500D02*
D03*
X1161139Y814000D02*
D03*
X1012000Y1152000D02*
D03*
X1076000Y1090000D02*
D03*
X972000Y1181500D02*
D03*
X968250Y1158250D02*
D03*
X1280000Y790000D02*
D03*
X1281000Y814000D02*
D03*
X968081Y1119919D02*
D03*
X1097617Y1254924D02*
D03*
X1346000Y1039000D02*
D03*
X1325000D02*
D03*
X981000Y825000D02*
D03*
X1077000Y1167000D02*
D03*
X1002000Y1074000D02*
D03*
X980000D02*
D03*
X1076000Y1116000D02*
D03*
Y1194000D02*
D03*
X1077000Y1141000D02*
D03*
X1320000Y975000D02*
D03*
X1314000Y1069000D02*
D03*
X987000Y1166000D02*
D03*
X980000Y849000D02*
D03*
X973000Y1136000D02*
D03*
X1470000Y763000D02*
D03*
X1304000Y1600000D02*
D03*
X1313000Y1584000D02*
D03*
X1339000Y1294000D02*
D03*
X1535000Y1085000D02*
D03*
X1526000Y1069000D02*
D03*
X1326000Y1356000D02*
D03*
X1303000Y1398000D02*
D03*
X1364000Y1096000D02*
D03*
X1365000Y1110000D02*
D03*
X1159000Y1564000D02*
D03*
X1160000Y1581000D02*
D03*
X1183000Y1409000D02*
D03*
X1478000Y1032000D02*
D03*
X1501000D02*
D03*
X1310000Y1380000D02*
D03*
X1294000D02*
D03*
X1087000Y1379000D02*
D03*
X1275000Y1600000D02*
D03*
X1045000Y1404000D02*
D03*
X946000Y1473000D02*
D03*
X947000Y1609000D02*
D03*
Y1593000D02*
D03*
D101*
X963752Y1000312D02*
D03*
X963467Y975338D02*
D03*
X963005Y950159D02*
D03*
X962643Y925082D02*
D03*
X962233Y900006D02*
D03*
X961820Y874907D02*
D03*
X961191Y825000D02*
D03*
X961500Y850000D02*
D03*
X950000Y1136000D02*
D03*
X950629Y1185907D02*
D03*
X950320Y1160907D02*
D03*
X992000Y1404000D02*
D03*
X991690Y1379000D02*
D03*
X992319Y1428907D02*
D03*
D102*
X1127448Y1490965D02*
D03*
X1152448Y1490655D02*
D03*
X1102541Y1491284D02*
D03*
M02*
