G04*
G04 #@! TF.GenerationSoftware,Altium Limited,Altium Designer,23.5.1 (21)*
G04*
G04 Layer_Color=16711935*
%FSLAX44Y44*%
%MOMM*%
G71*
G04*
G04 #@! TF.SameCoordinates,5C111197-4597-48D1-979B-7C2AAD06A796*
G04*
G04*
G04 #@! TF.FilePolarity,Positive*
G04*
G01*
G75*
%ADD18C,0.0762*%
%ADD106C,0.0254*%
D18*
X997770Y1138411D02*
X1006234Y1146875D01*
Y1138411D02*
X997770Y1146875D01*
X1002002Y1138411D02*
Y1146875D01*
X1006234Y1142643D02*
X997770D01*
D106*
X997014Y1137014D02*
X1026986D01*
X997014D02*
Y1166986D01*
X1026986D01*
Y1137014D02*
Y1166986D01*
X1002730D02*
X1005270D01*
X1002730D02*
X1005270D01*
X1006730D02*
X1009270D01*
X1006730D02*
X1009270D01*
X1010730D02*
X1013270D01*
X1010730D02*
X1013270D01*
X1014730D02*
X1017270D01*
X1014730D02*
X1017270D01*
X1018730D02*
X1021270D01*
X1018730D02*
X1021270D01*
X1026986Y1158730D02*
Y1161270D01*
Y1158730D02*
Y1161270D01*
Y1154730D02*
Y1157270D01*
Y1154730D02*
Y1157270D01*
Y1150730D02*
Y1153270D01*
Y1150730D02*
Y1153270D01*
Y1146730D02*
Y1149270D01*
Y1146730D02*
Y1149270D01*
Y1142730D02*
Y1145270D01*
Y1142730D02*
Y1145270D01*
X1018730Y1137014D02*
X1021270D01*
X1018730D02*
X1021270D01*
X1014730D02*
X1017270D01*
X1014730D02*
X1017270D01*
X1010730D02*
X1013270D01*
X1010730D02*
X1013270D01*
X1006730D02*
X1009270D01*
X1006730D02*
X1009270D01*
X1002730D02*
X1005270D01*
X1002730D02*
X1005270D01*
X997014Y1142730D02*
Y1145270D01*
Y1142730D02*
Y1145270D01*
Y1146730D02*
Y1149270D01*
Y1146730D02*
Y1149270D01*
Y1150730D02*
Y1153270D01*
Y1150730D02*
Y1153270D01*
Y1154730D02*
Y1157270D01*
Y1154730D02*
Y1157270D01*
Y1158730D02*
Y1161270D01*
Y1158730D02*
Y1161270D01*
Y1149714D02*
X1009714Y1137014D01*
M02*
