G04*
G04 #@! TF.GenerationSoftware,Altium Limited,Altium Designer,23.5.1 (21)*
G04*
G04 Layer_Color=8421504*
%FSLAX44Y44*%
%MOMM*%
G71*
G04*
G04 #@! TF.SameCoordinates,5C111197-4597-48D1-979B-7C2AAD06A796*
G04*
G04*
G04 #@! TF.FilePolarity,Positive*
G04*
G01*
G75*
%ADD19R,5.5000X1.3000*%
%ADD20R,0.9000X0.8000*%
%ADD21O,1.7450X0.5600*%
%ADD22R,0.6000X1.0000*%
%ADD23O,0.6300X1.8650*%
%ADD24R,0.8000X0.9000*%
%ADD25R,1.7018X1.7018*%
%ADD26R,0.7620X0.2540*%
%ADD27R,0.2540X0.7620*%
G04:AMPARAMS|DCode=28|XSize=0.8mm|YSize=0.9mm|CornerRadius=0mm|HoleSize=0mm|Usage=FLASHONLY|Rotation=337.500|XOffset=0mm|YOffset=0mm|HoleType=Round|Shape=Rectangle|*
%AMROTATEDRECTD28*
4,1,4,-0.5418,-0.2627,-0.1973,0.5688,0.5418,0.2627,0.1973,-0.5688,-0.5418,-0.2627,0.0*
%
%ADD28ROTATEDRECTD28*%

G04:AMPARAMS|DCode=29|XSize=0.8mm|YSize=0.9mm|CornerRadius=0mm|HoleSize=0mm|Usage=FLASHONLY|Rotation=202.500|XOffset=0mm|YOffset=0mm|HoleType=Round|Shape=Rectangle|*
%AMROTATEDRECTD29*
4,1,4,0.1973,0.5688,0.5418,-0.2627,-0.1973,-0.5688,-0.5418,0.2627,0.1973,0.5688,0.0*
%
%ADD29ROTATEDRECTD29*%

%ADD30R,0.8000X1.8000*%
%ADD31R,1.2500X0.7000*%
%ADD32R,2.3400X3.6000*%
%ADD33R,2.5000X1.1000*%
G04:AMPARAMS|DCode=34|XSize=0.8mm|YSize=0.9mm|CornerRadius=0mm|HoleSize=0mm|Usage=FLASHONLY|Rotation=247.500|XOffset=0mm|YOffset=0mm|HoleType=Round|Shape=Rectangle|*
%AMROTATEDRECTD34*
4,1,4,-0.2627,0.5418,0.5688,0.1973,0.2627,-0.5418,-0.5688,-0.1973,-0.2627,0.5418,0.0*
%
%ADD34ROTATEDRECTD34*%

G04:AMPARAMS|DCode=35|XSize=0.8mm|YSize=0.9mm|CornerRadius=0mm|HoleSize=0mm|Usage=FLASHONLY|Rotation=112.500|XOffset=0mm|YOffset=0mm|HoleType=Round|Shape=Rectangle|*
%AMROTATEDRECTD35*
4,1,4,0.5688,-0.1973,-0.2627,-0.5418,-0.5688,0.1973,0.2627,0.5418,0.5688,-0.1973,0.0*
%
%ADD35ROTATEDRECTD35*%

G36*
X1123524Y1278200D02*
X1125833Y1279157D01*
X1127938Y1274075D01*
X1116852Y1269483D01*
X1114747Y1274565D01*
X1118442Y1276095D01*
X1116720Y1280253D01*
X1121802Y1282358D01*
X1123524Y1278200D01*
D02*
G37*
G36*
X1132761Y1263084D02*
X1121674Y1258492D01*
X1118996Y1264959D01*
X1130082Y1269551D01*
X1132761Y1263084D01*
D02*
G37*
G36*
X1136205Y1254770D02*
X1125118Y1250177D01*
X1123396Y1254335D01*
X1134483Y1258927D01*
X1136205Y1254770D01*
D02*
G37*
G36*
X1140223Y1245068D02*
X1137912Y1244112D01*
X1139635Y1239954D01*
X1134554Y1237849D01*
X1132832Y1242007D01*
X1129138Y1240477D01*
X1127031Y1245558D01*
X1138118Y1250150D01*
X1140223Y1245068D01*
D02*
G37*
G36*
X1214023Y1173868D02*
X1209430Y1162781D01*
X1204349Y1164886D01*
X1205880Y1168581D01*
X1201722Y1170303D01*
X1203827Y1175385D01*
X1207985Y1173663D01*
X1208941Y1175973D01*
X1214023Y1173868D01*
D02*
G37*
G36*
X1225205Y1169507D02*
X1220612Y1158420D01*
X1214145Y1161099D01*
X1218737Y1172185D01*
X1225205Y1169507D01*
D02*
G37*
G36*
X1233520Y1166063D02*
X1228927Y1154976D01*
X1224770Y1156698D01*
X1229362Y1167785D01*
X1233520Y1166063D01*
D02*
G37*
G36*
X1243221Y1162044D02*
X1242263Y1159734D01*
X1246421Y1158012D01*
X1244317Y1152930D01*
X1240159Y1154653D01*
X1238629Y1150958D01*
X1233546Y1153063D01*
X1238138Y1164149D01*
X1243221Y1162044D01*
D02*
G37*
G36*
X1139317Y1416122D02*
X1137595Y1411965D01*
X1139904Y1411008D01*
X1137800Y1405927D01*
X1126713Y1410519D01*
X1128818Y1415600D01*
X1132513Y1414070D01*
X1134235Y1418227D01*
X1139317Y1416122D01*
D02*
G37*
G36*
X1136117Y1401212D02*
X1133439Y1394745D01*
X1122352Y1399337D01*
X1125031Y1405804D01*
X1136117Y1401212D01*
D02*
G37*
G36*
X1131716Y1390588D02*
X1129994Y1386431D01*
X1118908Y1391023D01*
X1120630Y1395180D01*
X1131716Y1390588D01*
D02*
G37*
G36*
X1128080Y1381812D02*
X1125975Y1376729D01*
X1123665Y1377687D01*
X1121943Y1373529D01*
X1116862Y1375633D01*
X1118584Y1379791D01*
X1114890Y1381321D01*
X1116994Y1386404D01*
X1128080Y1381812D01*
D02*
G37*
G36*
X1239496Y1501535D02*
X1243653Y1503257D01*
X1245758Y1498175D01*
X1241601Y1496453D01*
X1242557Y1494144D01*
X1237476Y1492039D01*
X1232884Y1503125D01*
X1237965Y1505230D01*
X1239496Y1501535D01*
D02*
G37*
G36*
X1232952Y1489895D02*
X1226485Y1487216D01*
X1221893Y1498302D01*
X1228360Y1500981D01*
X1232952Y1489895D01*
D02*
G37*
G36*
X1222328Y1485494D02*
X1218170Y1483772D01*
X1213578Y1494859D01*
X1217736Y1496581D01*
X1222328Y1485494D01*
D02*
G37*
G36*
X1213551Y1481859D02*
X1208469Y1479754D01*
X1207513Y1482065D01*
X1203355Y1480342D01*
X1201250Y1485423D01*
X1205407Y1487145D01*
X1203877Y1490839D01*
X1208959Y1492946D01*
X1213551Y1481859D01*
D02*
G37*
G36*
X1375356Y1173534D02*
X1379514Y1175257D01*
X1381620Y1170176D01*
X1377462Y1168454D01*
X1378992Y1164760D01*
X1373910Y1162654D01*
X1369318Y1173740D01*
X1374400Y1175845D01*
X1375356Y1173534D01*
D02*
G37*
G36*
X1369291Y1160740D02*
X1365134Y1159018D01*
X1360541Y1170105D01*
X1364699Y1171827D01*
X1369291Y1160740D01*
D02*
G37*
G36*
X1360976Y1157297D02*
X1354509Y1154618D01*
X1349917Y1165704D01*
X1356384Y1168383D01*
X1360976Y1157297D01*
D02*
G37*
G36*
X1349985Y1152474D02*
X1344904Y1150369D01*
X1343373Y1154064D01*
X1339216Y1152342D01*
X1337111Y1157424D01*
X1341268Y1159146D01*
X1340312Y1161455D01*
X1345393Y1163560D01*
X1349985Y1152474D01*
D02*
G37*
G36*
X1467359Y1280189D02*
X1465636Y1276031D01*
X1469330Y1274501D01*
X1467226Y1269419D01*
X1456140Y1274011D01*
X1458245Y1279093D01*
X1460555Y1278135D01*
X1462277Y1282293D01*
X1467359Y1280189D01*
D02*
G37*
G36*
X1465313Y1264800D02*
X1463591Y1260642D01*
X1452504Y1265234D01*
X1454226Y1269392D01*
X1465313Y1264800D01*
D02*
G37*
G36*
X1461868Y1256485D02*
X1459189Y1250018D01*
X1448103Y1254610D01*
X1450782Y1261078D01*
X1461868Y1256485D01*
D02*
G37*
G36*
X1457507Y1245303D02*
X1455402Y1240222D01*
X1451707Y1241752D01*
X1449985Y1237595D01*
X1444903Y1239700D01*
X1446626Y1243857D01*
X1444316Y1244814D01*
X1446421Y1249895D01*
X1457507Y1245303D01*
D02*
G37*
G36*
X1350461Y1503255D02*
X1345869Y1492169D01*
X1340786Y1494274D01*
X1341744Y1496584D01*
X1337586Y1498306D01*
X1339690Y1503388D01*
X1343848Y1501665D01*
X1345378Y1505359D01*
X1350461Y1503255D01*
D02*
G37*
G36*
X1359238Y1499619D02*
X1354646Y1488533D01*
X1350488Y1490255D01*
X1355080Y1501342D01*
X1359238Y1499619D01*
D02*
G37*
G36*
X1369862Y1495219D02*
X1365269Y1484132D01*
X1358802Y1486811D01*
X1363395Y1497898D01*
X1369862Y1495219D01*
D02*
G37*
G36*
X1379658Y1491432D02*
X1378127Y1487737D01*
X1382285Y1486014D01*
X1380180Y1480933D01*
X1376022Y1482655D01*
X1375066Y1480345D01*
X1369984Y1482450D01*
X1374577Y1493537D01*
X1379658Y1491432D01*
D02*
G37*
G36*
X1451526Y1414062D02*
X1455220Y1415593D01*
X1457327Y1410511D01*
X1446240Y1405919D01*
X1444135Y1411001D01*
X1446446Y1411957D01*
X1444723Y1416115D01*
X1449804Y1418220D01*
X1451526Y1414062D01*
D02*
G37*
G36*
X1460962Y1401734D02*
X1449875Y1397142D01*
X1448153Y1401299D01*
X1459240Y1405892D01*
X1460962Y1401734D01*
D02*
G37*
G36*
X1465362Y1391110D02*
X1454276Y1386517D01*
X1451597Y1392984D01*
X1462684Y1397577D01*
X1465362Y1391110D01*
D02*
G37*
G36*
X1469611Y1381505D02*
X1465916Y1379974D01*
X1467638Y1375817D01*
X1462556Y1373712D01*
X1460834Y1377869D01*
X1458525Y1376913D01*
X1456420Y1381994D01*
X1467507Y1386586D01*
X1469611Y1381505D01*
D02*
G37*
D19*
X1605000Y776750D02*
D03*
X1513941D02*
D03*
D20*
X1182500Y781500D02*
D03*
Y795500D02*
D03*
X1158500Y795250D02*
D03*
Y781250D02*
D03*
X1296000Y1062000D02*
D03*
Y1048000D02*
D03*
X994162Y1104000D02*
D03*
Y1090000D02*
D03*
X971162Y1104000D02*
D03*
Y1090000D02*
D03*
X947162Y1090087D02*
D03*
Y1104088D02*
D03*
X1018161Y1104000D02*
D03*
Y1090000D02*
D03*
X995000Y1204000D02*
D03*
Y1190000D02*
D03*
X1547500Y864000D02*
D03*
Y878000D02*
D03*
X1577000Y863250D02*
D03*
Y877251D02*
D03*
X1220528Y1318999D02*
D03*
Y1333000D02*
D03*
X1058000Y1505000D02*
D03*
Y1519000D02*
D03*
X1082040Y1517681D02*
D03*
Y1503680D02*
D03*
X965200Y1639601D02*
D03*
Y1625600D02*
D03*
X995680Y1639601D02*
D03*
Y1625600D02*
D03*
Y1602120D02*
D03*
Y1588120D02*
D03*
X965200Y1602120D02*
D03*
Y1588120D02*
D03*
X1246000Y781000D02*
D03*
Y795000D02*
D03*
X1244000Y1318000D02*
D03*
Y1332000D02*
D03*
X1351000Y1315000D02*
D03*
Y1329001D02*
D03*
X1438000Y789001D02*
D03*
Y775000D02*
D03*
D21*
X1073635Y1639570D02*
D03*
Y1626870D02*
D03*
Y1614170D02*
D03*
Y1601470D02*
D03*
Y1588770D02*
D03*
Y1576070D02*
D03*
Y1563370D02*
D03*
Y1550670D02*
D03*
X1131085Y1639570D02*
D03*
Y1626870D02*
D03*
Y1614170D02*
D03*
Y1601470D02*
D03*
Y1588770D02*
D03*
Y1576070D02*
D03*
Y1563370D02*
D03*
Y1550670D02*
D03*
D22*
X1326998Y1077000D02*
D03*
X1346000D02*
D03*
X1327001Y1054999D02*
D03*
X1345997D02*
D03*
X1336498D02*
D03*
D23*
X1272768Y1300050D02*
D03*
X1285468D02*
D03*
X1298168D02*
D03*
X1310868D02*
D03*
X1272768Y1353700D02*
D03*
X1285468D02*
D03*
X1298168D02*
D03*
X1310868D02*
D03*
D24*
X1061999Y1090000D02*
D03*
X1076000D02*
D03*
X1062000Y1141001D02*
D03*
X1076000D02*
D03*
X1061999Y1167001D02*
D03*
X1076000D02*
D03*
X1007000Y1528000D02*
D03*
X1021000D02*
D03*
X958200Y1529080D02*
D03*
X972200D02*
D03*
X1043320Y1590040D02*
D03*
X1029320D02*
D03*
X1061999Y1194000D02*
D03*
X1076000D02*
D03*
X1004000Y1475000D02*
D03*
X1018000D02*
D03*
X1020000Y1197000D02*
D03*
X1034000D02*
D03*
X1545999Y1058000D02*
D03*
X1560000D02*
D03*
X1061999Y1116000D02*
D03*
X1076000D02*
D03*
X968000Y1474000D02*
D03*
X982000D02*
D03*
X1231000Y1607000D02*
D03*
X1245000D02*
D03*
X1308000Y1619000D02*
D03*
X1322000D02*
D03*
X1271000Y1620000D02*
D03*
X1285001D02*
D03*
D25*
X1012000Y1152000D02*
D03*
D26*
X997776Y1144000D02*
D03*
Y1148000D02*
D03*
Y1152000D02*
D03*
Y1156000D02*
D03*
Y1160000D02*
D03*
X1026224D02*
D03*
Y1156000D02*
D03*
Y1152000D02*
D03*
Y1148000D02*
D03*
Y1144000D02*
D03*
D27*
X1004000Y1166224D02*
D03*
X1008000D02*
D03*
X1012000D02*
D03*
X1016000D02*
D03*
X1020000D02*
D03*
Y1137776D02*
D03*
X1016000D02*
D03*
X1012000D02*
D03*
X1008000D02*
D03*
X1004000D02*
D03*
D28*
X1219467Y1134321D02*
D03*
X1206533Y1139679D02*
D03*
X1367065Y1526358D02*
D03*
X1380000Y1521000D02*
D03*
D29*
X1204532Y1517321D02*
D03*
X1217467Y1522679D02*
D03*
X1377467Y1137679D02*
D03*
X1364533Y1132321D02*
D03*
D30*
X1275000Y1657000D02*
D03*
X1287700D02*
D03*
X1300400D02*
D03*
X1313100D02*
D03*
D31*
X1021240Y1630680D02*
D03*
X1041240Y1640180D02*
D03*
Y1621180D02*
D03*
D32*
X1368700Y791000D02*
D03*
D33*
X1309300Y768000D02*
D03*
Y791000D02*
D03*
Y814000D02*
D03*
D34*
X1094121Y1401332D02*
D03*
X1099478Y1414267D02*
D03*
X1491679Y1255468D02*
D03*
X1486321Y1242532D02*
D03*
D35*
X1487642Y1417935D02*
D03*
X1493000Y1405000D02*
D03*
X1103358Y1241065D02*
D03*
X1098000Y1254000D02*
D03*
M02*
