G04*
G04 #@! TF.GenerationSoftware,Altium Limited,Altium Designer,23.5.1 (21)*
G04*
G04 Layer_Color=8388736*
%FSLAX44Y44*%
%MOMM*%
G71*
G04*
G04 #@! TF.SameCoordinates,5C111197-4597-48D1-979B-7C2AAD06A796*
G04*
G04*
G04 #@! TF.FilePolarity,Positive*
G04*
G01*
G75*
%ADD10C,0.2540*%
%ADD12C,0.3000*%
%ADD103C,0.6000*%
%ADD104C,0.2000*%
%ADD105C,0.5000*%
G36*
X1328769Y1676577D02*
X1329127Y1676219D01*
X1329320Y1675753D01*
Y1675500D01*
X1329320Y1675375D01*
X1329320Y1675374D01*
Y1652000D01*
Y1651747D01*
X1329127Y1651281D01*
X1328769Y1650923D01*
X1328302Y1650730D01*
X1318885D01*
X1318141Y1651474D01*
Y1652526D01*
X1318885Y1653270D01*
X1326780D01*
Y1672433D01*
X1323648Y1669302D01*
X1323560Y1669213D01*
X1323352Y1669074D01*
X1323121Y1668979D01*
X1322875Y1668930D01*
X1322750Y1668930D01*
X1265450D01*
X1265325Y1668930D01*
X1265079Y1668979D01*
X1264848Y1669074D01*
X1264640Y1669213D01*
X1264552Y1669302D01*
Y1669302D01*
X1261320Y1672534D01*
Y1653270D01*
X1269214D01*
X1269958Y1652526D01*
Y1651474D01*
X1269214Y1650730D01*
X1259797D01*
X1259331Y1650923D01*
X1258973Y1651281D01*
X1258780Y1651747D01*
Y1652000D01*
Y1675321D01*
X1258780Y1675321D01*
X1258780Y1675500D01*
Y1675752D01*
X1258973Y1676219D01*
X1259331Y1676577D01*
X1259797Y1676770D01*
X1327924D01*
X1327925Y1676770D01*
X1328050D01*
X1328303Y1676770D01*
X1328769Y1676577D01*
D02*
G37*
G36*
X1350886Y1511468D02*
X1345333Y1509168D01*
X1346959Y1513094D01*
X1350886Y1511468D01*
D02*
G37*
G36*
X1227928Y1505944D02*
X1210375Y1498673D01*
X1206455Y1500296D01*
X1208534Y1501157D01*
X1211147Y1500075D01*
X1226391Y1506389D01*
X1227473Y1509002D01*
X1229552Y1509863D01*
X1227928Y1505944D01*
D02*
G37*
G36*
X1349687Y1500734D02*
X1349304Y1499810D01*
X1343992Y1502010D01*
X1344375Y1502935D01*
X1349687Y1500734D01*
D02*
G37*
G36*
X1355967Y1509363D02*
X1357049Y1506750D01*
X1372293Y1500435D01*
X1374906Y1501518D01*
X1376985Y1500657D01*
X1373065Y1499033D01*
X1355512Y1506304D01*
X1353888Y1510224D01*
X1355967Y1509363D01*
D02*
G37*
G36*
X1366974Y1496415D02*
X1366066Y1494221D01*
X1368260Y1493312D01*
X1367877Y1492388D01*
X1365683Y1493297D01*
X1364774Y1491102D01*
X1363850Y1491485D01*
X1364759Y1493679D01*
X1362565Y1494588D01*
X1362948Y1495512D01*
X1365142Y1494603D01*
X1366051Y1496797D01*
X1366974Y1496415D01*
D02*
G37*
G36*
X1226382Y1497591D02*
X1228576Y1498500D01*
X1228959Y1497576D01*
X1226764Y1496667D01*
X1227673Y1494473D01*
X1226749Y1494090D01*
X1225841Y1496284D01*
X1223646Y1495376D01*
X1223264Y1496299D01*
X1225458Y1497208D01*
X1224549Y1499402D01*
X1225473Y1499785D01*
X1226382Y1497591D01*
D02*
G37*
G36*
X1201152Y1493500D02*
X1199526Y1497426D01*
X1203452Y1499053D01*
X1201152Y1493500D01*
D02*
G37*
G36*
X1210577Y1489691D02*
X1205265Y1487491D01*
X1204882Y1488415D01*
X1210194Y1490615D01*
X1210577Y1489691D01*
D02*
G37*
G36*
X1463434Y1416017D02*
X1457881Y1418318D01*
X1461807Y1419944D01*
X1463434Y1416017D01*
D02*
G37*
G36*
X1454996Y1409276D02*
X1454072Y1408893D01*
X1451872Y1414205D01*
X1452796Y1414588D01*
X1454996Y1409276D01*
D02*
G37*
G36*
X1127862Y1403820D02*
X1126953Y1401626D01*
X1129147Y1400717D01*
X1128764Y1399793D01*
X1126570Y1400702D01*
X1125661Y1398508D01*
X1124737Y1398890D01*
X1125646Y1401085D01*
X1123452Y1401994D01*
X1123835Y1402917D01*
X1126029Y1402008D01*
X1126938Y1404203D01*
X1127862Y1403820D01*
D02*
G37*
G36*
X1461590Y1394012D02*
X1463784Y1394921D01*
X1464166Y1393997D01*
X1461972Y1393088D01*
X1462881Y1390894D01*
X1461957Y1390511D01*
X1461048Y1392705D01*
X1458854Y1391796D01*
X1458472Y1392720D01*
X1460666Y1393629D01*
X1459757Y1395823D01*
X1460681Y1396206D01*
X1461590Y1394012D01*
D02*
G37*
G36*
X1465538Y1410936D02*
X1464456Y1408323D01*
X1470770Y1393079D01*
X1473383Y1391997D01*
X1474245Y1389918D01*
X1470325Y1391542D01*
X1463054Y1409095D01*
X1464677Y1413015D01*
X1465538Y1410936D01*
D02*
G37*
G36*
X1121216Y1409008D02*
X1113945Y1391454D01*
X1110026Y1389831D01*
X1110887Y1391910D01*
X1113500Y1392992D01*
X1119814Y1408236D01*
X1118732Y1410849D01*
X1119593Y1412928D01*
X1121216Y1409008D01*
D02*
G37*
G36*
X1111082Y1381275D02*
X1107156Y1382902D01*
X1108782Y1386828D01*
X1111082Y1381275D01*
D02*
G37*
G36*
X1120439Y1385246D02*
X1118239Y1379934D01*
X1117315Y1380317D01*
X1119515Y1385629D01*
X1120439Y1385246D01*
D02*
G37*
G36*
X1466906Y1275505D02*
X1464705Y1270193D01*
X1463781Y1270576D01*
X1465981Y1275888D01*
X1466906Y1275505D01*
D02*
G37*
G36*
X1477065Y1272921D02*
X1475439Y1268994D01*
X1473139Y1274547D01*
X1477065Y1272921D01*
D02*
G37*
G36*
X1123310Y1263364D02*
X1125504Y1264273D01*
X1125886Y1263349D01*
X1123692Y1262440D01*
X1124601Y1260246D01*
X1123677Y1259863D01*
X1122768Y1262057D01*
X1120574Y1261148D01*
X1120192Y1262072D01*
X1122386Y1262981D01*
X1121477Y1265175D01*
X1122401Y1265558D01*
X1123310Y1263364D01*
D02*
G37*
G36*
X1459483Y1256932D02*
X1458574Y1254738D01*
X1460768Y1253829D01*
X1460386Y1252905D01*
X1458192Y1253814D01*
X1457283Y1251620D01*
X1456359Y1252002D01*
X1457268Y1254197D01*
X1455074Y1255106D01*
X1455456Y1256029D01*
X1457650Y1255120D01*
X1458559Y1257315D01*
X1459483Y1256932D01*
D02*
G37*
G36*
X1114033Y1264527D02*
X1121304Y1246974D01*
X1119680Y1243054D01*
X1118819Y1245133D01*
X1119902Y1247746D01*
X1113588Y1262990D01*
X1110975Y1264072D01*
X1110114Y1266151D01*
X1114033Y1264527D01*
D02*
G37*
G36*
X1473334Y1263913D02*
X1470721Y1262830D01*
X1464406Y1247586D01*
X1465489Y1244973D01*
X1464628Y1242895D01*
X1463004Y1246814D01*
X1470275Y1264368D01*
X1474195Y1265992D01*
X1473334Y1263913D01*
D02*
G37*
G36*
X1132486Y1241864D02*
X1131562Y1241481D01*
X1129362Y1246793D01*
X1130286Y1247176D01*
X1132486Y1241864D01*
D02*
G37*
G36*
X1126477Y1237751D02*
X1122551Y1236125D01*
X1120924Y1240051D01*
X1126477Y1237751D01*
D02*
G37*
G36*
X1377987Y1167184D02*
X1372675Y1164984D01*
X1372292Y1165908D01*
X1377604Y1168108D01*
X1377987Y1167184D01*
D02*
G37*
G36*
X1220157Y1164833D02*
X1219248Y1162638D01*
X1221442Y1161730D01*
X1221059Y1160806D01*
X1218865Y1161714D01*
X1217956Y1159520D01*
X1217033Y1159903D01*
X1217941Y1162097D01*
X1215747Y1163006D01*
X1216130Y1163930D01*
X1218324Y1163021D01*
X1219233Y1165215D01*
X1220157Y1164833D01*
D02*
G37*
G36*
X1383343Y1158173D02*
X1379417Y1156546D01*
X1381717Y1162099D01*
X1383343Y1158173D01*
D02*
G37*
G36*
X1357029Y1159314D02*
X1359223Y1160223D01*
X1359605Y1159299D01*
X1357411Y1158390D01*
X1358320Y1156196D01*
X1357397Y1155814D01*
X1356487Y1158008D01*
X1354293Y1157099D01*
X1353911Y1158023D01*
X1356105Y1158932D01*
X1355196Y1161126D01*
X1356120Y1161508D01*
X1357029Y1159314D01*
D02*
G37*
G36*
X1376414Y1155302D02*
X1374335Y1154441D01*
X1371722Y1155524D01*
X1356478Y1149210D01*
X1355396Y1146596D01*
X1353317Y1145735D01*
X1354941Y1149655D01*
X1372495Y1156926D01*
X1376414Y1155302D01*
D02*
G37*
G36*
X1240015Y1154307D02*
X1239633Y1153383D01*
X1234321Y1155583D01*
X1234703Y1156508D01*
X1240015Y1154307D01*
D02*
G37*
G36*
X1228495Y1150014D02*
X1230119Y1146094D01*
X1228040Y1146955D01*
X1226958Y1149568D01*
X1211714Y1155882D01*
X1209101Y1154800D01*
X1207022Y1155661D01*
X1210942Y1157285D01*
X1228495Y1150014D01*
D02*
G37*
G36*
X1237048Y1143224D02*
X1233121Y1144850D01*
X1238674Y1147150D01*
X1237048Y1143224D01*
D02*
G37*
%LPC*%
G36*
X1324984Y1674230D02*
X1263216D01*
X1265976Y1671470D01*
X1322224D01*
X1324984Y1674230D01*
D02*
G37*
%LPD*%
D10*
X1648000Y1676000D02*
G03*
X1638000Y1686000I-10000J0D01*
G01*
Y701649D02*
G03*
X1648000Y711649I0J10000D01*
G01*
X944803Y1686000D02*
G03*
X934803Y1676000I0J-10000D01*
G01*
Y711649D02*
G03*
X944803Y701649I10000J0D01*
G01*
X1638000D01*
X944803Y1686000D02*
X1638000D01*
X1648000Y711649D02*
Y1676000D01*
X934803Y711649D02*
Y1676000D01*
D12*
X1068362Y1639570D02*
G03*
X1068362Y1639570I-1501J0D01*
G01*
X1325500Y1054899D02*
G03*
X1325500Y1054899I-1501J0D01*
G01*
X1274269Y1292874D02*
G03*
X1274269Y1292874I-1501J0D01*
G01*
D103*
X996401Y837499D02*
G03*
X996401Y837499I-3000J0D01*
G01*
D104*
X1206141Y1172676D02*
G03*
X1206141Y1172676I-1001J0D01*
G01*
X1379867Y1483641D02*
G03*
X1379867Y1483641I-1001J0D01*
G01*
X1243915Y1499162D02*
G03*
X1243915Y1499162I-1001J0D01*
G01*
X1137609Y1414809D02*
G03*
X1137609Y1414809I-1001J0D01*
G01*
X1046841Y1619679D02*
G03*
X1046841Y1619679I-1001J0D01*
G01*
X1121815Y1279513D02*
G03*
X1121815Y1279513I-1001J0D01*
G01*
X1448613Y1241013D02*
G03*
X1448613Y1241013I-1001J0D01*
G01*
X1464544Y1376556D02*
G03*
X1464544Y1376556I-1001J0D01*
G01*
X1340956Y1156437D02*
G03*
X1340956Y1156437I-1001J0D01*
G01*
D105*
X1295982Y812877D02*
G03*
X1295982Y812877I-2499J0D01*
G01*
M02*
