M48
;Layer_Color=9474304
;FILE_FORMAT=2:5
INCH,TZ
;TYPE=PLATED
T1F00S00C0.02800
T2F00S00C0.03937
T3F00S00C0.04331
%
T01
X503937Y311024
X578740Y300394
X610335Y299803
X618110Y299705
X465551Y307284
X457141Y320472
X386221Y324803
X385827Y334252
X385827Y422835
X394488
X381134Y440913
X383071Y447244
X381201Y456004
X388583Y459055
X382677Y465158
X404232Y465256
X398425Y453543
X424016Y449213
Y459449
X423622Y439370
Y429134
X517323Y420866
X521654Y409055
X529921
X537008Y431496
X537402Y437008
X519685Y383858
X504331Y320472
X581890Y406299
X590945
X600787Y420866
X604331Y427165
X527165Y509449
X522047Y533858
X515748Y543307
X509449
X512992Y550394
X516929Y623622
X456693Y622441
X456299Y615748
X465748Y554724
X427953Y542913
X411417Y552756
X372441Y579921
X406791Y478248
X413484Y475787
X423622Y470079
X432133Y494064
X372835Y627165
Y633465
X501969Y629921
X513386
T02
X391339Y298622
X399213
X407087
Y316339
X399213
X391339
X396378Y332677
X406378
X416378
X426378
X436378
X446378
X456378
X466378
Y392677
X456378
X446378
X436378
X426378
X416378
X406378
X396378
X476378
X486378
X496378
X506378
X516378
X526378
X536378
X546378
X556378
X566378
X576378
X586378
Y332677
X576378
X566378
X556378
X546378
X536378
X526378
X516378
X506378
X496378
X486378
X476378
T03
X444094Y290787
Y300787
Y310787
Y320787
X611437Y442520
X621437
X621378Y455217
X611378
X611634Y468209
X621634
X631634
X641634
X641378Y455217
X631378
X631437Y442520
X641437
X626634Y391202
Y381202
Y371202
Y361202
X628248Y483681
Y493681
Y503681
Y513681
X640945Y513779
Y503780
Y493780
Y483779
X641240Y539488
Y549488
Y559488
Y569488
X629035Y569311
Y559311
Y549311
Y539311
X641535Y582953
Y592953
Y602953
Y612953
X622500Y616339
X612500
X602500
X592500
X592362Y603150
X602362
X612362
X622362
X622677Y590551
X612677
X602677
X592677
X616240Y569410
Y559410
Y549409
Y539409
X615748Y513721
Y503721
Y493720
Y483720
X612559Y629035
X622559
X622697Y642224
X612697
X602697
X592697
X592579Y654823
X602579
X612579
X622579
X578996Y655217
X568996
X558996
X548996
X549252Y642323
X559252
X569252
X579252
X579370Y629134
X569370
X559370
X549370
X592559Y629035
X602559
X641634Y625866
Y635866
Y645866
Y655866
M30
