G04*
G04 #@! TF.GenerationSoftware,Altium Limited,Altium Designer,23.5.1 (21)*
G04*
G04 Layer_Color=65535*
%FSLAX44Y44*%
%MOMM*%
G71*
G04*
G04 #@! TF.SameCoordinates,5C111197-4597-48D1-979B-7C2AAD06A796*
G04*
G04*
G04 #@! TF.FilePolarity,Positive*
G04*
G01*
G75*
%ADD10C,0.2540*%
%ADD11C,0.4000*%
%ADD12C,0.3000*%
%ADD13C,0.1500*%
%ADD14C,0.1000*%
%ADD15C,1.0000*%
%ADD16C,0.1524*%
%ADD17C,0.1520*%
%ADD18C,0.0762*%
G36*
X991426Y1145905D02*
Y1142095D01*
X988886D01*
Y1145905D01*
X991426D01*
D02*
G37*
G36*
X1032574Y1161905D02*
Y1158095D01*
X1035114D01*
Y1161905D01*
X1032574D01*
D02*
G37*
G36*
X1627354Y1026930D02*
X1623821Y1025121D01*
X1625266Y1023749D01*
X1627354D01*
Y1021078D01*
X1618722D01*
Y1023749D01*
X1621988D01*
X1618722Y1026529D01*
Y1030075D01*
X1621976Y1026930D01*
X1627354Y1030220D01*
Y1026930D01*
D02*
G37*
G36*
Y1017205D02*
X1624586Y1015505D01*
X1627354Y1013805D01*
Y1010831D01*
X1622862Y1013793D01*
X1618722Y1011098D01*
Y1014036D01*
X1621381Y1015554D01*
X1618722Y1017035D01*
Y1019949D01*
X1622911Y1017266D01*
X1627354Y1020204D01*
Y1017205D01*
D02*
G37*
G36*
X1625521Y1010394D02*
X1625667Y1010369D01*
X1625824Y1010321D01*
X1626007Y1010272D01*
X1626189Y1010187D01*
X1626383Y1010078D01*
X1626407Y1010066D01*
X1626468Y1010017D01*
X1626565Y1009932D01*
X1626674Y1009823D01*
X1626808Y1009677D01*
X1626942Y1009507D01*
X1627075Y1009289D01*
X1627196Y1009046D01*
Y1009034D01*
X1627209Y1009010D01*
X1627221Y1008973D01*
X1627245Y1008913D01*
X1627269Y1008852D01*
X1627294Y1008755D01*
X1627318Y1008658D01*
X1627342Y1008548D01*
X1627379Y1008415D01*
X1627403Y1008269D01*
X1627427Y1008111D01*
X1627451Y1007941D01*
X1627476Y1007759D01*
X1627488Y1007565D01*
X1627500Y1007346D01*
Y1006970D01*
X1627488Y1006849D01*
Y1006703D01*
X1627476Y1006545D01*
X1627464Y1006363D01*
X1627439Y1006181D01*
X1627379Y1005768D01*
X1627294Y1005367D01*
X1627245Y1005173D01*
X1627172Y1004991D01*
X1627099Y1004821D01*
X1627014Y1004675D01*
Y1004663D01*
X1626990Y1004639D01*
X1626966Y1004602D01*
X1626929Y1004554D01*
X1626808Y1004432D01*
X1626662Y1004287D01*
X1626456Y1004129D01*
X1626225Y1003983D01*
X1625934Y1003850D01*
X1625788Y1003801D01*
X1625618Y1003753D01*
X1625399Y1006132D01*
X1625424Y1006144D01*
X1625472Y1006156D01*
X1625545Y1006193D01*
X1625630Y1006241D01*
X1625837Y1006363D01*
X1625934Y1006448D01*
X1626007Y1006533D01*
X1626019Y1006545D01*
X1626031Y1006581D01*
X1626067Y1006642D01*
X1626092Y1006727D01*
X1626128Y1006824D01*
X1626164Y1006946D01*
X1626177Y1007091D01*
X1626189Y1007249D01*
Y1007334D01*
X1626177Y1007419D01*
X1626164Y1007528D01*
X1626140Y1007650D01*
X1626104Y1007771D01*
X1626055Y1007893D01*
X1625982Y1008002D01*
X1625970Y1008014D01*
X1625958Y1008038D01*
X1625922Y1008063D01*
X1625885Y1008111D01*
X1625764Y1008172D01*
X1625691Y1008196D01*
X1625606Y1008208D01*
X1625594D01*
X1625557D01*
X1625521Y1008196D01*
X1625460Y1008172D01*
X1625399Y1008136D01*
X1625327Y1008087D01*
X1625266Y1008026D01*
X1625205Y1007929D01*
Y1007917D01*
X1625193Y1007880D01*
X1625169Y1007820D01*
X1625132Y1007723D01*
X1625096Y1007589D01*
X1625084Y1007504D01*
X1625060Y1007407D01*
X1625035Y1007298D01*
X1625011Y1007176D01*
X1624975Y1007043D01*
X1624950Y1006897D01*
Y1006885D01*
X1624938Y1006849D01*
X1624926Y1006776D01*
X1624914Y1006691D01*
X1624890Y1006593D01*
X1624865Y1006472D01*
X1624817Y1006217D01*
X1624756Y1005926D01*
X1624683Y1005634D01*
X1624622Y1005379D01*
X1624586Y1005258D01*
X1624550Y1005161D01*
X1624538Y1005137D01*
X1624513Y1005076D01*
X1624465Y1004991D01*
X1624404Y1004882D01*
X1624319Y1004748D01*
X1624210Y1004614D01*
X1624076Y1004481D01*
X1623931Y1004347D01*
X1623906Y1004335D01*
X1623846Y1004299D01*
X1623761Y1004238D01*
X1623639Y1004190D01*
X1623481Y1004129D01*
X1623311Y1004068D01*
X1623129Y1004032D01*
X1622923Y1004020D01*
X1622911D01*
X1622899D01*
X1622862D01*
X1622814D01*
X1622704Y1004044D01*
X1622558Y1004068D01*
X1622388Y1004105D01*
X1622206Y1004165D01*
X1622024Y1004250D01*
X1621854Y1004372D01*
X1621830Y1004384D01*
X1621781Y1004445D01*
X1621696Y1004517D01*
X1621599Y1004639D01*
X1621490Y1004772D01*
X1621381Y1004942D01*
X1621272Y1005149D01*
X1621187Y1005367D01*
Y1005379D01*
X1621174Y1005392D01*
X1621162Y1005428D01*
X1621150Y1005489D01*
X1621138Y1005549D01*
X1621114Y1005622D01*
X1621089Y1005707D01*
X1621065Y1005816D01*
X1621053Y1005926D01*
X1621029Y1006059D01*
X1620992Y1006351D01*
X1620968Y1006678D01*
X1620956Y1007055D01*
Y1007334D01*
X1620968Y1007431D01*
X1620980Y1007686D01*
X1621004Y1007953D01*
X1621029Y1008221D01*
X1621077Y1008488D01*
X1621102Y1008597D01*
X1621138Y1008706D01*
Y1008718D01*
X1621150Y1008730D01*
X1621174Y1008791D01*
X1621211Y1008888D01*
X1621272Y1009022D01*
X1621344Y1009155D01*
X1621429Y1009301D01*
X1621539Y1009459D01*
X1621672Y1009592D01*
X1621684Y1009605D01*
X1621733Y1009653D01*
X1621818Y1009726D01*
X1621927Y1009811D01*
X1622061Y1009896D01*
X1622231Y1010005D01*
X1622413Y1010102D01*
X1622631Y1010200D01*
X1622850Y1007929D01*
X1622838D01*
X1622801Y1007917D01*
X1622753Y1007893D01*
X1622680Y1007856D01*
X1622546Y1007759D01*
X1622473Y1007698D01*
X1622413Y1007626D01*
X1622401Y1007613D01*
X1622376Y1007577D01*
X1622352Y1007516D01*
X1622316Y1007431D01*
X1622279Y1007334D01*
X1622243Y1007213D01*
X1622231Y1007079D01*
X1622218Y1006934D01*
Y1006861D01*
X1622231Y1006788D01*
Y1006703D01*
X1622279Y1006509D01*
X1622316Y1006411D01*
X1622364Y1006339D01*
X1622376Y1006326D01*
X1622388Y1006314D01*
X1622461Y1006254D01*
X1622571Y1006181D01*
X1622643Y1006169D01*
X1622716Y1006156D01*
X1622728D01*
X1622753D01*
X1622801Y1006169D01*
X1622850Y1006181D01*
X1622899Y1006217D01*
X1622959Y1006254D01*
X1623020Y1006314D01*
X1623068Y1006387D01*
Y1006399D01*
X1623093Y1006436D01*
X1623117Y1006509D01*
X1623141Y1006606D01*
X1623178Y1006751D01*
X1623202Y1006921D01*
X1623238Y1007152D01*
X1623263Y1007273D01*
X1623275Y1007419D01*
Y1007431D01*
X1623287Y1007468D01*
Y1007528D01*
X1623299Y1007613D01*
X1623311Y1007710D01*
X1623336Y1007832D01*
X1623372Y1008087D01*
X1623433Y1008378D01*
X1623506Y1008670D01*
X1623578Y1008949D01*
X1623615Y1009070D01*
X1623663Y1009192D01*
Y1009204D01*
X1623676Y1009216D01*
X1623712Y1009289D01*
X1623761Y1009398D01*
X1623833Y1009532D01*
X1623931Y1009677D01*
X1624052Y1009823D01*
X1624185Y1009969D01*
X1624343Y1010090D01*
X1624368Y1010102D01*
X1624416Y1010139D01*
X1624513Y1010187D01*
X1624635Y1010248D01*
X1624780Y1010309D01*
X1624950Y1010357D01*
X1625132Y1010394D01*
X1625327Y1010406D01*
X1625351D01*
X1625424D01*
X1625521Y1010394D01*
D02*
G37*
G36*
X1627354Y1000487D02*
X1626359D01*
X1626371Y1000462D01*
X1626444Y1000402D01*
X1626565Y1000304D01*
X1626699Y1000171D01*
X1626844Y1000013D01*
X1626990Y999843D01*
X1627124Y999661D01*
X1627245Y999467D01*
X1627257Y999442D01*
X1627281Y999382D01*
X1627330Y999272D01*
X1627366Y999127D01*
X1627415Y998945D01*
X1627464Y998726D01*
X1627488Y998483D01*
X1627500Y998216D01*
Y998119D01*
X1627488Y998058D01*
Y997973D01*
X1627464Y997876D01*
X1627427Y997658D01*
X1627354Y997403D01*
X1627257Y997148D01*
X1627112Y996905D01*
X1627014Y996784D01*
X1626917Y996674D01*
X1626905D01*
X1626893Y996650D01*
X1626857Y996626D01*
X1626808Y996589D01*
X1626747Y996541D01*
X1626662Y996492D01*
X1626577Y996443D01*
X1626468Y996395D01*
X1626347Y996346D01*
X1626213Y996298D01*
X1626067Y996249D01*
X1625897Y996201D01*
X1625715Y996164D01*
X1625521Y996140D01*
X1625315Y996128D01*
X1625096Y996116D01*
X1621102D01*
Y998520D01*
X1624550D01*
X1624562D01*
X1624574D01*
X1624647D01*
X1624756Y998532D01*
X1624877Y998544D01*
X1625011Y998568D01*
X1625157Y998605D01*
X1625278Y998653D01*
X1625387Y998726D01*
X1625399Y998738D01*
X1625424Y998763D01*
X1625460Y998811D01*
X1625509Y998884D01*
X1625557Y998969D01*
X1625594Y999078D01*
X1625618Y999200D01*
X1625630Y999345D01*
Y999418D01*
X1625618Y999491D01*
X1625594Y999588D01*
X1625545Y999709D01*
X1625497Y999819D01*
X1625412Y999940D01*
X1625302Y1000049D01*
X1625290Y1000062D01*
X1625242Y1000098D01*
X1625157Y1000134D01*
X1625035Y1000195D01*
X1624865Y1000244D01*
X1624671Y1000280D01*
X1624416Y1000316D01*
X1624283Y1000329D01*
X1624125D01*
X1621102D01*
Y1002720D01*
X1627354D01*
Y1000487D01*
D02*
G37*
G36*
Y992303D02*
X1623918D01*
X1623906D01*
X1623894D01*
X1623821D01*
X1623724Y992291D01*
X1623591Y992279D01*
X1623457Y992255D01*
X1623323Y992206D01*
X1623202Y992158D01*
X1623093Y992085D01*
X1623081Y992073D01*
X1623056Y992048D01*
X1623008Y992000D01*
X1622959Y991927D01*
X1622923Y991842D01*
X1622874Y991733D01*
X1622850Y991611D01*
X1622838Y991466D01*
Y991393D01*
X1622850Y991308D01*
X1622874Y991211D01*
X1622923Y991101D01*
X1622983Y990980D01*
X1623068Y990871D01*
X1623178Y990761D01*
X1623190Y990749D01*
X1623238Y990725D01*
X1623323Y990676D01*
X1623445Y990628D01*
X1623615Y990579D01*
X1623809Y990531D01*
X1624064Y990507D01*
X1624198Y990494D01*
X1624355D01*
X1627354D01*
Y988102D01*
X1621102D01*
Y990324D01*
X1622121D01*
X1622109Y990337D01*
X1622097Y990349D01*
X1622024Y990409D01*
X1621915Y990507D01*
X1621781Y990640D01*
X1621636Y990786D01*
X1621490Y990956D01*
X1621344Y991138D01*
X1621235Y991332D01*
X1621223Y991356D01*
X1621187Y991429D01*
X1621150Y991538D01*
X1621089Y991684D01*
X1621041Y991866D01*
X1621004Y992073D01*
X1620968Y992316D01*
X1620956Y992583D01*
Y992680D01*
X1620968Y992753D01*
Y992825D01*
X1620992Y992923D01*
X1621029Y993153D01*
X1621102Y993396D01*
X1621211Y993663D01*
X1621272Y993785D01*
X1621357Y993906D01*
X1621441Y994027D01*
X1621551Y994137D01*
X1621563Y994149D01*
X1621575Y994161D01*
X1621611Y994185D01*
X1621660Y994222D01*
X1621721Y994270D01*
X1621806Y994319D01*
X1621891Y994367D01*
X1622000Y994428D01*
X1622121Y994477D01*
X1622255Y994525D01*
X1622413Y994574D01*
X1622571Y994622D01*
X1622753Y994659D01*
X1622947Y994683D01*
X1623153Y994707D01*
X1623384D01*
X1627354D01*
Y992303D01*
D02*
G37*
G36*
X1624829Y982202D02*
X1624841D01*
X1624853D01*
X1624926Y982214D01*
X1625023Y982238D01*
X1625157Y982263D01*
X1625290Y982299D01*
X1625436Y982360D01*
X1625569Y982420D01*
X1625691Y982505D01*
X1625703Y982517D01*
X1625752Y982566D01*
X1625812Y982651D01*
X1625885Y982748D01*
X1625970Y982882D01*
X1626031Y983040D01*
X1626080Y983222D01*
X1626092Y983416D01*
Y983477D01*
X1626080Y983549D01*
X1626067Y983634D01*
X1626055Y983732D01*
X1626019Y983841D01*
X1625982Y983962D01*
X1625922Y984084D01*
Y984096D01*
X1625897Y984120D01*
X1625873Y984157D01*
X1625824Y984205D01*
X1625776Y984278D01*
X1625703Y984351D01*
X1625618Y984424D01*
X1625521Y984509D01*
X1625739Y986864D01*
X1625752D01*
X1625776Y986840D01*
X1625824Y986803D01*
X1625897Y986767D01*
X1625970Y986718D01*
X1626055Y986646D01*
X1626262Y986500D01*
X1626492Y986306D01*
X1626711Y986075D01*
X1626917Y985832D01*
X1627014Y985698D01*
X1627099Y985553D01*
Y985541D01*
X1627112Y985516D01*
X1627136Y985468D01*
X1627160Y985407D01*
X1627196Y985334D01*
X1627221Y985237D01*
X1627257Y985128D01*
X1627294Y984994D01*
X1627342Y984849D01*
X1627379Y984679D01*
X1627403Y984497D01*
X1627439Y984302D01*
X1627464Y984096D01*
X1627488Y983865D01*
X1627500Y983622D01*
Y983149D01*
X1627488Y983052D01*
X1627476Y982930D01*
Y982797D01*
X1627451Y982651D01*
X1627415Y982335D01*
X1627354Y982008D01*
X1627269Y981692D01*
X1627221Y981546D01*
X1627160Y981401D01*
Y981388D01*
X1627148Y981364D01*
X1627124Y981328D01*
X1627087Y981279D01*
X1627002Y981158D01*
X1626893Y980988D01*
X1626735Y980806D01*
X1626541Y980611D01*
X1626310Y980405D01*
X1626043Y980223D01*
X1626031D01*
X1626007Y980199D01*
X1625970Y980186D01*
X1625909Y980150D01*
X1625837Y980114D01*
X1625752Y980077D01*
X1625642Y980041D01*
X1625533Y979992D01*
X1625266Y979907D01*
X1624962Y979834D01*
X1624622Y979786D01*
X1624246Y979762D01*
X1624234D01*
X1624185D01*
X1624100Y979774D01*
X1624003D01*
X1623882Y979786D01*
X1623736Y979810D01*
X1623566Y979834D01*
X1623396Y979883D01*
X1623214Y979931D01*
X1623020Y979992D01*
X1622826Y980065D01*
X1622619Y980162D01*
X1622425Y980259D01*
X1622231Y980393D01*
X1622049Y980526D01*
X1621866Y980696D01*
X1621854Y980708D01*
X1621830Y980745D01*
X1621781Y980794D01*
X1621721Y980866D01*
X1621660Y980964D01*
X1621575Y981085D01*
X1621490Y981218D01*
X1621405Y981376D01*
X1621320Y981546D01*
X1621247Y981740D01*
X1621162Y981947D01*
X1621102Y982178D01*
X1621041Y982433D01*
X1620992Y982700D01*
X1620968Y982979D01*
X1620956Y983282D01*
Y983501D01*
X1620968Y983622D01*
X1620980Y983756D01*
X1620992Y983902D01*
X1621004Y984060D01*
X1621053Y984399D01*
X1621126Y984752D01*
X1621235Y985091D01*
X1621296Y985262D01*
X1621369Y985407D01*
Y985419D01*
X1621393Y985444D01*
X1621417Y985480D01*
X1621441Y985541D01*
X1621539Y985674D01*
X1621672Y985844D01*
X1621842Y986039D01*
X1622049Y986233D01*
X1622279Y986415D01*
X1622558Y986585D01*
X1622571D01*
X1622595Y986597D01*
X1622631Y986621D01*
X1622692Y986646D01*
X1622777Y986682D01*
X1622862Y986718D01*
X1622971Y986755D01*
X1623093Y986791D01*
X1623226Y986828D01*
X1623384Y986864D01*
X1623554Y986900D01*
X1623724Y986937D01*
X1623918Y986961D01*
X1624125Y986985D01*
X1624562Y986998D01*
X1624829D01*
Y982202D01*
D02*
G37*
G36*
X1627354Y976143D02*
Y973254D01*
X1618722Y970000D01*
Y972780D01*
X1624938Y974723D01*
X1618722Y976641D01*
Y979349D01*
X1627354Y976143D01*
D02*
G37*
G36*
X1623976Y1094856D02*
X1624061D01*
X1624147Y1094845D01*
X1624254Y1094835D01*
X1624371Y1094813D01*
X1624628Y1094770D01*
X1624917Y1094696D01*
X1625205Y1094599D01*
X1625505Y1094471D01*
X1625515D01*
X1625537Y1094450D01*
X1625580Y1094428D01*
X1625633Y1094396D01*
X1625697Y1094364D01*
X1625772Y1094311D01*
X1625943Y1094193D01*
X1626136Y1094043D01*
X1626328Y1093861D01*
X1626521Y1093648D01*
X1626692Y1093402D01*
Y1093391D01*
X1626713Y1093370D01*
X1626724Y1093337D01*
X1626756Y1093284D01*
X1626788Y1093220D01*
X1626820Y1093145D01*
X1626852Y1093049D01*
X1626895Y1092952D01*
X1626970Y1092728D01*
X1627034Y1092461D01*
X1627077Y1092172D01*
X1627098Y1091851D01*
Y1091787D01*
X1627087Y1091712D01*
X1627077Y1091605D01*
X1627066Y1091477D01*
X1627045Y1091338D01*
X1627012Y1091177D01*
X1626959Y1090996D01*
X1626906Y1090814D01*
X1626831Y1090611D01*
X1626745Y1090418D01*
X1626638Y1090215D01*
X1626521Y1090012D01*
X1626371Y1089819D01*
X1626210Y1089627D01*
X1626018Y1089445D01*
X1626007Y1089434D01*
X1625965Y1089402D01*
X1625900Y1089360D01*
X1625815Y1089306D01*
X1625686Y1089231D01*
X1625547Y1089156D01*
X1625366Y1089071D01*
X1625163Y1088985D01*
X1624938Y1088900D01*
X1624671Y1088814D01*
X1624382Y1088739D01*
X1624061Y1088664D01*
X1623708Y1088611D01*
X1623323Y1088568D01*
X1622906Y1088536D01*
X1622457Y1088525D01*
X1622446D01*
X1622425D01*
X1622382D01*
X1622339D01*
X1622265D01*
X1622190Y1088536D01*
X1622104D01*
X1621997Y1088547D01*
X1621773Y1088558D01*
X1621505Y1088579D01*
X1621217Y1088611D01*
X1620907Y1088654D01*
X1620586Y1088707D01*
X1620244Y1088771D01*
X1619912Y1088857D01*
X1619581Y1088964D01*
X1619260Y1089081D01*
X1618950Y1089210D01*
X1618672Y1089370D01*
X1618415Y1089552D01*
X1618404Y1089563D01*
X1618372Y1089595D01*
X1618308Y1089648D01*
X1618244Y1089712D01*
X1618158Y1089809D01*
X1618062Y1089916D01*
X1617966Y1090044D01*
X1617859Y1090194D01*
X1617763Y1090354D01*
X1617666Y1090536D01*
X1617570Y1090739D01*
X1617485Y1090953D01*
X1617410Y1091177D01*
X1617356Y1091434D01*
X1617324Y1091691D01*
X1617314Y1091969D01*
Y1092076D01*
X1617324Y1092161D01*
X1617335Y1092257D01*
X1617346Y1092364D01*
X1617367Y1092493D01*
X1617388Y1092632D01*
X1617474Y1092920D01*
X1617517Y1093081D01*
X1617581Y1093231D01*
X1617656Y1093391D01*
X1617741Y1093541D01*
X1617838Y1093690D01*
X1617955Y1093829D01*
X1617966Y1093840D01*
X1617987Y1093861D01*
X1618019Y1093894D01*
X1618073Y1093947D01*
X1618137Y1094000D01*
X1618212Y1094065D01*
X1618308Y1094139D01*
X1618404Y1094214D01*
X1618522Y1094289D01*
X1618661Y1094364D01*
X1618800Y1094439D01*
X1618960Y1094503D01*
X1619121Y1094567D01*
X1619303Y1094621D01*
X1619495Y1094674D01*
X1619698Y1094706D01*
X1619794Y1093530D01*
X1619784D01*
X1619762Y1093519D01*
X1619730Y1093509D01*
X1619677Y1093498D01*
X1619559Y1093466D01*
X1619409Y1093412D01*
X1619249Y1093348D01*
X1619078Y1093273D01*
X1618928Y1093188D01*
X1618789Y1093081D01*
X1618779D01*
X1618768Y1093059D01*
X1618714Y1092995D01*
X1618629Y1092888D01*
X1618533Y1092749D01*
X1618447Y1092578D01*
X1618362Y1092375D01*
X1618308Y1092150D01*
X1618287Y1092022D01*
Y1091798D01*
X1618308Y1091691D01*
X1618329Y1091562D01*
X1618362Y1091402D01*
X1618426Y1091242D01*
X1618501Y1091070D01*
X1618607Y1090899D01*
Y1090889D01*
X1618629Y1090878D01*
X1618682Y1090814D01*
X1618779Y1090707D01*
X1618907Y1090589D01*
X1619067Y1090450D01*
X1619270Y1090301D01*
X1619506Y1090162D01*
X1619784Y1090033D01*
X1619794D01*
X1619816Y1090023D01*
X1619869Y1090001D01*
X1619923Y1089980D01*
X1620008Y1089958D01*
X1620105Y1089926D01*
X1620222Y1089905D01*
X1620350Y1089873D01*
X1620500Y1089841D01*
X1620661Y1089809D01*
X1620842Y1089787D01*
X1621046Y1089755D01*
X1621259Y1089734D01*
X1621484Y1089723D01*
X1621730Y1089712D01*
X1621986Y1089702D01*
X1621965Y1089723D01*
X1621933Y1089744D01*
X1621890Y1089777D01*
X1621773Y1089862D01*
X1621634Y1089990D01*
X1621473Y1090140D01*
X1621313Y1090311D01*
X1621163Y1090514D01*
X1621035Y1090728D01*
Y1090739D01*
X1621024Y1090760D01*
X1621003Y1090792D01*
X1620981Y1090835D01*
X1620960Y1090889D01*
X1620928Y1090964D01*
X1620874Y1091124D01*
X1620810Y1091316D01*
X1620768Y1091541D01*
X1620725Y1091776D01*
X1620714Y1092022D01*
Y1092076D01*
X1620725Y1092140D01*
Y1092225D01*
X1620735Y1092322D01*
X1620757Y1092439D01*
X1620789Y1092578D01*
X1620821Y1092717D01*
X1620874Y1092878D01*
X1620928Y1093038D01*
X1621003Y1093198D01*
X1621088Y1093370D01*
X1621185Y1093541D01*
X1621302Y1093712D01*
X1621441Y1093872D01*
X1621591Y1094033D01*
X1621602Y1094043D01*
X1621634Y1094065D01*
X1621676Y1094107D01*
X1621751Y1094161D01*
X1621837Y1094225D01*
X1621933Y1094300D01*
X1622061Y1094375D01*
X1622190Y1094450D01*
X1622350Y1094524D01*
X1622521Y1094599D01*
X1622703Y1094674D01*
X1622896Y1094738D01*
X1623109Y1094792D01*
X1623334Y1094835D01*
X1623580Y1094856D01*
X1623826Y1094867D01*
X1623837D01*
X1623869D01*
X1623911D01*
X1623976Y1094856D01*
D02*
G37*
G36*
X1622639Y1087371D02*
X1622799Y1087360D01*
X1622981Y1087349D01*
X1623184Y1087338D01*
X1623398Y1087317D01*
X1623623Y1087296D01*
X1624072Y1087232D01*
X1624521Y1087146D01*
X1624735Y1087093D01*
X1624938Y1087028D01*
X1624949D01*
X1624981Y1087018D01*
X1625034Y1086996D01*
X1625109Y1086964D01*
X1625195Y1086932D01*
X1625291Y1086879D01*
X1625408Y1086836D01*
X1625526Y1086772D01*
X1625783Y1086622D01*
X1626050Y1086451D01*
X1626307Y1086237D01*
X1626435Y1086119D01*
X1626542Y1085991D01*
X1626553Y1085980D01*
X1626563Y1085959D01*
X1626595Y1085916D01*
X1626628Y1085863D01*
X1626670Y1085799D01*
X1626713Y1085724D01*
X1626767Y1085628D01*
X1626820Y1085521D01*
X1626873Y1085392D01*
X1626927Y1085264D01*
X1626970Y1085125D01*
X1627012Y1084965D01*
X1627077Y1084622D01*
X1627087Y1084441D01*
X1627098Y1084248D01*
Y1084184D01*
X1627087Y1084120D01*
Y1084024D01*
X1627066Y1083906D01*
X1627045Y1083767D01*
X1627012Y1083617D01*
X1626970Y1083457D01*
X1626927Y1083286D01*
X1626863Y1083104D01*
X1626777Y1082922D01*
X1626681Y1082740D01*
X1626574Y1082559D01*
X1626435Y1082387D01*
X1626285Y1082227D01*
X1626114Y1082067D01*
X1626104Y1082056D01*
X1626061Y1082024D01*
X1625986Y1081981D01*
X1625890Y1081917D01*
X1625751Y1081853D01*
X1625590Y1081767D01*
X1625398Y1081682D01*
X1625173Y1081596D01*
X1624917Y1081511D01*
X1624639Y1081425D01*
X1624318Y1081339D01*
X1623965Y1081275D01*
X1623580Y1081211D01*
X1623152Y1081168D01*
X1622703Y1081136D01*
X1622211Y1081126D01*
X1622190D01*
X1622136D01*
X1622051D01*
X1621933Y1081136D01*
X1621783D01*
X1621623Y1081147D01*
X1621431Y1081158D01*
X1621227Y1081168D01*
X1621013Y1081190D01*
X1620800Y1081211D01*
X1620340Y1081275D01*
X1619891Y1081350D01*
X1619677Y1081404D01*
X1619474Y1081468D01*
X1619463D01*
X1619431Y1081489D01*
X1619377Y1081500D01*
X1619303Y1081532D01*
X1619217Y1081575D01*
X1619121Y1081618D01*
X1619003Y1081671D01*
X1618885Y1081735D01*
X1618629Y1081874D01*
X1618362Y1082056D01*
X1618105Y1082259D01*
X1617987Y1082377D01*
X1617880Y1082505D01*
X1617870Y1082516D01*
X1617859Y1082537D01*
X1617827Y1082580D01*
X1617795Y1082633D01*
X1617752Y1082698D01*
X1617699Y1082783D01*
X1617645Y1082879D01*
X1617592Y1082986D01*
X1617549Y1083104D01*
X1617495Y1083232D01*
X1617442Y1083382D01*
X1617399Y1083532D01*
X1617335Y1083874D01*
X1617324Y1084056D01*
X1617314Y1084248D01*
Y1084376D01*
X1617324Y1084441D01*
X1617335Y1084526D01*
X1617356Y1084708D01*
X1617388Y1084922D01*
X1617453Y1085146D01*
X1617527Y1085382D01*
X1617634Y1085606D01*
Y1085617D01*
X1617645Y1085628D01*
X1617666Y1085660D01*
X1617688Y1085702D01*
X1617763Y1085809D01*
X1617859Y1085948D01*
X1617987Y1086098D01*
X1618148Y1086258D01*
X1618329Y1086419D01*
X1618533Y1086569D01*
X1618543D01*
X1618554Y1086590D01*
X1618586Y1086601D01*
X1618640Y1086633D01*
X1618693Y1086665D01*
X1618757Y1086697D01*
X1618843Y1086740D01*
X1618928Y1086782D01*
X1619131Y1086879D01*
X1619377Y1086975D01*
X1619655Y1087071D01*
X1619955Y1087157D01*
X1619966D01*
X1619998Y1087167D01*
X1620040Y1087178D01*
X1620105Y1087189D01*
X1620190Y1087210D01*
X1620297Y1087232D01*
X1620415Y1087253D01*
X1620554Y1087274D01*
X1620703Y1087285D01*
X1620874Y1087306D01*
X1621056Y1087328D01*
X1621259Y1087349D01*
X1621473Y1087360D01*
X1621709Y1087371D01*
X1621954Y1087381D01*
X1622211D01*
X1622233D01*
X1622286D01*
X1622372D01*
X1622489D01*
X1622639Y1087371D01*
D02*
G37*
G36*
X1618404Y1079949D02*
X1618436Y1079917D01*
X1618490Y1079874D01*
X1618575Y1079800D01*
X1618672Y1079714D01*
X1618789Y1079618D01*
X1618928Y1079511D01*
X1619078Y1079383D01*
X1619260Y1079254D01*
X1619452Y1079105D01*
X1619666Y1078955D01*
X1619891Y1078805D01*
X1620147Y1078634D01*
X1620404Y1078474D01*
X1620682Y1078303D01*
X1620981Y1078131D01*
X1621003Y1078121D01*
X1621056Y1078089D01*
X1621142Y1078046D01*
X1621259Y1077982D01*
X1621409Y1077907D01*
X1621580Y1077821D01*
X1621783Y1077725D01*
X1621997Y1077618D01*
X1622243Y1077511D01*
X1622500Y1077394D01*
X1622778Y1077287D01*
X1623067Y1077169D01*
X1623366Y1077051D01*
X1623676Y1076945D01*
X1624307Y1076741D01*
X1624318D01*
X1624361Y1076731D01*
X1624425Y1076709D01*
X1624521Y1076688D01*
X1624628Y1076656D01*
X1624767Y1076624D01*
X1624917Y1076592D01*
X1625088Y1076549D01*
X1625280Y1076517D01*
X1625483Y1076474D01*
X1625697Y1076442D01*
X1625922Y1076399D01*
X1626168Y1076367D01*
X1626414Y1076335D01*
X1626938Y1076292D01*
Y1075084D01*
X1626927D01*
X1626884D01*
X1626820D01*
X1626734Y1075095D01*
X1626628D01*
X1626499Y1075105D01*
X1626349Y1075127D01*
X1626178Y1075148D01*
X1625986Y1075169D01*
X1625783Y1075191D01*
X1625558Y1075234D01*
X1625312Y1075276D01*
X1625056Y1075319D01*
X1624788Y1075383D01*
X1624510Y1075447D01*
X1624211Y1075522D01*
X1624189D01*
X1624136Y1075544D01*
X1624050Y1075565D01*
X1623933Y1075597D01*
X1623794Y1075651D01*
X1623623Y1075704D01*
X1623430Y1075758D01*
X1623227Y1075832D01*
X1622992Y1075918D01*
X1622746Y1076003D01*
X1622500Y1076110D01*
X1622233Y1076217D01*
X1621676Y1076463D01*
X1621120Y1076741D01*
X1621099Y1076752D01*
X1621056Y1076773D01*
X1620981Y1076827D01*
X1620874Y1076880D01*
X1620746Y1076955D01*
X1620596Y1077041D01*
X1620425Y1077148D01*
X1620244Y1077255D01*
X1620051Y1077383D01*
X1619859Y1077511D01*
X1619431Y1077800D01*
X1619014Y1078121D01*
X1618800Y1078281D01*
X1618607Y1078452D01*
Y1073747D01*
X1617474D01*
Y1079960D01*
X1618394D01*
X1618404Y1079949D01*
D02*
G37*
G36*
X1622639Y1072464D02*
X1622799Y1072453D01*
X1622981Y1072443D01*
X1623184Y1072432D01*
X1623398Y1072411D01*
X1623623Y1072389D01*
X1624072Y1072325D01*
X1624521Y1072239D01*
X1624735Y1072186D01*
X1624938Y1072122D01*
X1624949D01*
X1624981Y1072111D01*
X1625034Y1072090D01*
X1625109Y1072058D01*
X1625195Y1072026D01*
X1625291Y1071972D01*
X1625408Y1071929D01*
X1625526Y1071865D01*
X1625783Y1071715D01*
X1626050Y1071544D01*
X1626307Y1071330D01*
X1626435Y1071213D01*
X1626542Y1071085D01*
X1626553Y1071074D01*
X1626563Y1071052D01*
X1626595Y1071010D01*
X1626628Y1070956D01*
X1626670Y1070892D01*
X1626713Y1070817D01*
X1626767Y1070721D01*
X1626820Y1070614D01*
X1626873Y1070486D01*
X1626927Y1070357D01*
X1626970Y1070218D01*
X1627012Y1070058D01*
X1627077Y1069716D01*
X1627087Y1069534D01*
X1627098Y1069342D01*
Y1069277D01*
X1627087Y1069213D01*
Y1069117D01*
X1627066Y1068999D01*
X1627045Y1068860D01*
X1627012Y1068711D01*
X1626970Y1068550D01*
X1626927Y1068379D01*
X1626863Y1068197D01*
X1626777Y1068016D01*
X1626681Y1067834D01*
X1626574Y1067652D01*
X1626435Y1067481D01*
X1626285Y1067320D01*
X1626114Y1067160D01*
X1626104Y1067149D01*
X1626061Y1067117D01*
X1625986Y1067075D01*
X1625890Y1067010D01*
X1625751Y1066946D01*
X1625590Y1066861D01*
X1625398Y1066775D01*
X1625173Y1066690D01*
X1624917Y1066604D01*
X1624639Y1066518D01*
X1624318Y1066433D01*
X1623965Y1066369D01*
X1623580Y1066304D01*
X1623152Y1066262D01*
X1622703Y1066230D01*
X1622211Y1066219D01*
X1622190D01*
X1622136D01*
X1622051D01*
X1621933Y1066230D01*
X1621783D01*
X1621623Y1066240D01*
X1621431Y1066251D01*
X1621227Y1066262D01*
X1621013Y1066283D01*
X1620800Y1066304D01*
X1620340Y1066369D01*
X1619891Y1066444D01*
X1619677Y1066497D01*
X1619474Y1066561D01*
X1619463D01*
X1619431Y1066583D01*
X1619377Y1066593D01*
X1619303Y1066625D01*
X1619217Y1066668D01*
X1619121Y1066711D01*
X1619003Y1066764D01*
X1618885Y1066829D01*
X1618629Y1066967D01*
X1618362Y1067149D01*
X1618105Y1067353D01*
X1617987Y1067470D01*
X1617880Y1067598D01*
X1617870Y1067609D01*
X1617859Y1067630D01*
X1617827Y1067673D01*
X1617795Y1067727D01*
X1617752Y1067791D01*
X1617699Y1067877D01*
X1617645Y1067973D01*
X1617592Y1068080D01*
X1617549Y1068197D01*
X1617495Y1068326D01*
X1617442Y1068475D01*
X1617399Y1068625D01*
X1617335Y1068967D01*
X1617324Y1069149D01*
X1617314Y1069342D01*
Y1069470D01*
X1617324Y1069534D01*
X1617335Y1069620D01*
X1617356Y1069801D01*
X1617388Y1070015D01*
X1617453Y1070240D01*
X1617527Y1070475D01*
X1617634Y1070699D01*
Y1070710D01*
X1617645Y1070721D01*
X1617666Y1070753D01*
X1617688Y1070796D01*
X1617763Y1070903D01*
X1617859Y1071042D01*
X1617987Y1071191D01*
X1618148Y1071352D01*
X1618329Y1071512D01*
X1618533Y1071662D01*
X1618543D01*
X1618554Y1071683D01*
X1618586Y1071694D01*
X1618640Y1071726D01*
X1618693Y1071758D01*
X1618757Y1071790D01*
X1618843Y1071833D01*
X1618928Y1071876D01*
X1619131Y1071972D01*
X1619377Y1072068D01*
X1619655Y1072165D01*
X1619955Y1072250D01*
X1619966D01*
X1619998Y1072261D01*
X1620040Y1072271D01*
X1620105Y1072282D01*
X1620190Y1072303D01*
X1620297Y1072325D01*
X1620415Y1072346D01*
X1620554Y1072368D01*
X1620703Y1072378D01*
X1620874Y1072400D01*
X1621056Y1072421D01*
X1621259Y1072443D01*
X1621473Y1072453D01*
X1621709Y1072464D01*
X1621954Y1072475D01*
X1622211D01*
X1622233D01*
X1622286D01*
X1622372D01*
X1622489D01*
X1622639Y1072464D01*
D02*
G37*
G36*
X1624221Y1065043D02*
X1624318D01*
X1624425Y1065021D01*
X1624542Y1065000D01*
X1624681Y1064979D01*
X1624842Y1064936D01*
X1625002Y1064893D01*
X1625173Y1064829D01*
X1625344Y1064754D01*
X1625526Y1064669D01*
X1625708Y1064561D01*
X1625890Y1064433D01*
X1626061Y1064294D01*
X1626232Y1064134D01*
X1626243Y1064123D01*
X1626264Y1064091D01*
X1626307Y1064037D01*
X1626371Y1063973D01*
X1626435Y1063877D01*
X1626510Y1063770D01*
X1626585Y1063642D01*
X1626660Y1063503D01*
X1626745Y1063343D01*
X1626820Y1063161D01*
X1626895Y1062968D01*
X1626959Y1062765D01*
X1627012Y1062551D01*
X1627055Y1062316D01*
X1627087Y1062070D01*
X1627098Y1061813D01*
Y1061696D01*
X1627087Y1061600D01*
X1627077Y1061492D01*
X1627055Y1061375D01*
X1627034Y1061236D01*
X1627002Y1061076D01*
X1626970Y1060915D01*
X1626916Y1060744D01*
X1626852Y1060573D01*
X1626777Y1060402D01*
X1626692Y1060220D01*
X1626595Y1060049D01*
X1626478Y1059878D01*
X1626349Y1059717D01*
X1626339Y1059707D01*
X1626317Y1059685D01*
X1626275Y1059643D01*
X1626210Y1059589D01*
X1626136Y1059525D01*
X1626050Y1059450D01*
X1625943Y1059375D01*
X1625826Y1059290D01*
X1625686Y1059204D01*
X1625547Y1059129D01*
X1625376Y1059044D01*
X1625205Y1058969D01*
X1625023Y1058905D01*
X1624820Y1058851D01*
X1624617Y1058809D01*
X1624393Y1058776D01*
X1624232Y1059953D01*
X1624243D01*
X1624275Y1059963D01*
X1624328Y1059974D01*
X1624393Y1059995D01*
X1624478Y1060017D01*
X1624574Y1060038D01*
X1624799Y1060113D01*
X1625034Y1060199D01*
X1625269Y1060316D01*
X1625494Y1060455D01*
X1625601Y1060541D01*
X1625686Y1060626D01*
Y1060637D01*
X1625708Y1060648D01*
X1625729Y1060680D01*
X1625751Y1060712D01*
X1625826Y1060819D01*
X1625900Y1060958D01*
X1625986Y1061140D01*
X1626061Y1061343D01*
X1626104Y1061567D01*
X1626125Y1061824D01*
Y1061910D01*
X1626114Y1061963D01*
X1626104Y1062038D01*
X1626093Y1062123D01*
X1626050Y1062316D01*
X1625986Y1062530D01*
X1625890Y1062765D01*
X1625826Y1062883D01*
X1625740Y1063000D01*
X1625654Y1063118D01*
X1625558Y1063225D01*
X1625547Y1063235D01*
X1625526Y1063246D01*
X1625494Y1063278D01*
X1625451Y1063310D01*
X1625398Y1063364D01*
X1625334Y1063407D01*
X1625248Y1063460D01*
X1625163Y1063514D01*
X1624959Y1063621D01*
X1624713Y1063717D01*
X1624435Y1063781D01*
X1624286Y1063792D01*
X1624125Y1063802D01*
X1624115D01*
X1624093D01*
X1624050D01*
X1623986Y1063792D01*
X1623922D01*
X1623847Y1063770D01*
X1623655Y1063738D01*
X1623452Y1063674D01*
X1623227Y1063578D01*
X1623120Y1063514D01*
X1623002Y1063449D01*
X1622896Y1063364D01*
X1622799Y1063268D01*
X1622789Y1063257D01*
X1622778Y1063246D01*
X1622746Y1063214D01*
X1622714Y1063171D01*
X1622671Y1063118D01*
X1622628Y1063054D01*
X1622532Y1062904D01*
X1622436Y1062701D01*
X1622350Y1062476D01*
X1622286Y1062209D01*
X1622275Y1062070D01*
X1622265Y1061920D01*
Y1061856D01*
X1622275Y1061792D01*
Y1061696D01*
X1622297Y1061567D01*
X1622318Y1061428D01*
X1622350Y1061268D01*
X1622393Y1061086D01*
X1621356Y1061225D01*
Y1061247D01*
X1621366Y1061289D01*
X1621377Y1061354D01*
Y1061482D01*
X1621366Y1061535D01*
Y1061600D01*
X1621356Y1061674D01*
X1621324Y1061867D01*
X1621281Y1062070D01*
X1621217Y1062305D01*
X1621120Y1062530D01*
X1620992Y1062765D01*
Y1062776D01*
X1620971Y1062786D01*
X1620949Y1062819D01*
X1620917Y1062861D01*
X1620821Y1062958D01*
X1620693Y1063075D01*
X1620522Y1063182D01*
X1620318Y1063278D01*
X1620201Y1063321D01*
X1620072Y1063353D01*
X1619933Y1063364D01*
X1619784Y1063375D01*
X1619773D01*
X1619752D01*
X1619720D01*
X1619677Y1063364D01*
X1619559Y1063353D01*
X1619409Y1063321D01*
X1619238Y1063268D01*
X1619057Y1063193D01*
X1618885Y1063086D01*
X1618714Y1062936D01*
X1618693Y1062915D01*
X1618650Y1062861D01*
X1618575Y1062765D01*
X1618501Y1062626D01*
X1618426Y1062466D01*
X1618351Y1062273D01*
X1618308Y1062049D01*
X1618287Y1061803D01*
Y1061739D01*
X1618297Y1061685D01*
Y1061631D01*
X1618308Y1061557D01*
X1618340Y1061396D01*
X1618394Y1061215D01*
X1618468Y1061022D01*
X1618575Y1060829D01*
X1618725Y1060648D01*
X1618746Y1060626D01*
X1618800Y1060573D01*
X1618907Y1060498D01*
X1619046Y1060413D01*
X1619228Y1060306D01*
X1619442Y1060220D01*
X1619709Y1060135D01*
X1620008Y1060070D01*
X1619794Y1058894D01*
X1619784D01*
X1619741Y1058905D01*
X1619677Y1058915D01*
X1619602Y1058937D01*
X1619506Y1058969D01*
X1619388Y1059001D01*
X1619260Y1059044D01*
X1619121Y1059097D01*
X1618832Y1059225D01*
X1618682Y1059300D01*
X1618522Y1059397D01*
X1618372Y1059493D01*
X1618233Y1059611D01*
X1618094Y1059728D01*
X1617966Y1059867D01*
X1617955Y1059878D01*
X1617934Y1059899D01*
X1617902Y1059942D01*
X1617859Y1060006D01*
X1617816Y1060081D01*
X1617763Y1060166D01*
X1617699Y1060274D01*
X1617634Y1060391D01*
X1617581Y1060530D01*
X1617517Y1060669D01*
X1617463Y1060829D01*
X1617410Y1061001D01*
X1617378Y1061172D01*
X1617346Y1061364D01*
X1617324Y1061567D01*
X1617314Y1061770D01*
Y1061910D01*
X1617324Y1061974D01*
X1617335Y1062059D01*
X1617356Y1062252D01*
X1617399Y1062476D01*
X1617453Y1062712D01*
X1617538Y1062968D01*
X1617656Y1063214D01*
Y1063225D01*
X1617666Y1063246D01*
X1617688Y1063278D01*
X1617720Y1063321D01*
X1617795Y1063439D01*
X1617891Y1063588D01*
X1618030Y1063749D01*
X1618180Y1063920D01*
X1618362Y1064080D01*
X1618575Y1064230D01*
X1618586D01*
X1618597Y1064241D01*
X1618629Y1064262D01*
X1618672Y1064284D01*
X1618789Y1064337D01*
X1618950Y1064412D01*
X1619131Y1064476D01*
X1619335Y1064529D01*
X1619570Y1064572D01*
X1619805Y1064583D01*
X1619816D01*
X1619837D01*
X1619869D01*
X1619912D01*
X1620030Y1064561D01*
X1620179Y1064540D01*
X1620350Y1064497D01*
X1620543Y1064444D01*
X1620746Y1064358D01*
X1620939Y1064241D01*
X1620949D01*
X1620960Y1064230D01*
X1621024Y1064177D01*
X1621110Y1064102D01*
X1621227Y1063995D01*
X1621356Y1063856D01*
X1621484Y1063685D01*
X1621623Y1063482D01*
X1621741Y1063257D01*
Y1063268D01*
X1621751Y1063300D01*
X1621762Y1063343D01*
X1621783Y1063396D01*
X1621805Y1063471D01*
X1621837Y1063546D01*
X1621912Y1063738D01*
X1622019Y1063952D01*
X1622168Y1064166D01*
X1622339Y1064380D01*
X1622553Y1064572D01*
X1622564Y1064583D01*
X1622585Y1064594D01*
X1622617Y1064615D01*
X1622660Y1064647D01*
X1622724Y1064679D01*
X1622799Y1064722D01*
X1622885Y1064765D01*
X1622981Y1064818D01*
X1623088Y1064861D01*
X1623206Y1064904D01*
X1623473Y1064979D01*
X1623772Y1065032D01*
X1623933Y1065053D01*
X1624104D01*
X1624115D01*
X1624157D01*
X1624221Y1065043D01*
D02*
G37*
G36*
X1626938Y1051152D02*
X1626916D01*
X1626863D01*
X1626788D01*
X1626681Y1051163D01*
X1626553Y1051173D01*
X1626414Y1051195D01*
X1626275Y1051227D01*
X1626125Y1051280D01*
X1626114D01*
X1626093Y1051291D01*
X1626061Y1051302D01*
X1626018Y1051323D01*
X1625954Y1051355D01*
X1625890Y1051387D01*
X1625719Y1051473D01*
X1625526Y1051580D01*
X1625312Y1051719D01*
X1625088Y1051879D01*
X1624852Y1052061D01*
X1624842Y1052072D01*
X1624820Y1052082D01*
X1624788Y1052114D01*
X1624745Y1052157D01*
X1624681Y1052221D01*
X1624606Y1052286D01*
X1624532Y1052360D01*
X1624435Y1052457D01*
X1624328Y1052563D01*
X1624221Y1052671D01*
X1624104Y1052799D01*
X1623976Y1052938D01*
X1623837Y1053087D01*
X1623698Y1053259D01*
X1623548Y1053430D01*
X1623398Y1053612D01*
X1623387Y1053633D01*
X1623345Y1053676D01*
X1623270Y1053761D01*
X1623184Y1053868D01*
X1623077Y1053986D01*
X1622949Y1054136D01*
X1622810Y1054296D01*
X1622660Y1054467D01*
X1622339Y1054820D01*
X1621997Y1055162D01*
X1621826Y1055322D01*
X1621666Y1055483D01*
X1621516Y1055611D01*
X1621366Y1055729D01*
X1621356Y1055740D01*
X1621334Y1055750D01*
X1621292Y1055782D01*
X1621238Y1055814D01*
X1621174Y1055857D01*
X1621099Y1055900D01*
X1620907Y1056007D01*
X1620693Y1056114D01*
X1620457Y1056199D01*
X1620201Y1056263D01*
X1620083Y1056274D01*
X1619955Y1056285D01*
X1619944D01*
X1619923D01*
X1619891D01*
X1619837Y1056274D01*
X1619773D01*
X1619709Y1056263D01*
X1619538Y1056221D01*
X1619356Y1056156D01*
X1619153Y1056071D01*
X1618960Y1055943D01*
X1618864Y1055857D01*
X1618768Y1055771D01*
X1618757Y1055761D01*
X1618746Y1055750D01*
X1618725Y1055718D01*
X1618693Y1055686D01*
X1618618Y1055568D01*
X1618522Y1055419D01*
X1618436Y1055237D01*
X1618362Y1055012D01*
X1618308Y1054756D01*
X1618287Y1054617D01*
Y1054381D01*
X1618297Y1054328D01*
Y1054253D01*
X1618308Y1054167D01*
X1618351Y1053975D01*
X1618415Y1053761D01*
X1618501Y1053526D01*
X1618629Y1053301D01*
X1618714Y1053194D01*
X1618800Y1053098D01*
X1618811Y1053087D01*
X1618821Y1053077D01*
X1618853Y1053055D01*
X1618896Y1053023D01*
X1618950Y1052981D01*
X1619014Y1052938D01*
X1619089Y1052895D01*
X1619164Y1052842D01*
X1619367Y1052745D01*
X1619613Y1052671D01*
X1619891Y1052606D01*
X1620051Y1052596D01*
X1620211Y1052585D01*
X1620083Y1051377D01*
X1620072D01*
X1620019Y1051387D01*
X1619955Y1051398D01*
X1619859Y1051409D01*
X1619752Y1051430D01*
X1619623Y1051462D01*
X1619474Y1051494D01*
X1619324Y1051537D01*
X1619153Y1051590D01*
X1618992Y1051655D01*
X1618821Y1051729D01*
X1618650Y1051815D01*
X1618479Y1051922D01*
X1618319Y1052029D01*
X1618169Y1052168D01*
X1618030Y1052307D01*
X1618019Y1052318D01*
X1617998Y1052350D01*
X1617966Y1052392D01*
X1617912Y1052457D01*
X1617859Y1052542D01*
X1617805Y1052638D01*
X1617741Y1052756D01*
X1617666Y1052884D01*
X1617602Y1053034D01*
X1617538Y1053194D01*
X1617485Y1053376D01*
X1617421Y1053569D01*
X1617378Y1053783D01*
X1617346Y1054007D01*
X1617324Y1054242D01*
X1617314Y1054488D01*
Y1054627D01*
X1617324Y1054724D01*
X1617335Y1054830D01*
X1617356Y1054969D01*
X1617378Y1055119D01*
X1617410Y1055280D01*
X1617453Y1055461D01*
X1617506Y1055632D01*
X1617560Y1055814D01*
X1617634Y1055996D01*
X1617731Y1056178D01*
X1617827Y1056360D01*
X1617944Y1056520D01*
X1618083Y1056681D01*
X1618094Y1056691D01*
X1618116Y1056713D01*
X1618158Y1056755D01*
X1618223Y1056809D01*
X1618297Y1056873D01*
X1618383Y1056937D01*
X1618490Y1057012D01*
X1618607Y1057087D01*
X1618736Y1057162D01*
X1618885Y1057236D01*
X1619035Y1057301D01*
X1619206Y1057365D01*
X1619388Y1057418D01*
X1619570Y1057461D01*
X1619773Y1057483D01*
X1619976Y1057493D01*
X1619987D01*
X1619998D01*
X1620030D01*
X1620072D01*
X1620190Y1057483D01*
X1620329Y1057461D01*
X1620511Y1057429D01*
X1620693Y1057386D01*
X1620896Y1057333D01*
X1621110Y1057247D01*
X1621120D01*
X1621131Y1057236D01*
X1621163Y1057226D01*
X1621206Y1057205D01*
X1621313Y1057140D01*
X1621463Y1057065D01*
X1621644Y1056958D01*
X1621837Y1056820D01*
X1622061Y1056659D01*
X1622286Y1056467D01*
X1622297Y1056456D01*
X1622318Y1056445D01*
X1622350Y1056413D01*
X1622393Y1056360D01*
X1622457Y1056306D01*
X1622532Y1056231D01*
X1622628Y1056135D01*
X1622724Y1056039D01*
X1622842Y1055921D01*
X1622960Y1055782D01*
X1623099Y1055632D01*
X1623248Y1055472D01*
X1623409Y1055290D01*
X1623591Y1055098D01*
X1623772Y1054884D01*
X1623965Y1054649D01*
X1623976Y1054638D01*
X1624008Y1054606D01*
X1624050Y1054553D01*
X1624104Y1054478D01*
X1624179Y1054392D01*
X1624264Y1054296D01*
X1624446Y1054082D01*
X1624649Y1053847D01*
X1624852Y1053622D01*
X1624938Y1053526D01*
X1625023Y1053430D01*
X1625109Y1053344D01*
X1625173Y1053280D01*
X1625184Y1053269D01*
X1625227Y1053226D01*
X1625291Y1053173D01*
X1625376Y1053109D01*
X1625473Y1053023D01*
X1625580Y1052949D01*
X1625804Y1052788D01*
Y1057504D01*
X1626938D01*
Y1051152D01*
D02*
G37*
G36*
X1622639Y1050104D02*
X1622799Y1050093D01*
X1622981Y1050083D01*
X1623184Y1050072D01*
X1623398Y1050051D01*
X1623623Y1050029D01*
X1624072Y1049965D01*
X1624521Y1049880D01*
X1624735Y1049826D01*
X1624938Y1049762D01*
X1624949D01*
X1624981Y1049751D01*
X1625034Y1049730D01*
X1625109Y1049698D01*
X1625195Y1049666D01*
X1625291Y1049612D01*
X1625408Y1049569D01*
X1625526Y1049505D01*
X1625783Y1049355D01*
X1626050Y1049184D01*
X1626307Y1048970D01*
X1626435Y1048853D01*
X1626542Y1048725D01*
X1626553Y1048714D01*
X1626563Y1048692D01*
X1626595Y1048650D01*
X1626628Y1048596D01*
X1626670Y1048532D01*
X1626713Y1048457D01*
X1626767Y1048361D01*
X1626820Y1048254D01*
X1626873Y1048126D01*
X1626927Y1047997D01*
X1626970Y1047858D01*
X1627012Y1047698D01*
X1627077Y1047356D01*
X1627087Y1047174D01*
X1627098Y1046982D01*
Y1046917D01*
X1627087Y1046853D01*
Y1046757D01*
X1627066Y1046639D01*
X1627045Y1046500D01*
X1627012Y1046351D01*
X1626970Y1046190D01*
X1626927Y1046019D01*
X1626863Y1045837D01*
X1626777Y1045656D01*
X1626681Y1045474D01*
X1626574Y1045292D01*
X1626435Y1045121D01*
X1626285Y1044960D01*
X1626114Y1044800D01*
X1626104Y1044789D01*
X1626061Y1044757D01*
X1625986Y1044715D01*
X1625890Y1044650D01*
X1625751Y1044586D01*
X1625590Y1044501D01*
X1625398Y1044415D01*
X1625173Y1044330D01*
X1624917Y1044244D01*
X1624639Y1044158D01*
X1624318Y1044073D01*
X1623965Y1044009D01*
X1623580Y1043945D01*
X1623152Y1043902D01*
X1622703Y1043870D01*
X1622211Y1043859D01*
X1622190D01*
X1622136D01*
X1622051D01*
X1621933Y1043870D01*
X1621783D01*
X1621623Y1043880D01*
X1621431Y1043891D01*
X1621227Y1043902D01*
X1621013Y1043923D01*
X1620800Y1043945D01*
X1620340Y1044009D01*
X1619891Y1044084D01*
X1619677Y1044137D01*
X1619474Y1044201D01*
X1619463D01*
X1619431Y1044223D01*
X1619377Y1044233D01*
X1619303Y1044266D01*
X1619217Y1044308D01*
X1619121Y1044351D01*
X1619003Y1044405D01*
X1618885Y1044469D01*
X1618629Y1044608D01*
X1618362Y1044789D01*
X1618105Y1044993D01*
X1617987Y1045110D01*
X1617880Y1045238D01*
X1617870Y1045249D01*
X1617859Y1045271D01*
X1617827Y1045313D01*
X1617795Y1045367D01*
X1617752Y1045431D01*
X1617699Y1045517D01*
X1617645Y1045613D01*
X1617592Y1045720D01*
X1617549Y1045837D01*
X1617495Y1045966D01*
X1617442Y1046115D01*
X1617399Y1046265D01*
X1617335Y1046607D01*
X1617324Y1046789D01*
X1617314Y1046982D01*
Y1047110D01*
X1617324Y1047174D01*
X1617335Y1047260D01*
X1617356Y1047441D01*
X1617388Y1047655D01*
X1617453Y1047880D01*
X1617527Y1048115D01*
X1617634Y1048340D01*
Y1048350D01*
X1617645Y1048361D01*
X1617666Y1048393D01*
X1617688Y1048436D01*
X1617763Y1048543D01*
X1617859Y1048682D01*
X1617987Y1048831D01*
X1618148Y1048992D01*
X1618329Y1049152D01*
X1618533Y1049302D01*
X1618543D01*
X1618554Y1049323D01*
X1618586Y1049334D01*
X1618640Y1049366D01*
X1618693Y1049398D01*
X1618757Y1049430D01*
X1618843Y1049473D01*
X1618928Y1049516D01*
X1619131Y1049612D01*
X1619377Y1049708D01*
X1619655Y1049805D01*
X1619955Y1049890D01*
X1619966D01*
X1619998Y1049901D01*
X1620040Y1049912D01*
X1620105Y1049922D01*
X1620190Y1049944D01*
X1620297Y1049965D01*
X1620415Y1049986D01*
X1620554Y1050008D01*
X1620703Y1050018D01*
X1620874Y1050040D01*
X1621056Y1050061D01*
X1621259Y1050083D01*
X1621473Y1050093D01*
X1621709Y1050104D01*
X1621954Y1050115D01*
X1622211D01*
X1622233D01*
X1622286D01*
X1622372D01*
X1622489D01*
X1622639Y1050104D01*
D02*
G37*
G36*
X1626938Y1036245D02*
X1626916D01*
X1626863D01*
X1626788D01*
X1626681Y1036256D01*
X1626553Y1036267D01*
X1626414Y1036288D01*
X1626275Y1036320D01*
X1626125Y1036374D01*
X1626114D01*
X1626093Y1036384D01*
X1626061Y1036395D01*
X1626018Y1036416D01*
X1625954Y1036449D01*
X1625890Y1036481D01*
X1625719Y1036566D01*
X1625526Y1036673D01*
X1625312Y1036812D01*
X1625088Y1036973D01*
X1624852Y1037154D01*
X1624842Y1037165D01*
X1624820Y1037176D01*
X1624788Y1037208D01*
X1624745Y1037251D01*
X1624681Y1037315D01*
X1624606Y1037379D01*
X1624532Y1037454D01*
X1624435Y1037550D01*
X1624328Y1037657D01*
X1624221Y1037764D01*
X1624104Y1037892D01*
X1623976Y1038031D01*
X1623837Y1038181D01*
X1623698Y1038352D01*
X1623548Y1038523D01*
X1623398Y1038705D01*
X1623387Y1038726D01*
X1623345Y1038769D01*
X1623270Y1038855D01*
X1623184Y1038961D01*
X1623077Y1039079D01*
X1622949Y1039229D01*
X1622810Y1039389D01*
X1622660Y1039560D01*
X1622339Y1039913D01*
X1621997Y1040255D01*
X1621826Y1040416D01*
X1621666Y1040576D01*
X1621516Y1040704D01*
X1621366Y1040822D01*
X1621356Y1040833D01*
X1621334Y1040844D01*
X1621292Y1040876D01*
X1621238Y1040908D01*
X1621174Y1040950D01*
X1621099Y1040993D01*
X1620907Y1041100D01*
X1620693Y1041207D01*
X1620457Y1041293D01*
X1620201Y1041357D01*
X1620083Y1041367D01*
X1619955Y1041378D01*
X1619944D01*
X1619923D01*
X1619891D01*
X1619837Y1041367D01*
X1619773D01*
X1619709Y1041357D01*
X1619538Y1041314D01*
X1619356Y1041250D01*
X1619153Y1041164D01*
X1618960Y1041036D01*
X1618864Y1040950D01*
X1618768Y1040865D01*
X1618757Y1040854D01*
X1618746Y1040844D01*
X1618725Y1040811D01*
X1618693Y1040779D01*
X1618618Y1040662D01*
X1618522Y1040512D01*
X1618436Y1040330D01*
X1618362Y1040106D01*
X1618308Y1039849D01*
X1618287Y1039710D01*
Y1039475D01*
X1618297Y1039421D01*
Y1039346D01*
X1618308Y1039261D01*
X1618351Y1039069D01*
X1618415Y1038855D01*
X1618501Y1038619D01*
X1618629Y1038395D01*
X1618714Y1038288D01*
X1618800Y1038192D01*
X1618811Y1038181D01*
X1618821Y1038170D01*
X1618853Y1038149D01*
X1618896Y1038117D01*
X1618950Y1038074D01*
X1619014Y1038031D01*
X1619089Y1037988D01*
X1619164Y1037935D01*
X1619367Y1037839D01*
X1619613Y1037764D01*
X1619891Y1037700D01*
X1620051Y1037689D01*
X1620211Y1037678D01*
X1620083Y1036470D01*
X1620072D01*
X1620019Y1036481D01*
X1619955Y1036491D01*
X1619859Y1036502D01*
X1619752Y1036523D01*
X1619623Y1036555D01*
X1619474Y1036588D01*
X1619324Y1036630D01*
X1619153Y1036684D01*
X1618992Y1036748D01*
X1618821Y1036823D01*
X1618650Y1036908D01*
X1618479Y1037015D01*
X1618319Y1037122D01*
X1618169Y1037261D01*
X1618030Y1037400D01*
X1618019Y1037411D01*
X1617998Y1037443D01*
X1617966Y1037486D01*
X1617912Y1037550D01*
X1617859Y1037635D01*
X1617805Y1037732D01*
X1617741Y1037849D01*
X1617666Y1037978D01*
X1617602Y1038127D01*
X1617538Y1038288D01*
X1617485Y1038470D01*
X1617421Y1038662D01*
X1617378Y1038876D01*
X1617346Y1039100D01*
X1617324Y1039336D01*
X1617314Y1039582D01*
Y1039721D01*
X1617324Y1039817D01*
X1617335Y1039924D01*
X1617356Y1040063D01*
X1617378Y1040213D01*
X1617410Y1040373D01*
X1617453Y1040555D01*
X1617506Y1040726D01*
X1617560Y1040908D01*
X1617634Y1041089D01*
X1617731Y1041271D01*
X1617827Y1041453D01*
X1617944Y1041613D01*
X1618083Y1041774D01*
X1618094Y1041785D01*
X1618116Y1041806D01*
X1618158Y1041849D01*
X1618223Y1041902D01*
X1618297Y1041966D01*
X1618383Y1042030D01*
X1618490Y1042105D01*
X1618607Y1042180D01*
X1618736Y1042255D01*
X1618885Y1042330D01*
X1619035Y1042394D01*
X1619206Y1042458D01*
X1619388Y1042512D01*
X1619570Y1042554D01*
X1619773Y1042576D01*
X1619976Y1042587D01*
X1619987D01*
X1619998D01*
X1620030D01*
X1620072D01*
X1620190Y1042576D01*
X1620329Y1042554D01*
X1620511Y1042522D01*
X1620693Y1042480D01*
X1620896Y1042426D01*
X1621110Y1042341D01*
X1621120D01*
X1621131Y1042330D01*
X1621163Y1042319D01*
X1621206Y1042298D01*
X1621313Y1042234D01*
X1621463Y1042159D01*
X1621644Y1042052D01*
X1621837Y1041913D01*
X1622061Y1041752D01*
X1622286Y1041560D01*
X1622297Y1041549D01*
X1622318Y1041539D01*
X1622350Y1041507D01*
X1622393Y1041453D01*
X1622457Y1041400D01*
X1622532Y1041325D01*
X1622628Y1041228D01*
X1622724Y1041132D01*
X1622842Y1041015D01*
X1622960Y1040876D01*
X1623099Y1040726D01*
X1623248Y1040565D01*
X1623409Y1040384D01*
X1623591Y1040191D01*
X1623772Y1039977D01*
X1623965Y1039742D01*
X1623976Y1039731D01*
X1624008Y1039699D01*
X1624050Y1039646D01*
X1624104Y1039571D01*
X1624179Y1039485D01*
X1624264Y1039389D01*
X1624446Y1039175D01*
X1624649Y1038940D01*
X1624852Y1038716D01*
X1624938Y1038619D01*
X1625023Y1038523D01*
X1625109Y1038438D01*
X1625173Y1038373D01*
X1625184Y1038363D01*
X1625227Y1038320D01*
X1625291Y1038267D01*
X1625376Y1038202D01*
X1625473Y1038117D01*
X1625580Y1038042D01*
X1625804Y1037881D01*
Y1042597D01*
X1626938D01*
Y1036245D01*
D02*
G37*
G36*
X1627055Y962386D02*
X1627066D01*
X1627109Y962365D01*
X1627162Y962343D01*
X1627237Y962311D01*
X1627333Y962279D01*
X1627440Y962236D01*
X1627675Y962140D01*
X1627932Y962033D01*
X1628199Y961926D01*
X1628317Y961873D01*
X1628435Y961819D01*
X1628542Y961766D01*
X1628627Y961723D01*
X1628638D01*
X1628649Y961712D01*
X1628681Y961691D01*
X1628723Y961670D01*
X1628820Y961606D01*
X1628948Y961509D01*
X1629087Y961402D01*
X1629226Y961285D01*
X1629354Y961146D01*
X1629472Y960996D01*
X1629483Y960975D01*
X1629515Y960921D01*
X1629557Y960835D01*
X1629611Y960729D01*
X1629664Y960579D01*
X1629707Y960418D01*
X1629739Y960237D01*
X1629750Y960033D01*
Y959969D01*
X1629739Y959905D01*
X1629729Y959809D01*
X1629718Y959702D01*
X1629686Y959574D01*
X1629654Y959424D01*
X1629600Y959274D01*
X1628510Y959146D01*
Y959167D01*
X1628531Y959210D01*
X1628542Y959285D01*
X1628563Y959370D01*
X1628584Y959477D01*
X1628595Y959584D01*
X1628616Y959809D01*
Y959873D01*
X1628606Y959948D01*
X1628595Y960033D01*
X1628584Y960141D01*
X1628552Y960247D01*
X1628520Y960344D01*
X1628477Y960440D01*
X1628467Y960451D01*
X1628456Y960483D01*
X1628424Y960525D01*
X1628381Y960579D01*
X1628328Y960632D01*
X1628274Y960707D01*
X1628114Y960825D01*
X1628103Y960835D01*
X1628071Y960846D01*
X1628018Y960878D01*
X1627932Y960910D01*
X1627814Y960964D01*
X1627665Y961028D01*
X1627579Y961060D01*
X1627472Y961103D01*
X1627365Y961146D01*
X1627237Y961188D01*
X1627216Y961199D01*
X1627162Y961210D01*
X1627077Y961253D01*
X1626948Y961295D01*
X1619987Y958654D01*
Y959905D01*
X1624008Y961359D01*
X1624018D01*
X1624040Y961370D01*
X1624082Y961392D01*
X1624136Y961402D01*
X1624211Y961434D01*
X1624296Y961456D01*
X1624382Y961488D01*
X1624489Y961531D01*
X1624735Y961606D01*
X1625002Y961691D01*
X1625302Y961777D01*
X1625612Y961862D01*
X1625601D01*
X1625580Y961873D01*
X1625537Y961883D01*
X1625473Y961905D01*
X1625408Y961916D01*
X1625323Y961948D01*
X1625227Y961969D01*
X1625120Y962001D01*
X1624884Y962076D01*
X1624617Y962161D01*
X1624339Y962258D01*
X1624050Y962354D01*
X1619987Y963851D01*
Y965027D01*
X1627055Y962386D01*
D02*
G37*
G36*
X1623537Y957874D02*
X1623655D01*
X1623804Y957852D01*
X1623976Y957841D01*
X1624168Y957809D01*
X1624371Y957777D01*
X1624596Y957724D01*
X1624820Y957670D01*
X1625045Y957595D01*
X1625269Y957510D01*
X1625494Y957414D01*
X1625719Y957285D01*
X1625922Y957157D01*
X1626114Y956997D01*
X1626125Y956986D01*
X1626157Y956954D01*
X1626200Y956911D01*
X1626264Y956836D01*
X1626339Y956751D01*
X1626424Y956654D01*
X1626510Y956537D01*
X1626595Y956398D01*
X1626692Y956248D01*
X1626777Y956088D01*
X1626863Y955917D01*
X1626938Y955724D01*
X1627002Y955532D01*
X1627045Y955328D01*
X1627077Y955104D01*
X1627087Y954879D01*
Y954826D01*
X1627077Y954762D01*
X1627066Y954676D01*
X1627055Y954569D01*
X1627034Y954452D01*
X1627002Y954323D01*
X1626959Y954174D01*
X1626906Y954024D01*
X1626841Y953874D01*
X1626756Y953714D01*
X1626649Y953553D01*
X1626531Y953393D01*
X1626403Y953232D01*
X1626243Y953093D01*
X1626061Y952954D01*
X1626938D01*
Y951864D01*
X1617346D01*
Y953040D01*
X1620778D01*
X1620768Y953051D01*
X1620735Y953072D01*
X1620693Y953115D01*
X1620629Y953179D01*
X1620564Y953243D01*
X1620479Y953339D01*
X1620393Y953436D01*
X1620308Y953553D01*
X1620222Y953682D01*
X1620137Y953831D01*
X1620051Y953981D01*
X1619987Y954152D01*
X1619923Y954334D01*
X1619880Y954516D01*
X1619848Y954719D01*
X1619837Y954933D01*
Y955040D01*
X1619848Y955104D01*
Y955168D01*
X1619869Y955328D01*
X1619901Y955510D01*
X1619955Y955713D01*
X1620019Y955927D01*
X1620105Y956141D01*
Y956152D01*
X1620115Y956162D01*
X1620126Y956195D01*
X1620147Y956237D01*
X1620211Y956344D01*
X1620286Y956473D01*
X1620393Y956622D01*
X1620522Y956783D01*
X1620661Y956933D01*
X1620832Y957082D01*
X1620853Y957104D01*
X1620917Y957146D01*
X1621013Y957210D01*
X1621142Y957296D01*
X1621302Y957392D01*
X1621495Y957488D01*
X1621719Y957585D01*
X1621954Y957670D01*
X1621965D01*
X1621987Y957681D01*
X1622019Y957692D01*
X1622072Y957702D01*
X1622126Y957724D01*
X1622200Y957735D01*
X1622372Y957777D01*
X1622585Y957820D01*
X1622821Y957852D01*
X1623088Y957874D01*
X1623366Y957884D01*
X1623387D01*
X1623441D01*
X1623537Y957874D01*
D02*
G37*
G36*
X1626938Y945191D02*
X1626050D01*
X1626061Y945180D01*
X1626093Y945159D01*
X1626146Y945127D01*
X1626210Y945063D01*
X1626285Y944999D01*
X1626382Y944913D01*
X1626467Y944817D01*
X1626563Y944699D01*
X1626670Y944571D01*
X1626756Y944421D01*
X1626841Y944261D01*
X1626927Y944090D01*
X1626991Y943897D01*
X1627045Y943694D01*
X1627077Y943480D01*
X1627087Y943245D01*
Y943159D01*
X1627077Y943106D01*
Y943031D01*
X1627066Y942945D01*
X1627045Y942849D01*
X1627034Y942742D01*
X1626980Y942507D01*
X1626895Y942250D01*
X1626788Y941983D01*
X1626638Y941716D01*
X1626628Y941705D01*
X1626617Y941684D01*
X1626585Y941652D01*
X1626553Y941598D01*
X1626446Y941480D01*
X1626307Y941320D01*
X1626125Y941149D01*
X1625911Y940967D01*
X1625654Y940796D01*
X1625366Y940636D01*
X1625355D01*
X1625323Y940625D01*
X1625280Y940604D01*
X1625216Y940582D01*
X1625141Y940550D01*
X1625045Y940518D01*
X1624938Y940486D01*
X1624820Y940454D01*
X1624681Y940411D01*
X1624542Y940379D01*
X1624382Y940347D01*
X1624221Y940326D01*
X1623858Y940283D01*
X1623473Y940261D01*
X1623462D01*
X1623430D01*
X1623366D01*
X1623302Y940272D01*
X1623206D01*
X1623099Y940283D01*
X1622981Y940294D01*
X1622853Y940304D01*
X1622553Y940347D01*
X1622243Y940411D01*
X1621912Y940486D01*
X1621591Y940604D01*
X1621580D01*
X1621548Y940625D01*
X1621505Y940636D01*
X1621452Y940668D01*
X1621377Y940700D01*
X1621302Y940753D01*
X1621110Y940860D01*
X1620907Y941010D01*
X1620693Y941181D01*
X1620479Y941395D01*
X1620297Y941641D01*
X1620286Y941652D01*
X1620276Y941673D01*
X1620254Y941716D01*
X1620222Y941758D01*
X1620190Y941833D01*
X1620147Y941908D01*
X1620105Y941994D01*
X1620062Y942101D01*
X1619987Y942325D01*
X1619912Y942593D01*
X1619859Y942881D01*
X1619837Y943031D01*
Y943298D01*
X1619848Y943416D01*
X1619869Y943566D01*
X1619901Y943737D01*
X1619955Y943919D01*
X1620019Y944111D01*
X1620105Y944304D01*
Y944314D01*
X1620115Y944325D01*
X1620147Y944389D01*
X1620211Y944475D01*
X1620286Y944592D01*
X1620393Y944721D01*
X1620511Y944849D01*
X1620650Y944977D01*
X1620800Y945106D01*
X1617346D01*
Y946282D01*
X1626938D01*
Y945191D01*
D02*
G37*
G36*
X1623762Y939246D02*
Y934059D01*
X1623772D01*
X1623815D01*
X1623869Y934070D01*
X1623954Y934081D01*
X1624050Y934091D01*
X1624157Y934113D01*
X1624275Y934134D01*
X1624414Y934166D01*
X1624692Y934241D01*
X1624981Y934359D01*
X1625130Y934423D01*
X1625269Y934508D01*
X1625398Y934594D01*
X1625515Y934701D01*
X1625526Y934712D01*
X1625537Y934733D01*
X1625569Y934765D01*
X1625612Y934808D01*
X1625654Y934861D01*
X1625708Y934936D01*
X1625761Y935011D01*
X1625815Y935107D01*
X1625922Y935310D01*
X1626018Y935567D01*
X1626093Y935845D01*
X1626104Y935995D01*
X1626114Y936155D01*
Y936219D01*
X1626104Y936262D01*
X1626093Y936390D01*
X1626071Y936540D01*
X1626029Y936711D01*
X1625975Y936904D01*
X1625890Y937085D01*
X1625783Y937267D01*
Y937278D01*
X1625761Y937289D01*
X1625719Y937342D01*
X1625633Y937428D01*
X1625515Y937535D01*
X1625366Y937652D01*
X1625173Y937770D01*
X1624949Y937887D01*
X1624681Y937994D01*
X1624842Y939213D01*
X1624852D01*
X1624884Y939203D01*
X1624949Y939181D01*
X1625013Y939160D01*
X1625109Y939128D01*
X1625216Y939085D01*
X1625323Y939032D01*
X1625451Y938968D01*
X1625719Y938829D01*
X1625997Y938636D01*
X1626125Y938529D01*
X1626264Y938411D01*
X1626382Y938283D01*
X1626499Y938144D01*
X1626510Y938133D01*
X1626521Y938112D01*
X1626553Y938069D01*
X1626595Y938005D01*
X1626638Y937930D01*
X1626681Y937834D01*
X1626734Y937727D01*
X1626788Y937599D01*
X1626852Y937470D01*
X1626906Y937321D01*
X1626948Y937150D01*
X1626991Y936979D01*
X1627034Y936786D01*
X1627066Y936583D01*
X1627077Y936380D01*
X1627087Y936155D01*
Y936091D01*
X1627077Y936005D01*
Y935909D01*
X1627055Y935781D01*
X1627034Y935631D01*
X1627012Y935460D01*
X1626970Y935289D01*
X1626916Y935097D01*
X1626863Y934893D01*
X1626788Y934701D01*
X1626692Y934498D01*
X1626585Y934295D01*
X1626467Y934102D01*
X1626317Y933910D01*
X1626157Y933738D01*
X1626146Y933728D01*
X1626114Y933696D01*
X1626061Y933653D01*
X1625986Y933599D01*
X1625890Y933535D01*
X1625772Y933460D01*
X1625633Y933375D01*
X1625473Y933300D01*
X1625302Y933214D01*
X1625098Y933129D01*
X1624884Y933054D01*
X1624649Y932990D01*
X1624393Y932936D01*
X1624125Y932894D01*
X1623837Y932862D01*
X1623526Y932851D01*
X1623505D01*
X1623452D01*
X1623355Y932862D01*
X1623238D01*
X1623088Y932883D01*
X1622917Y932894D01*
X1622735Y932926D01*
X1622532Y932969D01*
X1622318Y933011D01*
X1622094Y933075D01*
X1621869Y933140D01*
X1621644Y933225D01*
X1621420Y933332D01*
X1621206Y933450D01*
X1621003Y933589D01*
X1620810Y933749D01*
X1620800Y933760D01*
X1620768Y933792D01*
X1620725Y933845D01*
X1620661Y933910D01*
X1620586Y934006D01*
X1620500Y934113D01*
X1620415Y934241D01*
X1620318Y934380D01*
X1620233Y934540D01*
X1620147Y934712D01*
X1620062Y934904D01*
X1619987Y935118D01*
X1619923Y935342D01*
X1619880Y935578D01*
X1619848Y935824D01*
X1619837Y936091D01*
Y936155D01*
X1619848Y936230D01*
Y936326D01*
X1619869Y936444D01*
X1619891Y936583D01*
X1619912Y936733D01*
X1619955Y936893D01*
X1620008Y937075D01*
X1620072Y937257D01*
X1620147Y937449D01*
X1620244Y937642D01*
X1620350Y937834D01*
X1620479Y938016D01*
X1620618Y938198D01*
X1620789Y938369D01*
X1620800Y938379D01*
X1620832Y938411D01*
X1620885Y938454D01*
X1620960Y938508D01*
X1621056Y938572D01*
X1621185Y938647D01*
X1621324Y938732D01*
X1621473Y938818D01*
X1621655Y938893D01*
X1621858Y938978D01*
X1622072Y939053D01*
X1622318Y939117D01*
X1622575Y939171D01*
X1622842Y939213D01*
X1623141Y939246D01*
X1623452Y939256D01*
X1623473D01*
X1623526D01*
X1623623D01*
X1623762Y939246D01*
D02*
G37*
G36*
X1621302Y932124D02*
X1621292Y932102D01*
X1621259Y932049D01*
X1621227Y931963D01*
X1621174Y931856D01*
X1621131Y931728D01*
X1621099Y931578D01*
X1621067Y931429D01*
X1621056Y931268D01*
Y931204D01*
X1621067Y931129D01*
X1621088Y931033D01*
X1621110Y930926D01*
X1621152Y930808D01*
X1621217Y930691D01*
X1621292Y930573D01*
X1621302Y930563D01*
X1621334Y930520D01*
X1621388Y930466D01*
X1621463Y930402D01*
X1621548Y930327D01*
X1621666Y930263D01*
X1621783Y930188D01*
X1621933Y930135D01*
X1621944D01*
X1621965Y930124D01*
X1621997Y930113D01*
X1622040Y930103D01*
X1622104Y930092D01*
X1622168Y930071D01*
X1622339Y930039D01*
X1622543Y930006D01*
X1622778Y929974D01*
X1623035Y929953D01*
X1623313Y929942D01*
X1626938D01*
Y928766D01*
X1619987D01*
Y929825D01*
X1621046D01*
X1621024Y929846D01*
X1620981Y929867D01*
X1620939Y929889D01*
X1620810Y929964D01*
X1620661Y930071D01*
X1620490Y930178D01*
X1620329Y930306D01*
X1620190Y930434D01*
X1620137Y930498D01*
X1620083Y930563D01*
X1620072Y930584D01*
X1620040Y930627D01*
X1620008Y930691D01*
X1619955Y930787D01*
X1619912Y930905D01*
X1619880Y931033D01*
X1619848Y931172D01*
X1619837Y931322D01*
Y931386D01*
X1619848Y931429D01*
X1619859Y931546D01*
X1619880Y931696D01*
X1619933Y931878D01*
X1619998Y932092D01*
X1620083Y932306D01*
X1620211Y932541D01*
X1621302Y932124D01*
D02*
G37*
G36*
X1623762Y927333D02*
Y922147D01*
X1623772D01*
X1623815D01*
X1623869Y922158D01*
X1623954Y922168D01*
X1624050Y922179D01*
X1624157Y922200D01*
X1624275Y922222D01*
X1624414Y922254D01*
X1624692Y922329D01*
X1624981Y922446D01*
X1625130Y922510D01*
X1625269Y922596D01*
X1625398Y922682D01*
X1625515Y922788D01*
X1625526Y922799D01*
X1625537Y922821D01*
X1625569Y922853D01*
X1625612Y922895D01*
X1625654Y922949D01*
X1625708Y923024D01*
X1625761Y923099D01*
X1625815Y923195D01*
X1625922Y923398D01*
X1626018Y923655D01*
X1626093Y923933D01*
X1626104Y924082D01*
X1626114Y924243D01*
Y924307D01*
X1626104Y924350D01*
X1626093Y924478D01*
X1626071Y924628D01*
X1626029Y924799D01*
X1625975Y924991D01*
X1625890Y925173D01*
X1625783Y925355D01*
Y925366D01*
X1625761Y925376D01*
X1625719Y925430D01*
X1625633Y925515D01*
X1625515Y925622D01*
X1625366Y925740D01*
X1625173Y925857D01*
X1624949Y925975D01*
X1624681Y926082D01*
X1624842Y927301D01*
X1624852D01*
X1624884Y927290D01*
X1624949Y927269D01*
X1625013Y927248D01*
X1625109Y927215D01*
X1625216Y927173D01*
X1625323Y927119D01*
X1625451Y927055D01*
X1625719Y926916D01*
X1625997Y926724D01*
X1626125Y926617D01*
X1626264Y926499D01*
X1626382Y926371D01*
X1626499Y926232D01*
X1626510Y926221D01*
X1626521Y926200D01*
X1626553Y926157D01*
X1626595Y926093D01*
X1626638Y926018D01*
X1626681Y925922D01*
X1626734Y925815D01*
X1626788Y925686D01*
X1626852Y925558D01*
X1626906Y925408D01*
X1626948Y925237D01*
X1626991Y925066D01*
X1627034Y924874D01*
X1627066Y924670D01*
X1627077Y924467D01*
X1627087Y924243D01*
Y924179D01*
X1627077Y924093D01*
Y923997D01*
X1627055Y923868D01*
X1627034Y923719D01*
X1627012Y923548D01*
X1626970Y923377D01*
X1626916Y923184D01*
X1626863Y922981D01*
X1626788Y922788D01*
X1626692Y922585D01*
X1626585Y922382D01*
X1626467Y922190D01*
X1626317Y921997D01*
X1626157Y921826D01*
X1626146Y921815D01*
X1626114Y921783D01*
X1626061Y921740D01*
X1625986Y921687D01*
X1625890Y921623D01*
X1625772Y921548D01*
X1625633Y921462D01*
X1625473Y921388D01*
X1625302Y921302D01*
X1625098Y921217D01*
X1624884Y921142D01*
X1624649Y921077D01*
X1624393Y921024D01*
X1624125Y920981D01*
X1623837Y920949D01*
X1623526Y920938D01*
X1623505D01*
X1623452D01*
X1623355Y920949D01*
X1623238D01*
X1623088Y920971D01*
X1622917Y920981D01*
X1622735Y921013D01*
X1622532Y921056D01*
X1622318Y921099D01*
X1622094Y921163D01*
X1621869Y921227D01*
X1621644Y921313D01*
X1621420Y921420D01*
X1621206Y921537D01*
X1621003Y921676D01*
X1620810Y921837D01*
X1620800Y921847D01*
X1620768Y921880D01*
X1620725Y921933D01*
X1620661Y921997D01*
X1620586Y922093D01*
X1620500Y922200D01*
X1620415Y922329D01*
X1620318Y922468D01*
X1620233Y922628D01*
X1620147Y922799D01*
X1620062Y922992D01*
X1619987Y923205D01*
X1619923Y923430D01*
X1619880Y923665D01*
X1619848Y923911D01*
X1619837Y924179D01*
Y924243D01*
X1619848Y924318D01*
Y924414D01*
X1619869Y924531D01*
X1619891Y924670D01*
X1619912Y924820D01*
X1619955Y924981D01*
X1620008Y925162D01*
X1620072Y925344D01*
X1620147Y925537D01*
X1620244Y925729D01*
X1620350Y925922D01*
X1620479Y926103D01*
X1620618Y926285D01*
X1620789Y926456D01*
X1620800Y926467D01*
X1620832Y926499D01*
X1620885Y926542D01*
X1620960Y926595D01*
X1621056Y926659D01*
X1621185Y926734D01*
X1621324Y926820D01*
X1621473Y926905D01*
X1621655Y926980D01*
X1621858Y927066D01*
X1622072Y927141D01*
X1622318Y927205D01*
X1622575Y927258D01*
X1622842Y927301D01*
X1623141Y927333D01*
X1623452Y927344D01*
X1623473D01*
X1623526D01*
X1623623D01*
X1623762Y927333D01*
D02*
G37*
G36*
X1626938Y918158D02*
Y916939D01*
X1622778Y915827D01*
X1621591Y915560D01*
X1626938Y914148D01*
Y912908D01*
X1619987Y910801D01*
Y912031D01*
X1624008Y913132D01*
X1625494Y913539D01*
X1625483D01*
X1625451Y913549D01*
X1625430D01*
X1625387Y913560D01*
X1625344Y913581D01*
X1625269Y913592D01*
X1625195Y913614D01*
X1625098Y913635D01*
X1624981Y913667D01*
X1624842Y913699D01*
X1624681Y913742D01*
X1624500Y913785D01*
X1624296Y913838D01*
X1624061Y913902D01*
X1619987Y915004D01*
Y916212D01*
X1624029Y917249D01*
X1625355Y917591D01*
X1624008Y917987D01*
X1619987Y919185D01*
Y920329D01*
X1626938Y918158D01*
D02*
G37*
G36*
X1623591Y910256D02*
X1623698D01*
X1623837Y910245D01*
X1623976Y910234D01*
X1624136Y910213D01*
X1624478Y910170D01*
X1624831Y910095D01*
X1625173Y909999D01*
X1625334Y909935D01*
X1625483Y909860D01*
X1625494D01*
X1625515Y909839D01*
X1625558Y909817D01*
X1625612Y909785D01*
X1625676Y909743D01*
X1625751Y909689D01*
X1625911Y909561D01*
X1626104Y909390D01*
X1626307Y909197D01*
X1626499Y908951D01*
X1626670Y908684D01*
Y908673D01*
X1626692Y908652D01*
X1626713Y908609D01*
X1626734Y908556D01*
X1626767Y908481D01*
X1626799Y908395D01*
X1626841Y908299D01*
X1626873Y908192D01*
X1626959Y907946D01*
X1627023Y907657D01*
X1627066Y907347D01*
X1627087Y907016D01*
Y906952D01*
X1627077Y906877D01*
Y906770D01*
X1627055Y906652D01*
X1627034Y906513D01*
X1627012Y906353D01*
X1626970Y906182D01*
X1626916Y905989D01*
X1626863Y905807D01*
X1626788Y905604D01*
X1626692Y905412D01*
X1626585Y905219D01*
X1626467Y905027D01*
X1626317Y904834D01*
X1626157Y904663D01*
X1626146Y904652D01*
X1626114Y904620D01*
X1626061Y904578D01*
X1625986Y904524D01*
X1625890Y904460D01*
X1625772Y904374D01*
X1625633Y904299D01*
X1625473Y904214D01*
X1625291Y904128D01*
X1625088Y904054D01*
X1624874Y903979D01*
X1624628Y903904D01*
X1624361Y903850D01*
X1624082Y903808D01*
X1623783Y903776D01*
X1623462Y903765D01*
X1623452D01*
X1623441D01*
X1623377D01*
X1623280Y903776D01*
X1623141Y903786D01*
X1622992Y903797D01*
X1622799Y903818D01*
X1622607Y903850D01*
X1622382Y903904D01*
X1622158Y903957D01*
X1621922Y904022D01*
X1621687Y904118D01*
X1621452Y904214D01*
X1621217Y904342D01*
X1621003Y904481D01*
X1620800Y904642D01*
X1620618Y904834D01*
X1620607Y904845D01*
X1620586Y904877D01*
X1620543Y904920D01*
X1620500Y904995D01*
X1620436Y905080D01*
X1620372Y905187D01*
X1620297Y905305D01*
X1620222Y905444D01*
X1620158Y905593D01*
X1620083Y905754D01*
X1620019Y905936D01*
X1619955Y906128D01*
X1619912Y906331D01*
X1619869Y906556D01*
X1619848Y906780D01*
X1619837Y907016D01*
Y907080D01*
X1619848Y907155D01*
Y907251D01*
X1619869Y907379D01*
X1619891Y907518D01*
X1619912Y907679D01*
X1619955Y907850D01*
X1620008Y908031D01*
X1620062Y908213D01*
X1620147Y908417D01*
X1620233Y908609D01*
X1620340Y908801D01*
X1620468Y908994D01*
X1620607Y909186D01*
X1620778Y909358D01*
X1620789Y909368D01*
X1620821Y909400D01*
X1620874Y909443D01*
X1620949Y909497D01*
X1621046Y909571D01*
X1621163Y909646D01*
X1621302Y909732D01*
X1621452Y909817D01*
X1621634Y909892D01*
X1621826Y909978D01*
X1622040Y910053D01*
X1622265Y910127D01*
X1622511Y910181D01*
X1622778Y910224D01*
X1623067Y910256D01*
X1623366Y910266D01*
X1623377D01*
X1623430D01*
X1623494D01*
X1623591Y910256D01*
D02*
G37*
G36*
X1623601Y902770D02*
X1623687D01*
X1623804Y902760D01*
X1623922Y902749D01*
X1624050Y902738D01*
X1624350Y902685D01*
X1624671Y902621D01*
X1625002Y902524D01*
X1625334Y902396D01*
X1625344D01*
X1625366Y902375D01*
X1625419Y902353D01*
X1625473Y902321D01*
X1625547Y902289D01*
X1625622Y902236D01*
X1625815Y902107D01*
X1626029Y901958D01*
X1626243Y901765D01*
X1626456Y901530D01*
X1626638Y901273D01*
Y901263D01*
X1626660Y901241D01*
X1626681Y901199D01*
X1626713Y901145D01*
X1626745Y901081D01*
X1626777Y901006D01*
X1626820Y900910D01*
X1626863Y900814D01*
X1626948Y900578D01*
X1627012Y900322D01*
X1627066Y900044D01*
X1627087Y899744D01*
Y899648D01*
X1627077Y899530D01*
X1627055Y899391D01*
X1627023Y899231D01*
X1626980Y899049D01*
X1626927Y898867D01*
X1626841Y898686D01*
X1626831Y898664D01*
X1626799Y898611D01*
X1626745Y898525D01*
X1626670Y898418D01*
X1626574Y898300D01*
X1626467Y898172D01*
X1626349Y898044D01*
X1626210Y897926D01*
X1629600D01*
Y896750D01*
X1619987D01*
Y897819D01*
X1620885D01*
X1620874Y897841D01*
X1620810Y897884D01*
X1620714Y897958D01*
X1620596Y898065D01*
X1620468Y898194D01*
X1620340Y898333D01*
X1620211Y898493D01*
X1620105Y898664D01*
Y898675D01*
X1620094Y898686D01*
X1620062Y898750D01*
X1620019Y898857D01*
X1619966Y898996D01*
X1619923Y899156D01*
X1619880Y899359D01*
X1619848Y899584D01*
X1619837Y899830D01*
Y899915D01*
X1619848Y899979D01*
Y900054D01*
X1619859Y900151D01*
X1619880Y900247D01*
X1619891Y900364D01*
X1619944Y900600D01*
X1620030Y900867D01*
X1620147Y901134D01*
X1620211Y901273D01*
X1620297Y901402D01*
Y901412D01*
X1620318Y901434D01*
X1620340Y901466D01*
X1620383Y901519D01*
X1620490Y901637D01*
X1620629Y901787D01*
X1620810Y901958D01*
X1621035Y902129D01*
X1621292Y902289D01*
X1621591Y902428D01*
X1621602D01*
X1621634Y902439D01*
X1621676Y902460D01*
X1621741Y902482D01*
X1621815Y902514D01*
X1621912Y902535D01*
X1622008Y902567D01*
X1622136Y902610D01*
X1622265Y902642D01*
X1622404Y902674D01*
X1622714Y902728D01*
X1623056Y902770D01*
X1623419Y902781D01*
X1623430D01*
X1623462D01*
X1623526D01*
X1623601Y902770D01*
D02*
G37*
%LPC*%
G36*
X1623676Y984557D02*
X1623663D01*
X1623639D01*
X1623615Y984545D01*
X1623566D01*
X1623445Y984521D01*
X1623287Y984484D01*
X1623129Y984436D01*
X1622959Y984363D01*
X1622814Y984290D01*
X1622680Y984181D01*
X1622668Y984169D01*
X1622631Y984120D01*
X1622583Y984060D01*
X1622522Y983962D01*
X1622473Y983853D01*
X1622425Y983719D01*
X1622388Y983562D01*
X1622376Y983380D01*
Y983355D01*
X1622388Y983282D01*
X1622401Y983185D01*
X1622437Y983064D01*
X1622486Y982918D01*
X1622571Y982760D01*
X1622680Y982615D01*
X1622838Y982481D01*
X1622850Y982469D01*
X1622886Y982445D01*
X1622959Y982408D01*
X1623044Y982360D01*
X1623166Y982323D01*
X1623311Y982275D01*
X1623481Y982226D01*
X1623676Y982202D01*
Y984557D01*
D02*
G37*
G36*
X1623890Y1093658D02*
X1623879D01*
X1623847D01*
X1623794D01*
X1623730Y1093648D01*
X1623644D01*
X1623548Y1093626D01*
X1623441Y1093615D01*
X1623323Y1093594D01*
X1623067Y1093530D01*
X1622810Y1093434D01*
X1622682Y1093370D01*
X1622553Y1093305D01*
X1622436Y1093220D01*
X1622329Y1093124D01*
X1622318Y1093113D01*
X1622307Y1093102D01*
X1622275Y1093070D01*
X1622243Y1093027D01*
X1622190Y1092974D01*
X1622147Y1092920D01*
X1622040Y1092760D01*
X1621933Y1092568D01*
X1621837Y1092343D01*
X1621773Y1092076D01*
X1621762Y1091937D01*
X1621751Y1091787D01*
Y1091712D01*
X1621762Y1091659D01*
X1621773Y1091584D01*
X1621783Y1091509D01*
X1621826Y1091327D01*
X1621890Y1091113D01*
X1621997Y1090889D01*
X1622061Y1090771D01*
X1622136Y1090653D01*
X1622222Y1090546D01*
X1622329Y1090440D01*
X1622339Y1090429D01*
X1622350Y1090418D01*
X1622382Y1090386D01*
X1622436Y1090354D01*
X1622489Y1090311D01*
X1622553Y1090268D01*
X1622639Y1090215D01*
X1622724Y1090162D01*
X1622831Y1090108D01*
X1622938Y1090055D01*
X1623195Y1089969D01*
X1623494Y1089905D01*
X1623655Y1089894D01*
X1623826Y1089883D01*
X1623837D01*
X1623858D01*
X1623890D01*
X1623933D01*
X1624050Y1089894D01*
X1624200Y1089916D01*
X1624382Y1089948D01*
X1624574Y1089990D01*
X1624778Y1090055D01*
X1624991Y1090140D01*
X1625002D01*
X1625013Y1090151D01*
X1625088Y1090183D01*
X1625184Y1090247D01*
X1625302Y1090322D01*
X1625441Y1090429D01*
X1625580Y1090546D01*
X1625719Y1090696D01*
X1625836Y1090857D01*
Y1090867D01*
X1625847Y1090878D01*
X1625879Y1090942D01*
X1625932Y1091028D01*
X1625975Y1091156D01*
X1626029Y1091295D01*
X1626082Y1091466D01*
X1626114Y1091637D01*
X1626125Y1091830D01*
Y1091905D01*
X1626114Y1091958D01*
X1626104Y1092022D01*
X1626093Y1092097D01*
X1626050Y1092279D01*
X1625975Y1092482D01*
X1625868Y1092696D01*
X1625804Y1092803D01*
X1625719Y1092910D01*
X1625633Y1093017D01*
X1625526Y1093124D01*
X1625515Y1093134D01*
X1625494Y1093145D01*
X1625462Y1093177D01*
X1625419Y1093209D01*
X1625355Y1093252D01*
X1625280Y1093295D01*
X1625195Y1093337D01*
X1625098Y1093391D01*
X1624981Y1093444D01*
X1624863Y1093487D01*
X1624724Y1093530D01*
X1624585Y1093573D01*
X1624425Y1093605D01*
X1624254Y1093637D01*
X1624082Y1093648D01*
X1623890Y1093658D01*
D02*
G37*
G36*
X1621986Y1089702D02*
X1621987Y1089702D01*
X1621997D01*
X1621986Y1089702D01*
D02*
G37*
G36*
X1622211Y1086173D02*
X1622200D01*
X1622179D01*
X1622147D01*
X1622104D01*
X1622051D01*
X1621987D01*
X1621826Y1086162D01*
X1621634Y1086152D01*
X1621420Y1086141D01*
X1621185Y1086130D01*
X1620928Y1086109D01*
X1620404Y1086034D01*
X1620147Y1085991D01*
X1619891Y1085938D01*
X1619645Y1085873D01*
X1619431Y1085799D01*
X1619228Y1085713D01*
X1619067Y1085617D01*
X1619057Y1085606D01*
X1619035Y1085595D01*
X1618992Y1085563D01*
X1618950Y1085521D01*
X1618885Y1085467D01*
X1618821Y1085403D01*
X1618672Y1085232D01*
X1618533Y1085039D01*
X1618404Y1084804D01*
X1618362Y1084676D01*
X1618319Y1084537D01*
X1618297Y1084387D01*
X1618287Y1084237D01*
Y1084163D01*
X1618297Y1084098D01*
X1618308Y1084034D01*
X1618319Y1083959D01*
X1618372Y1083767D01*
X1618458Y1083564D01*
X1618511Y1083457D01*
X1618575Y1083350D01*
X1618661Y1083232D01*
X1618757Y1083125D01*
X1618864Y1083029D01*
X1618982Y1082933D01*
X1618992Y1082922D01*
X1619025Y1082911D01*
X1619078Y1082879D01*
X1619153Y1082837D01*
X1619249Y1082794D01*
X1619377Y1082740D01*
X1619527Y1082687D01*
X1619709Y1082633D01*
X1619912Y1082580D01*
X1620147Y1082526D01*
X1620415Y1082473D01*
X1620714Y1082430D01*
X1621035Y1082387D01*
X1621398Y1082355D01*
X1621783Y1082345D01*
X1622211Y1082334D01*
X1622222D01*
X1622233D01*
X1622265D01*
X1622318D01*
X1622372D01*
X1622436D01*
X1622596Y1082345D01*
X1622778Y1082355D01*
X1623002Y1082366D01*
X1623238Y1082377D01*
X1623494Y1082398D01*
X1624018Y1082462D01*
X1624275Y1082516D01*
X1624532Y1082569D01*
X1624778Y1082623D01*
X1624991Y1082698D01*
X1625195Y1082783D01*
X1625355Y1082879D01*
X1625366Y1082890D01*
X1625387Y1082901D01*
X1625430Y1082933D01*
X1625473Y1082976D01*
X1625537Y1083029D01*
X1625601Y1083093D01*
X1625740Y1083264D01*
X1625879Y1083457D01*
X1626007Y1083692D01*
X1626050Y1083820D01*
X1626093Y1083959D01*
X1626114Y1084098D01*
X1626125Y1084248D01*
Y1084280D01*
X1626114Y1084323D01*
Y1084387D01*
X1626104Y1084451D01*
X1626082Y1084537D01*
X1626029Y1084729D01*
X1625986Y1084826D01*
X1625932Y1084943D01*
X1625868Y1085050D01*
X1625793Y1085168D01*
X1625708Y1085285D01*
X1625601Y1085403D01*
X1625483Y1085510D01*
X1625344Y1085617D01*
X1625334Y1085628D01*
X1625302Y1085638D01*
X1625259Y1085670D01*
X1625184Y1085702D01*
X1625088Y1085745D01*
X1624970Y1085788D01*
X1624831Y1085841D01*
X1624660Y1085895D01*
X1624467Y1085948D01*
X1624232Y1086002D01*
X1623976Y1086045D01*
X1623698Y1086087D01*
X1623377Y1086119D01*
X1623024Y1086152D01*
X1622639Y1086162D01*
X1622211Y1086173D01*
D02*
G37*
G36*
Y1071266D02*
X1622200D01*
X1622179D01*
X1622147D01*
X1622104D01*
X1622051D01*
X1621987D01*
X1621826Y1071256D01*
X1621634Y1071245D01*
X1621420Y1071234D01*
X1621185Y1071224D01*
X1620928Y1071202D01*
X1620404Y1071127D01*
X1620147Y1071085D01*
X1619891Y1071031D01*
X1619645Y1070967D01*
X1619431Y1070892D01*
X1619228Y1070807D01*
X1619067Y1070710D01*
X1619057Y1070699D01*
X1619035Y1070689D01*
X1618992Y1070657D01*
X1618950Y1070614D01*
X1618885Y1070561D01*
X1618821Y1070496D01*
X1618672Y1070325D01*
X1618533Y1070133D01*
X1618404Y1069898D01*
X1618362Y1069769D01*
X1618319Y1069630D01*
X1618297Y1069481D01*
X1618287Y1069331D01*
Y1069256D01*
X1618297Y1069192D01*
X1618308Y1069128D01*
X1618319Y1069053D01*
X1618372Y1068860D01*
X1618458Y1068657D01*
X1618511Y1068550D01*
X1618575Y1068443D01*
X1618661Y1068326D01*
X1618757Y1068219D01*
X1618864Y1068122D01*
X1618982Y1068026D01*
X1618992Y1068016D01*
X1619025Y1068005D01*
X1619078Y1067973D01*
X1619153Y1067930D01*
X1619249Y1067887D01*
X1619377Y1067834D01*
X1619527Y1067780D01*
X1619709Y1067727D01*
X1619912Y1067673D01*
X1620147Y1067620D01*
X1620415Y1067566D01*
X1620714Y1067524D01*
X1621035Y1067481D01*
X1621398Y1067449D01*
X1621783Y1067438D01*
X1622211Y1067427D01*
X1622222D01*
X1622233D01*
X1622265D01*
X1622318D01*
X1622372D01*
X1622436D01*
X1622596Y1067438D01*
X1622778Y1067449D01*
X1623002Y1067459D01*
X1623238Y1067470D01*
X1623494Y1067492D01*
X1624018Y1067556D01*
X1624275Y1067609D01*
X1624532Y1067663D01*
X1624778Y1067716D01*
X1624991Y1067791D01*
X1625195Y1067877D01*
X1625355Y1067973D01*
X1625366Y1067983D01*
X1625387Y1067994D01*
X1625430Y1068026D01*
X1625473Y1068069D01*
X1625537Y1068122D01*
X1625601Y1068187D01*
X1625740Y1068358D01*
X1625879Y1068550D01*
X1626007Y1068785D01*
X1626050Y1068914D01*
X1626093Y1069053D01*
X1626114Y1069192D01*
X1626125Y1069342D01*
Y1069374D01*
X1626114Y1069416D01*
Y1069481D01*
X1626104Y1069545D01*
X1626082Y1069630D01*
X1626029Y1069823D01*
X1625986Y1069919D01*
X1625932Y1070036D01*
X1625868Y1070144D01*
X1625793Y1070261D01*
X1625708Y1070379D01*
X1625601Y1070496D01*
X1625483Y1070603D01*
X1625344Y1070710D01*
X1625334Y1070721D01*
X1625302Y1070732D01*
X1625259Y1070764D01*
X1625184Y1070796D01*
X1625088Y1070838D01*
X1624970Y1070881D01*
X1624831Y1070935D01*
X1624660Y1070988D01*
X1624467Y1071042D01*
X1624232Y1071095D01*
X1623976Y1071138D01*
X1623698Y1071181D01*
X1623377Y1071213D01*
X1623024Y1071245D01*
X1622639Y1071256D01*
X1622211Y1071266D01*
D02*
G37*
G36*
Y1048906D02*
X1622200D01*
X1622179D01*
X1622147D01*
X1622104D01*
X1622051D01*
X1621987D01*
X1621826Y1048896D01*
X1621634Y1048885D01*
X1621420Y1048874D01*
X1621185Y1048864D01*
X1620928Y1048842D01*
X1620404Y1048767D01*
X1620147Y1048725D01*
X1619891Y1048671D01*
X1619645Y1048607D01*
X1619431Y1048532D01*
X1619228Y1048447D01*
X1619067Y1048350D01*
X1619057Y1048340D01*
X1619035Y1048329D01*
X1618992Y1048297D01*
X1618950Y1048254D01*
X1618885Y1048201D01*
X1618821Y1048137D01*
X1618672Y1047965D01*
X1618533Y1047773D01*
X1618404Y1047538D01*
X1618362Y1047409D01*
X1618319Y1047270D01*
X1618297Y1047121D01*
X1618287Y1046971D01*
Y1046896D01*
X1618297Y1046832D01*
X1618308Y1046768D01*
X1618319Y1046693D01*
X1618372Y1046500D01*
X1618458Y1046297D01*
X1618511Y1046190D01*
X1618575Y1046083D01*
X1618661Y1045966D01*
X1618757Y1045859D01*
X1618864Y1045762D01*
X1618982Y1045666D01*
X1618992Y1045656D01*
X1619025Y1045645D01*
X1619078Y1045613D01*
X1619153Y1045570D01*
X1619249Y1045527D01*
X1619377Y1045474D01*
X1619527Y1045420D01*
X1619709Y1045367D01*
X1619912Y1045313D01*
X1620147Y1045260D01*
X1620415Y1045207D01*
X1620714Y1045164D01*
X1621035Y1045121D01*
X1621398Y1045089D01*
X1621783Y1045078D01*
X1622211Y1045068D01*
X1622222D01*
X1622233D01*
X1622265D01*
X1622318D01*
X1622372D01*
X1622436D01*
X1622596Y1045078D01*
X1622778Y1045089D01*
X1623002Y1045099D01*
X1623238Y1045110D01*
X1623494Y1045132D01*
X1624018Y1045196D01*
X1624275Y1045249D01*
X1624532Y1045303D01*
X1624778Y1045356D01*
X1624991Y1045431D01*
X1625195Y1045517D01*
X1625355Y1045613D01*
X1625366Y1045623D01*
X1625387Y1045634D01*
X1625430Y1045666D01*
X1625473Y1045709D01*
X1625537Y1045762D01*
X1625601Y1045827D01*
X1625740Y1045998D01*
X1625879Y1046190D01*
X1626007Y1046425D01*
X1626050Y1046554D01*
X1626093Y1046693D01*
X1626114Y1046832D01*
X1626125Y1046982D01*
Y1047014D01*
X1626114Y1047056D01*
Y1047121D01*
X1626104Y1047185D01*
X1626082Y1047270D01*
X1626029Y1047463D01*
X1625986Y1047559D01*
X1625932Y1047677D01*
X1625868Y1047784D01*
X1625793Y1047901D01*
X1625708Y1048019D01*
X1625601Y1048137D01*
X1625483Y1048243D01*
X1625344Y1048350D01*
X1625334Y1048361D01*
X1625302Y1048372D01*
X1625259Y1048404D01*
X1625184Y1048436D01*
X1625088Y1048479D01*
X1624970Y1048521D01*
X1624831Y1048575D01*
X1624660Y1048628D01*
X1624467Y1048682D01*
X1624232Y1048735D01*
X1623976Y1048778D01*
X1623698Y1048821D01*
X1623377Y1048853D01*
X1623024Y1048885D01*
X1622639Y1048896D01*
X1622211Y1048906D01*
D02*
G37*
G36*
X1623462Y956676D02*
X1623452D01*
X1623398D01*
X1623334D01*
X1623238Y956665D01*
X1623131Y956654D01*
X1623002Y956644D01*
X1622853Y956633D01*
X1622703Y956612D01*
X1622382Y956547D01*
X1622040Y956451D01*
X1621890Y956387D01*
X1621730Y956312D01*
X1621591Y956227D01*
X1621463Y956130D01*
X1621452Y956120D01*
X1621431Y956109D01*
X1621398Y956077D01*
X1621356Y956034D01*
X1621313Y955981D01*
X1621259Y955917D01*
X1621131Y955767D01*
X1621013Y955574D01*
X1620907Y955350D01*
X1620874Y955232D01*
X1620842Y955104D01*
X1620821Y954965D01*
X1620810Y954826D01*
Y954751D01*
X1620821Y954697D01*
X1620832Y954633D01*
X1620842Y954558D01*
X1620896Y954377D01*
X1620971Y954163D01*
X1621024Y954056D01*
X1621099Y953938D01*
X1621174Y953831D01*
X1621259Y953714D01*
X1621366Y953607D01*
X1621484Y953500D01*
X1621495Y953489D01*
X1621516Y953478D01*
X1621548Y953446D01*
X1621612Y953414D01*
X1621676Y953372D01*
X1621762Y953329D01*
X1621858Y953275D01*
X1621976Y953222D01*
X1622104Y953168D01*
X1622243Y953115D01*
X1622404Y953072D01*
X1622575Y953029D01*
X1622767Y952997D01*
X1622970Y952965D01*
X1623184Y952954D01*
X1623419Y952944D01*
X1623430D01*
X1623473D01*
X1623537D01*
X1623623Y952954D01*
X1623719D01*
X1623837Y952965D01*
X1623976Y952976D01*
X1624104Y952987D01*
X1624403Y953029D01*
X1624703Y953083D01*
X1624981Y953168D01*
X1625109Y953222D01*
X1625216Y953275D01*
X1625227Y953286D01*
X1625259Y953297D01*
X1625302Y953329D01*
X1625355Y953382D01*
X1625419Y953436D01*
X1625505Y953500D01*
X1625580Y953585D01*
X1625665Y953671D01*
X1625751Y953778D01*
X1625826Y953885D01*
X1625975Y954141D01*
X1626029Y954291D01*
X1626071Y954441D01*
X1626104Y954612D01*
X1626114Y954783D01*
Y954858D01*
X1626104Y954911D01*
X1626093Y954976D01*
X1626082Y955061D01*
X1626029Y955243D01*
X1625954Y955446D01*
X1625900Y955553D01*
X1625836Y955671D01*
X1625761Y955778D01*
X1625665Y955895D01*
X1625569Y956002D01*
X1625451Y956109D01*
X1625441Y956120D01*
X1625419Y956130D01*
X1625376Y956162D01*
X1625323Y956195D01*
X1625259Y956237D01*
X1625173Y956291D01*
X1625066Y956344D01*
X1624949Y956398D01*
X1624820Y956441D01*
X1624671Y956494D01*
X1624510Y956547D01*
X1624328Y956590D01*
X1624136Y956622D01*
X1623933Y956654D01*
X1623698Y956665D01*
X1623462Y956676D01*
D02*
G37*
G36*
X1623569Y945223D02*
X1623548D01*
X1623505D01*
X1623430D01*
X1623334Y945212D01*
X1623216Y945202D01*
X1623088Y945191D01*
X1622938Y945180D01*
X1622778Y945159D01*
X1622436Y945084D01*
X1622094Y944988D01*
X1621922Y944924D01*
X1621762Y944849D01*
X1621612Y944763D01*
X1621484Y944667D01*
X1621473Y944656D01*
X1621452Y944646D01*
X1621420Y944614D01*
X1621377Y944571D01*
X1621324Y944517D01*
X1621270Y944453D01*
X1621142Y944293D01*
X1621024Y944090D01*
X1620917Y943865D01*
X1620874Y943737D01*
X1620842Y943598D01*
X1620821Y943459D01*
X1620810Y943309D01*
Y943234D01*
X1620821Y943181D01*
X1620832Y943106D01*
X1620842Y943031D01*
X1620885Y942849D01*
X1620971Y942635D01*
X1621013Y942528D01*
X1621078Y942421D01*
X1621152Y942315D01*
X1621238Y942197D01*
X1621334Y942090D01*
X1621452Y941994D01*
X1621463Y941983D01*
X1621484Y941972D01*
X1621516Y941951D01*
X1621570Y941908D01*
X1621644Y941876D01*
X1621730Y941833D01*
X1621826Y941780D01*
X1621944Y941737D01*
X1622083Y941684D01*
X1622222Y941641D01*
X1622393Y941587D01*
X1622575Y941555D01*
X1622778Y941523D01*
X1622992Y941491D01*
X1623227Y941480D01*
X1623473Y941470D01*
X1623484D01*
X1623526D01*
X1623601D01*
X1623687Y941480D01*
X1623804Y941491D01*
X1623922Y941502D01*
X1624072Y941513D01*
X1624221Y941545D01*
X1624542Y941609D01*
X1624874Y941705D01*
X1625034Y941769D01*
X1625184Y941844D01*
X1625334Y941930D01*
X1625462Y942026D01*
X1625473Y942037D01*
X1625494Y942047D01*
X1625526Y942079D01*
X1625558Y942122D01*
X1625612Y942186D01*
X1625665Y942250D01*
X1625783Y942411D01*
X1625911Y942603D01*
X1626007Y942828D01*
X1626050Y942956D01*
X1626082Y943084D01*
X1626104Y943223D01*
X1626114Y943363D01*
Y943437D01*
X1626104Y943491D01*
X1626093Y943555D01*
X1626082Y943641D01*
X1626039Y943812D01*
X1625965Y944025D01*
X1625911Y944133D01*
X1625847Y944239D01*
X1625783Y944357D01*
X1625697Y944464D01*
X1625601Y944571D01*
X1625494Y944678D01*
X1625483Y944688D01*
X1625462Y944699D01*
X1625430Y944731D01*
X1625376Y944763D01*
X1625312Y944806D01*
X1625227Y944849D01*
X1625130Y944902D01*
X1625013Y944956D01*
X1624884Y944999D01*
X1624745Y945052D01*
X1624585Y945095D01*
X1624414Y945138D01*
X1624232Y945170D01*
X1624018Y945202D01*
X1623804Y945212D01*
X1623569Y945223D01*
D02*
G37*
G36*
X1622789Y938016D02*
X1622778D01*
X1622746D01*
X1622703Y938005D01*
X1622650Y937994D01*
X1622575Y937984D01*
X1622489Y937973D01*
X1622297Y937930D01*
X1622094Y937866D01*
X1621880Y937791D01*
X1621676Y937695D01*
X1621495Y937567D01*
X1621484Y937556D01*
X1621463Y937545D01*
X1621431Y937513D01*
X1621388Y937460D01*
X1621334Y937406D01*
X1621281Y937342D01*
X1621217Y937257D01*
X1621152Y937171D01*
X1621024Y936957D01*
X1620917Y936711D01*
X1620874Y936572D01*
X1620842Y936423D01*
X1620821Y936262D01*
X1620810Y936102D01*
Y936027D01*
X1620821Y935963D01*
X1620832Y935899D01*
X1620842Y935813D01*
X1620874Y935631D01*
X1620939Y935407D01*
X1621035Y935182D01*
X1621099Y935064D01*
X1621174Y934947D01*
X1621259Y934840D01*
X1621356Y934733D01*
X1621366Y934722D01*
X1621377Y934712D01*
X1621409Y934679D01*
X1621452Y934647D01*
X1621505Y934605D01*
X1621570Y934551D01*
X1621644Y934498D01*
X1621730Y934444D01*
X1621944Y934337D01*
X1622190Y934241D01*
X1622468Y934166D01*
X1622628Y934134D01*
X1622789Y934123D01*
Y938016D01*
D02*
G37*
G36*
Y926103D02*
X1622778D01*
X1622746D01*
X1622703Y926093D01*
X1622650Y926082D01*
X1622575Y926071D01*
X1622489Y926061D01*
X1622297Y926018D01*
X1622094Y925954D01*
X1621880Y925879D01*
X1621676Y925783D01*
X1621495Y925654D01*
X1621484Y925644D01*
X1621463Y925633D01*
X1621431Y925601D01*
X1621388Y925547D01*
X1621334Y925494D01*
X1621281Y925430D01*
X1621217Y925344D01*
X1621152Y925259D01*
X1621024Y925045D01*
X1620917Y924799D01*
X1620874Y924660D01*
X1620842Y924510D01*
X1620821Y924350D01*
X1620810Y924189D01*
Y924114D01*
X1620821Y924050D01*
X1620832Y923986D01*
X1620842Y923901D01*
X1620874Y923719D01*
X1620939Y923494D01*
X1621035Y923270D01*
X1621099Y923152D01*
X1621174Y923034D01*
X1621259Y922927D01*
X1621356Y922821D01*
X1621366Y922810D01*
X1621377Y922799D01*
X1621409Y922767D01*
X1621452Y922735D01*
X1621505Y922692D01*
X1621570Y922639D01*
X1621644Y922585D01*
X1621730Y922532D01*
X1621944Y922425D01*
X1622190Y922329D01*
X1622468Y922254D01*
X1622628Y922222D01*
X1622789Y922211D01*
Y926103D01*
D02*
G37*
G36*
X1623430Y909058D02*
X1623419D01*
X1623377D01*
X1623302D01*
X1623216Y909047D01*
X1623109Y909037D01*
X1622981Y909026D01*
X1622853Y909005D01*
X1622703Y908983D01*
X1622382Y908919D01*
X1622061Y908812D01*
X1621901Y908748D01*
X1621751Y908662D01*
X1621602Y908577D01*
X1621473Y908470D01*
X1621463Y908459D01*
X1621441Y908449D01*
X1621409Y908406D01*
X1621366Y908363D01*
X1621324Y908310D01*
X1621259Y908235D01*
X1621206Y908160D01*
X1621142Y908064D01*
X1621024Y907860D01*
X1620917Y907604D01*
X1620874Y907476D01*
X1620842Y907326D01*
X1620821Y907176D01*
X1620810Y907016D01*
Y906930D01*
X1620821Y906866D01*
X1620832Y906791D01*
X1620842Y906706D01*
X1620896Y906502D01*
X1620971Y906267D01*
X1621024Y906150D01*
X1621088Y906021D01*
X1621163Y905903D01*
X1621259Y905775D01*
X1621356Y905658D01*
X1621473Y905551D01*
X1621484Y905540D01*
X1621505Y905529D01*
X1621548Y905497D01*
X1621602Y905465D01*
X1621666Y905422D01*
X1621751Y905369D01*
X1621858Y905315D01*
X1621965Y905262D01*
X1622104Y905209D01*
X1622254Y905155D01*
X1622414Y905112D01*
X1622596Y905059D01*
X1622789Y905027D01*
X1622992Y904995D01*
X1623216Y904984D01*
X1623462Y904973D01*
X1623473D01*
X1623516D01*
X1623591D01*
X1623676Y904984D01*
X1623794Y904995D01*
X1623922Y905005D01*
X1624061Y905027D01*
X1624211Y905048D01*
X1624542Y905112D01*
X1624874Y905219D01*
X1625034Y905283D01*
X1625184Y905358D01*
X1625334Y905454D01*
X1625462Y905551D01*
X1625473Y905561D01*
X1625494Y905583D01*
X1625526Y905615D01*
X1625558Y905658D01*
X1625612Y905711D01*
X1625665Y905775D01*
X1625729Y905861D01*
X1625783Y905946D01*
X1625911Y906160D01*
X1626007Y906417D01*
X1626050Y906556D01*
X1626082Y906695D01*
X1626104Y906855D01*
X1626114Y907016D01*
Y907101D01*
X1626104Y907165D01*
X1626093Y907240D01*
X1626082Y907326D01*
X1626029Y907529D01*
X1625954Y907754D01*
X1625900Y907882D01*
X1625836Y907999D01*
X1625761Y908117D01*
X1625665Y908245D01*
X1625569Y908363D01*
X1625451Y908470D01*
X1625441Y908481D01*
X1625419Y908491D01*
X1625376Y908523D01*
X1625323Y908566D01*
X1625259Y908609D01*
X1625173Y908652D01*
X1625066Y908705D01*
X1624949Y908769D01*
X1624820Y908823D01*
X1624671Y908876D01*
X1624500Y908919D01*
X1624318Y908962D01*
X1624125Y909005D01*
X1623911Y909037D01*
X1623676Y909047D01*
X1623430Y909058D01*
D02*
G37*
G36*
X1623409Y901573D02*
X1623398D01*
X1623355D01*
X1623280D01*
X1623195Y901562D01*
X1623077Y901551D01*
X1622949Y901541D01*
X1622810Y901530D01*
X1622660Y901509D01*
X1622339Y901434D01*
X1622008Y901338D01*
X1621848Y901273D01*
X1621698Y901199D01*
X1621548Y901113D01*
X1621420Y901017D01*
X1621409Y901006D01*
X1621388Y900995D01*
X1621356Y900963D01*
X1621313Y900920D01*
X1621270Y900867D01*
X1621206Y900803D01*
X1621088Y900653D01*
X1620971Y900461D01*
X1620864Y900236D01*
X1620821Y900118D01*
X1620789Y899990D01*
X1620768Y899851D01*
X1620757Y899712D01*
Y899637D01*
X1620768Y899584D01*
X1620778Y899520D01*
X1620789Y899445D01*
X1620842Y899263D01*
X1620928Y899060D01*
X1620981Y898953D01*
X1621056Y898835D01*
X1621131Y898728D01*
X1621227Y898611D01*
X1621334Y898493D01*
X1621463Y898386D01*
X1621473Y898375D01*
X1621495Y898365D01*
X1621537Y898333D01*
X1621591Y898300D01*
X1621666Y898258D01*
X1621751Y898204D01*
X1621858Y898151D01*
X1621987Y898097D01*
X1622115Y898044D01*
X1622275Y897990D01*
X1622436Y897948D01*
X1622617Y897894D01*
X1622821Y897862D01*
X1623035Y897830D01*
X1623259Y897819D01*
X1623505Y897809D01*
X1623516D01*
X1623559D01*
X1623633D01*
X1623719Y897819D01*
X1623837Y897830D01*
X1623965Y897841D01*
X1624104Y897851D01*
X1624254Y897873D01*
X1624574Y897937D01*
X1624906Y898033D01*
X1625066Y898097D01*
X1625216Y898172D01*
X1625355Y898247D01*
X1625483Y898343D01*
X1625494Y898354D01*
X1625515Y898365D01*
X1625537Y898397D01*
X1625580Y898440D01*
X1625633Y898493D01*
X1625686Y898557D01*
X1625793Y898718D01*
X1625911Y898899D01*
X1626018Y899124D01*
X1626061Y899252D01*
X1626082Y899381D01*
X1626104Y899520D01*
X1626114Y899659D01*
Y899734D01*
X1626104Y899787D01*
X1626093Y899862D01*
X1626082Y899937D01*
X1626029Y900129D01*
X1625954Y900332D01*
X1625900Y900450D01*
X1625836Y900557D01*
X1625761Y900675D01*
X1625676Y900792D01*
X1625580Y900899D01*
X1625462Y901006D01*
X1625451Y901017D01*
X1625430Y901027D01*
X1625387Y901059D01*
X1625334Y901092D01*
X1625269Y901134D01*
X1625173Y901188D01*
X1625077Y901241D01*
X1624959Y901295D01*
X1624820Y901338D01*
X1624671Y901391D01*
X1624500Y901444D01*
X1624318Y901487D01*
X1624115Y901519D01*
X1623901Y901551D01*
X1623665Y901562D01*
X1623409Y901573D01*
D02*
G37*
%LPD*%
D10*
X1189600Y799302D02*
G03*
X1186502Y802400I-3098J0D01*
G01*
X1178502D02*
G03*
X1175404Y799302I-0J-3098D01*
G01*
X1186444Y774445D02*
G03*
X1189542Y777543I0J3098D01*
G01*
X1175346D02*
G03*
X1178444Y774445I3098J0D01*
G01*
X1151400Y777448D02*
G03*
X1154498Y774350I3098J0D01*
G01*
X1162498D02*
G03*
X1165596Y777448I0J3098D01*
G01*
X1154556Y802305D02*
G03*
X1151458Y799207I-0J-3098D01*
G01*
X1165654D02*
G03*
X1162556Y802305I-3098J0D01*
G01*
X986480Y912310D02*
G03*
X986480Y930090I0J8890D01*
G01*
X1288900Y1044199D02*
G03*
X1291998Y1041100I3098J0D01*
G01*
X1299998D02*
G03*
X1303096Y1044199I0J3098D01*
G01*
X1292056Y1069055D02*
G03*
X1288958Y1065957I-0J-3098D01*
G01*
X1303154D02*
G03*
X1300056Y1069055I-3098J0D01*
G01*
X987062Y1086198D02*
G03*
X990160Y1083100I3098J0D01*
G01*
X998160D02*
G03*
X1001258Y1086198I0J3098D01*
G01*
X990219Y1111055D02*
G03*
X987120Y1107957I-0J-3098D01*
G01*
X1001317D02*
G03*
X998218Y1111055I-3098J0D01*
G01*
X964062Y1086198D02*
G03*
X967160Y1083100I3098J0D01*
G01*
X975160D02*
G03*
X978258Y1086198I0J3098D01*
G01*
X967218Y1111055D02*
G03*
X964120Y1107957I-0J-3098D01*
G01*
X978317D02*
G03*
X975218Y1111055I-3098J0D01*
G01*
X954263Y1107889D02*
G03*
X951164Y1110988I-3098J0D01*
G01*
X943165D02*
G03*
X940066Y1107889I-0J-3098D01*
G01*
X951106Y1083033D02*
G03*
X954205Y1086131I0J3098D01*
G01*
X940008D02*
G03*
X943106Y1083033I3098J0D01*
G01*
X1011062Y1086198D02*
G03*
X1014160Y1083100I3098J0D01*
G01*
X1022160D02*
G03*
X1025258Y1086198I0J3098D01*
G01*
X1014219Y1111055D02*
G03*
X1011120Y1107957I-0J-3098D01*
G01*
X1025317D02*
G03*
X1022218Y1111055I-3098J0D01*
G01*
X987900Y1186198D02*
G03*
X990998Y1183100I3098J0D01*
G01*
X998998D02*
G03*
X1002096Y1186198I0J3098D01*
G01*
X991056Y1211055D02*
G03*
X987958Y1207957I-0J-3098D01*
G01*
X1002154D02*
G03*
X999056Y1211055I-3098J0D01*
G01*
X1554655Y881957D02*
G03*
X1551556Y885056I-3098J0D01*
G01*
X1543557D02*
G03*
X1540458Y881957I-0J-3098D01*
G01*
X1551498Y857100D02*
G03*
X1554597Y860199I0J3098D01*
G01*
X1540400D02*
G03*
X1543498Y857100I3098J0D01*
G01*
X1584155Y881207D02*
G03*
X1581056Y884306I-3098J0D01*
G01*
X1573057D02*
G03*
X1569958Y881207I-0J-3098D01*
G01*
X1580998Y856350D02*
G03*
X1584097Y859449I0J3098D01*
G01*
X1569900D02*
G03*
X1572998Y856350I3098J0D01*
G01*
X1227683Y1336956D02*
G03*
X1224585Y1340055I-3098J0D01*
G01*
X1216585D02*
G03*
X1213486Y1336956I-0J-3098D01*
G01*
X1224526Y1312099D02*
G03*
X1227625Y1315198I0J3098D01*
G01*
X1213428D02*
G03*
X1216526Y1312099I3098J0D01*
G01*
X1079957Y1082846D02*
G03*
X1083055Y1085944I0J3098D01*
G01*
Y1093943D02*
G03*
X1079957Y1097042I-3098J0D01*
G01*
X1055099Y1086002D02*
G03*
X1058198Y1082904I3098J-0D01*
G01*
Y1097100D02*
G03*
X1055099Y1094002I0J-3098D01*
G01*
X1079957Y1133846D02*
G03*
X1083055Y1136944I0J3098D01*
G01*
Y1144944D02*
G03*
X1079957Y1148042I-3098J0D01*
G01*
X1055100Y1137002D02*
G03*
X1058198Y1133904I3098J-0D01*
G01*
Y1148100D02*
G03*
X1055100Y1145002I0J-3098D01*
G01*
X1079957Y1159846D02*
G03*
X1083055Y1162944I0J3098D01*
G01*
Y1170944D02*
G03*
X1079957Y1174042I-3098J0D01*
G01*
X1055100Y1163002D02*
G03*
X1058198Y1159904I3098J-0D01*
G01*
Y1174100D02*
G03*
X1055100Y1171002I0J-3098D01*
G01*
X1205615Y1147803D02*
G03*
X1201567Y1146126I-1186J-2862D01*
G01*
X1198506Y1138735D02*
G03*
X1200182Y1134687I2862J-1186D01*
G01*
X1227372Y1135374D02*
G03*
X1225695Y1139422I-2862J1186D01*
G01*
X1220263Y1126307D02*
G03*
X1224311Y1127983I1186J2862D01*
G01*
X1223861Y1517583D02*
G03*
X1225537Y1521631I-1186J2862D01*
G01*
X1222476Y1529022D02*
G03*
X1218428Y1530699I-2863J-1185D01*
G01*
X1199688Y1510987D02*
G03*
X1203736Y1509310I2863J1185D01*
G01*
X1198303Y1522426D02*
G03*
X1196626Y1518378I1186J-2862D01*
G01*
X1065154Y1522957D02*
G03*
X1062056Y1526055I-3098J0D01*
G01*
X1054056D02*
G03*
X1050958Y1522957I-0J-3098D01*
G01*
X1061998Y1498100D02*
G03*
X1065096Y1501198I0J3098D01*
G01*
X1050899D02*
G03*
X1053998Y1498100I3098J0D01*
G01*
X1074886Y1499724D02*
G03*
X1077984Y1496625I3098J0D01*
G01*
X1085984D02*
G03*
X1089082Y1499724I0J3098D01*
G01*
X1078042Y1524581D02*
G03*
X1074944Y1521482I-0J-3098D01*
G01*
X1089140D02*
G03*
X1086042Y1524581I-3098J0D01*
G01*
X1024957Y1520846D02*
G03*
X1028055Y1523944I0J3098D01*
G01*
Y1531944D02*
G03*
X1024957Y1535042I-3098J0D01*
G01*
X1000100Y1524002D02*
G03*
X1003198Y1520904I3098J-0D01*
G01*
Y1535100D02*
G03*
X1000100Y1532002I0J-3098D01*
G01*
X958046Y1621644D02*
G03*
X961144Y1618545I3098J0D01*
G01*
X969144D02*
G03*
X972242Y1621644I0J3098D01*
G01*
X961202Y1646501D02*
G03*
X958104Y1643402I-0J-3098D01*
G01*
X972300D02*
G03*
X969202Y1646501I-3098J0D01*
G01*
X976157Y1521926D02*
G03*
X979255Y1525024I0J3098D01*
G01*
Y1533024D02*
G03*
X976157Y1536122I-3098J0D01*
G01*
X951300Y1525082D02*
G03*
X954398Y1521984I3098J-0D01*
G01*
Y1536180D02*
G03*
X951300Y1533082I0J-3098D01*
G01*
X988525Y1621643D02*
G03*
X991624Y1618545I3098J0D01*
G01*
X999623D02*
G03*
X1002722Y1621643I0J3098D01*
G01*
X991682Y1646500D02*
G03*
X988584Y1643402I-0J-3098D01*
G01*
X1002780D02*
G03*
X999682Y1646500I-3098J0D01*
G01*
X988526Y1584163D02*
G03*
X991624Y1581065I3098J0D01*
G01*
X999624D02*
G03*
X1002722Y1584163I0J3098D01*
G01*
X991682Y1609020D02*
G03*
X988584Y1605922I-0J-3098D01*
G01*
X1002780D02*
G03*
X999682Y1609020I-3098J0D01*
G01*
X958046Y1584163D02*
G03*
X961144Y1581065I3098J0D01*
G01*
X969144D02*
G03*
X972242Y1584163I0J3098D01*
G01*
X961202Y1609020D02*
G03*
X958104Y1605922I-0J-3098D01*
G01*
X972300D02*
G03*
X969202Y1609020I-3098J0D01*
G01*
X1025363Y1597194D02*
G03*
X1022265Y1594096I0J-3098D01*
G01*
Y1586096D02*
G03*
X1025363Y1582998I3098J-0D01*
G01*
X1050220Y1594038D02*
G03*
X1047122Y1597136I-3098J0D01*
G01*
Y1582940D02*
G03*
X1050220Y1586038I0J3098D01*
G01*
X1358139Y1137417D02*
G03*
X1356463Y1133369I1186J-2862D01*
G01*
X1359524Y1125978D02*
G03*
X1363572Y1124301I2863J1185D01*
G01*
X1382312Y1144013D02*
G03*
X1378264Y1145690I-2863J-1185D01*
G01*
X1383697Y1132574D02*
G03*
X1385374Y1136622I-1186J2862D01*
G01*
X1380917Y1512876D02*
G03*
X1384966Y1514553I1186J2862D01*
G01*
X1388027Y1521944D02*
G03*
X1386350Y1525992I-2862J1186D01*
G01*
X1359161Y1525305D02*
G03*
X1360837Y1521257I2862J-1186D01*
G01*
X1366270Y1534373D02*
G03*
X1362222Y1532696I-1186J-2862D01*
G01*
X1253154Y798957D02*
G03*
X1250056Y802055I-3098J0D01*
G01*
X1242056D02*
G03*
X1238958Y798957I-0J-3098D01*
G01*
X1249998Y774100D02*
G03*
X1253096Y777198I0J3098D01*
G01*
X1238900D02*
G03*
X1241998Y774100I3098J0D01*
G01*
X1079957Y1186846D02*
G03*
X1083055Y1189944I0J3098D01*
G01*
Y1197944D02*
G03*
X1079957Y1201042I-3098J0D01*
G01*
X1055100Y1190002D02*
G03*
X1058198Y1186904I3098J-0D01*
G01*
Y1201100D02*
G03*
X1055100Y1198002I0J-3098D01*
G01*
X1251154Y1335957D02*
G03*
X1248056Y1339055I-3098J0D01*
G01*
X1240056D02*
G03*
X1236958Y1335957I-0J-3098D01*
G01*
X1247998Y1311100D02*
G03*
X1251096Y1314198I0J3098D01*
G01*
X1236900D02*
G03*
X1239998Y1311100I3098J0D01*
G01*
X1021957Y1467845D02*
G03*
X1025055Y1470944I0J3098D01*
G01*
Y1478943D02*
G03*
X1021957Y1482042I-3098J0D01*
G01*
X997100Y1471002D02*
G03*
X1000198Y1467904I3098J-0D01*
G01*
Y1482100D02*
G03*
X997100Y1479002I0J-3098D01*
G01*
X1358154Y1332957D02*
G03*
X1355056Y1336055I-3098J0D01*
G01*
X1347056D02*
G03*
X1343958Y1332957I-0J-3098D01*
G01*
X1354998Y1308100D02*
G03*
X1358096Y1311198I0J3098D01*
G01*
X1343900D02*
G03*
X1346998Y1308100I3098J0D01*
G01*
X1037957Y1189846D02*
G03*
X1041055Y1192944I0J3098D01*
G01*
Y1200944D02*
G03*
X1037957Y1204042I-3098J0D01*
G01*
X1013100Y1193002D02*
G03*
X1016199Y1189904I3098J-0D01*
G01*
Y1204100D02*
G03*
X1013100Y1201002I0J-3098D01*
G01*
X1430846Y771043D02*
G03*
X1433944Y767945I3098J0D01*
G01*
X1441944D02*
G03*
X1445042Y771043I0J3098D01*
G01*
X1434002Y795900D02*
G03*
X1430904Y792802I-0J-3098D01*
G01*
X1445100D02*
G03*
X1442002Y795900I-3098J0D01*
G01*
X1563957Y1050845D02*
G03*
X1567055Y1053944I0J3098D01*
G01*
Y1061943D02*
G03*
X1563957Y1065042I-3098J0D01*
G01*
X1539100Y1054002D02*
G03*
X1542198Y1050903I3098J-0D01*
G01*
Y1065100D02*
G03*
X1539100Y1062002I0J-3098D01*
G01*
X1079957Y1108846D02*
G03*
X1083055Y1111944I0J3098D01*
G01*
Y1119943D02*
G03*
X1079957Y1123042I-3098J0D01*
G01*
X1055100Y1112002D02*
G03*
X1058198Y1108904I3098J-0D01*
G01*
Y1123100D02*
G03*
X1055100Y1120002I0J-3098D01*
G01*
X985957Y1466846D02*
G03*
X989055Y1469944I0J3098D01*
G01*
Y1477944D02*
G03*
X985957Y1481042I-3098J0D01*
G01*
X961100Y1470002D02*
G03*
X964198Y1466904I3098J-0D01*
G01*
Y1481100D02*
G03*
X961100Y1478002I0J-3098D01*
G01*
X1107602Y1415184D02*
G03*
X1105926Y1419232I-2862J1186D01*
G01*
X1098535Y1422294D02*
G03*
X1094486Y1420617I-1186J-2862D01*
G01*
X1095173Y1393428D02*
G03*
X1099222Y1395104I1186J2862D01*
G01*
X1086106Y1400537D02*
G03*
X1087783Y1396489I2862J-1186D01*
G01*
X1478197Y1241615D02*
G03*
X1479874Y1237567I2862J-1186D01*
G01*
X1487265Y1234506D02*
G03*
X1491313Y1236182I1186J2862D01*
G01*
X1490626Y1263372D02*
G03*
X1486578Y1261695I-1186J-2862D01*
G01*
X1499693Y1256262D02*
G03*
X1498017Y1260311I-2862J1186D01*
G01*
X1487904Y1398607D02*
G03*
X1491952Y1396930I2862J1186D01*
G01*
X1499343Y1399991D02*
G03*
X1501020Y1404040I-1185J2863D01*
G01*
X1481308Y1422780D02*
G03*
X1479631Y1418732I1185J-2863D01*
G01*
X1492747Y1424164D02*
G03*
X1488699Y1425841I-2862J-1186D01*
G01*
X1103096Y1260393D02*
G03*
X1099048Y1262070I-2862J-1186D01*
G01*
X1091657Y1259009D02*
G03*
X1089980Y1254960I1185J-2863D01*
G01*
X1109692Y1236220D02*
G03*
X1111369Y1240269I-1185J2863D01*
G01*
X1098253Y1234836D02*
G03*
X1102301Y1233159I2862J1186D01*
G01*
X1248957Y1599846D02*
G03*
X1252055Y1602944I0J3098D01*
G01*
Y1610944D02*
G03*
X1248957Y1614042I-3098J0D01*
G01*
X1224100Y1603002D02*
G03*
X1227198Y1599904I3098J-0D01*
G01*
Y1614100D02*
G03*
X1224100Y1611002I0J-3098D01*
G01*
X1325957Y1611846D02*
G03*
X1329055Y1614944I0J3098D01*
G01*
Y1622944D02*
G03*
X1325957Y1626042I-3098J0D01*
G01*
X1301100Y1615002D02*
G03*
X1304198Y1611904I3098J-0D01*
G01*
Y1626100D02*
G03*
X1301100Y1623002I0J-3098D01*
G01*
X1288957Y1612845D02*
G03*
X1292056Y1615944I0J3098D01*
G01*
Y1623943D02*
G03*
X1288957Y1627042I-3098J0D01*
G01*
X1264100Y1616002D02*
G03*
X1267199Y1612904I3098J-0D01*
G01*
Y1627100D02*
G03*
X1264100Y1624002I0J-3098D01*
G01*
X1389750Y1418750D02*
X1396750Y1411750D01*
X1389750Y1352250D02*
X1396750Y1359250D01*
X1342250Y1411750D02*
X1349250Y1418750D01*
X1342250Y1359250D02*
X1349250Y1352250D01*
X1389750D01*
X1349250Y1418750D02*
X1389750D01*
X1396750Y1359250D02*
Y1411750D01*
X1342250Y1359250D02*
Y1411750D01*
X1518335Y1487300D02*
Y1512700D01*
X1492700D02*
X1518335D01*
X1492700Y1487300D02*
Y1512700D01*
Y1487300D02*
X1594300D01*
Y1512700D01*
X1518335D02*
X1594300D01*
X1578950Y930387D02*
X1604350D01*
X1578950Y904752D02*
Y930387D01*
Y904752D02*
X1604350D01*
Y1006352D01*
X1578950D02*
X1604350D01*
X1578950Y930387D02*
Y1006352D01*
X1565985Y1111300D02*
Y1136700D01*
X1540350D02*
X1565985D01*
X1540350Y1111300D02*
Y1136700D01*
Y1111300D02*
X1641950D01*
Y1136700D01*
X1565985D02*
X1641950D01*
X1565835Y1143550D02*
Y1168950D01*
X1540200D02*
X1565835D01*
X1540200Y1143550D02*
Y1168950D01*
Y1143550D02*
X1641800D01*
Y1168950D01*
X1565835D02*
X1641800D01*
X1566485Y1176550D02*
Y1201950D01*
X1540850D02*
X1566485D01*
X1540850Y1176550D02*
Y1201950D01*
Y1176550D02*
X1642450D01*
Y1201950D01*
X1566485D02*
X1642450D01*
X1551300Y1291915D02*
X1576700D01*
Y1317550D01*
X1551300D02*
X1576700D01*
X1551300Y1215950D02*
Y1317550D01*
Y1215950D02*
X1576700D01*
Y1291915D01*
X1583050Y1291815D02*
X1608450D01*
Y1317450D01*
X1583050D02*
X1608450D01*
X1583050Y1215850D02*
Y1317450D01*
Y1215850D02*
X1608450D01*
Y1291815D01*
X1615300Y1292065D02*
X1640700D01*
Y1317700D01*
X1615300D02*
X1640700D01*
X1615300Y1216100D02*
Y1317700D01*
Y1216100D02*
X1640700D01*
Y1292065D01*
X1552550Y1433365D02*
X1577950D01*
Y1459000D01*
X1552550D02*
X1577950D01*
X1552550Y1357400D02*
Y1459000D01*
Y1357400D02*
X1577950D01*
Y1433365D01*
X1585050Y1433115D02*
X1610450D01*
Y1458750D01*
X1585050D02*
X1610450D01*
X1585050Y1357150D02*
Y1458750D01*
Y1357150D02*
X1610450D01*
Y1433115D01*
X1517535Y1519300D02*
Y1544700D01*
X1491900D02*
X1517535D01*
X1491900Y1519300D02*
Y1544700D01*
Y1519300D02*
X1593500D01*
Y1544700D01*
X1517535D02*
X1593500D01*
X1517885Y1552800D02*
Y1578200D01*
X1492250D02*
X1517885D01*
X1492250Y1552800D02*
Y1578200D01*
Y1552800D02*
X1593850D01*
Y1578200D01*
X1517885D02*
X1593850D01*
X1616800Y1543965D02*
X1642200D01*
Y1569600D01*
X1616800D02*
X1642200D01*
X1616800Y1468000D02*
Y1569600D01*
Y1468000D02*
X1642200D01*
Y1543965D01*
X1616050Y1433565D02*
X1641450D01*
Y1459200D01*
X1616050D02*
X1641450D01*
X1616050Y1357600D02*
Y1459200D01*
Y1357600D02*
X1641450D01*
Y1433565D01*
X1617050Y1652965D02*
X1642450D01*
Y1678600D01*
X1617050D02*
X1642450D01*
X1617050Y1577000D02*
Y1678600D01*
Y1577000D02*
X1642450D01*
Y1652965D01*
X1518035Y1585050D02*
Y1610450D01*
X1492400D02*
X1518035D01*
X1492400Y1585050D02*
Y1610450D01*
Y1585050D02*
X1594000D01*
Y1610450D01*
X1518035D02*
X1594000D01*
X1408335Y1585300D02*
Y1610700D01*
X1382700D02*
X1408335D01*
X1382700Y1585300D02*
Y1610700D01*
Y1585300D02*
X1484300D01*
Y1610700D01*
X1408335D02*
X1484300D01*
X1408035Y1618800D02*
Y1644200D01*
X1382400D02*
X1408035D01*
X1382400Y1618800D02*
Y1644200D01*
Y1618800D02*
X1484000D01*
Y1644200D01*
X1408035D02*
X1484000D01*
X1518385Y1618550D02*
Y1643950D01*
X1492750D02*
X1518385D01*
X1492750Y1618550D02*
Y1643950D01*
Y1618550D02*
X1594350D01*
Y1643950D01*
X1518385D02*
X1594350D01*
X1518085Y1650550D02*
Y1675950D01*
X1492450D02*
X1518085D01*
X1492450Y1650550D02*
Y1675950D01*
Y1650550D02*
X1594050D01*
Y1675950D01*
X1518085D02*
X1594050D01*
X1407385Y1676950D02*
X1483350D01*
Y1651550D02*
Y1676950D01*
X1381750Y1651550D02*
X1483350D01*
X1381750D02*
Y1676950D01*
X1407385D01*
Y1651550D02*
Y1676950D01*
X1189542Y777544D02*
Y785544D01*
X1178444Y774446D02*
X1186444D01*
X1175346Y777544D02*
Y785544D01*
X1189600Y791303D02*
Y799303D01*
X1175404Y791303D02*
Y799303D01*
X1178502Y802400D02*
X1186503D01*
X1151458Y791206D02*
Y799206D01*
X1154556Y802305D02*
X1162556D01*
X1165654Y791206D02*
Y799206D01*
X1151400Y777448D02*
Y785447D01*
X1165596Y777448D02*
Y785447D01*
X1154498Y774350D02*
X1162498D01*
X1509720Y851858D02*
Y990542D01*
X1498389Y851858D02*
X1509720D01*
X1472989D02*
X1480412D01*
X1447589D02*
X1455012D01*
X1422189D02*
X1429612D01*
X1396789D02*
X1404212D01*
X1371389D02*
X1378812D01*
X1345989D02*
X1353412D01*
X1320589D02*
X1328012D01*
X1295189D02*
X1302612D01*
X1269789D02*
X1277212D01*
X1244389D02*
X1251812D01*
X1218989D02*
X1226412D01*
X1193589D02*
X1201012D01*
X1168189D02*
X1175612D01*
X1142789D02*
X1150212D01*
X1117389D02*
X1124812D01*
X1091989D02*
X1099412D01*
X1066589D02*
X1074012D01*
X1041189D02*
X1048612D01*
X1018112D02*
X1023212D01*
X986480D02*
X995489D01*
X1498389Y990542D02*
X1509720D01*
X1472989D02*
X1480412D01*
X1447589D02*
X1455012D01*
X1422189D02*
X1429612D01*
X1396789D02*
X1404212D01*
X1371389D02*
X1378812D01*
X1345989D02*
X1353412D01*
X1320589D02*
X1328012D01*
X1295189D02*
X1302612D01*
X1269789D02*
X1277212D01*
X1244389D02*
X1251812D01*
X1218989D02*
X1226412D01*
X1193589D02*
X1201012D01*
X1168189D02*
X1175612D01*
X1142789D02*
X1150212D01*
X1117389D02*
X1124812D01*
X1091989D02*
X1099412D01*
X1066589D02*
X1074012D01*
X1041189D02*
X1048612D01*
X1015789D02*
X1023212D01*
X986480D02*
X997812D01*
X986480Y930090D02*
Y990542D01*
Y851858D02*
Y912310D01*
X1140700Y725900D02*
Y801865D01*
X1115300Y725900D02*
X1140700D01*
X1115300D02*
Y827500D01*
X1140700D01*
Y801865D02*
Y827500D01*
X1115300Y801865D02*
X1140700D01*
X1288958Y1057956D02*
Y1065956D01*
X1292056Y1069054D02*
X1300056D01*
X1303154Y1057956D02*
Y1065956D01*
X1288900Y1044198D02*
Y1052197D01*
X1303096Y1044198D02*
Y1052197D01*
X1291997Y1041100D02*
X1299997D01*
X1332689Y1074889D02*
X1340309D01*
X1350469Y1061775D02*
Y1070223D01*
X1321259Y1059014D02*
X1321259Y1072984D01*
X987120Y1099956D02*
Y1107956D01*
X990219Y1111054D02*
X998218D01*
X1001316Y1099956D02*
Y1107956D01*
X987062Y1086198D02*
Y1094197D01*
X1001258Y1086198D02*
Y1094197D01*
X990160Y1083100D02*
X998159D01*
X964120Y1099957D02*
Y1107957D01*
X967219Y1111055D02*
X975218D01*
X978317Y1099957D02*
Y1107957D01*
X964062Y1086198D02*
Y1094197D01*
X978259Y1086198D02*
Y1094197D01*
X967160Y1083100D02*
X975160D01*
X954204Y1086131D02*
Y1094131D01*
X943106Y1083033D02*
X951106D01*
X940008Y1086131D02*
Y1094131D01*
X954263Y1099890D02*
Y1107890D01*
X940066Y1099890D02*
Y1107890D01*
X943165Y1110987D02*
X951165D01*
X1011120Y1099957D02*
Y1107957D01*
X1014218Y1111055D02*
X1022218D01*
X1025316Y1099957D02*
Y1107957D01*
X1011061Y1086198D02*
Y1094197D01*
X1025258Y1086198D02*
Y1094197D01*
X1014159Y1083100D02*
X1022160D01*
X987958Y1199957D02*
Y1207956D01*
X991057Y1211055D02*
X999056D01*
X1002154Y1199957D02*
Y1207956D01*
X987900Y1186198D02*
Y1194197D01*
X1002096Y1186198D02*
Y1194197D01*
X990998Y1183100D02*
X998998D01*
X1543497Y857100D02*
X1551498D01*
X1554596Y860198D02*
Y868198D01*
X1540400Y860198D02*
Y868198D01*
X1554655Y873957D02*
Y881957D01*
X1543556Y885055D02*
X1551556D01*
X1540459Y873957D02*
Y881957D01*
X1572997Y856350D02*
X1580998D01*
X1584096Y859448D02*
Y867448D01*
X1569900Y859448D02*
Y867448D01*
X1584155Y873207D02*
Y881207D01*
X1573056Y884305D02*
X1581056D01*
X1569959Y873207D02*
Y881207D01*
X1216526Y1312099D02*
X1224526D01*
X1227625Y1315197D02*
Y1323197D01*
X1213428Y1315197D02*
Y1323197D01*
X1227683Y1328956D02*
Y1336956D01*
X1216585Y1340054D02*
X1224584D01*
X1213486Y1328956D02*
Y1336956D01*
X1055099Y1086002D02*
Y1094002D01*
X1058197Y1082904D02*
X1066197D01*
X1058197Y1097100D02*
X1066197D01*
X1071956Y1082845D02*
X1079956D01*
X1083054Y1085944D02*
Y1093943D01*
X1071956Y1097041D02*
X1079956D01*
X1055100Y1137003D02*
Y1145003D01*
X1058198Y1133904D02*
X1066198D01*
X1058198Y1148101D02*
X1066198D01*
X1071957Y1133846D02*
X1079957D01*
X1083055Y1136944D02*
Y1144944D01*
X1071957Y1148042D02*
X1079957D01*
X1055100Y1163002D02*
Y1171003D01*
X1058197Y1159904D02*
X1066197D01*
X1058197Y1174101D02*
X1066197D01*
X1071956Y1159846D02*
X1079956D01*
X1083055Y1162944D02*
Y1170944D01*
X1071956Y1174042D02*
X1079956D01*
X1224311Y1127982D02*
X1227372Y1135374D01*
X1218305Y1142484D02*
X1225696Y1139422D01*
X1212872Y1129368D02*
X1220263Y1126306D01*
X1205616Y1147803D02*
X1213007Y1144741D01*
X1198506Y1138735D02*
X1201567Y1146126D01*
X1200183Y1134687D02*
X1207574Y1131625D01*
X1196626Y1518378D02*
X1199688Y1510988D01*
X1203736Y1509310D02*
X1211126Y1512371D01*
X1198303Y1522426D02*
X1205694Y1525487D01*
X1216469Y1514521D02*
X1223860Y1517583D01*
X1222476Y1529022D02*
X1225537Y1521631D01*
X1211036Y1527637D02*
X1218427Y1530699D01*
X1306711Y1652000D02*
X1306788D01*
X1294011D02*
X1294088D01*
X1281311D02*
X1281388D01*
X1319411D02*
X1328050D01*
Y1675500D01*
X1260050D02*
X1328050D01*
X1260050Y1652000D02*
Y1675500D01*
Y1652000D02*
X1268688D01*
X1322750Y1670200D02*
X1328050Y1675500D01*
X1265450Y1670200D02*
X1322750D01*
X1260150Y1675500D02*
X1265450Y1670200D01*
X1260050Y1675500D02*
X1260150D01*
X1053997Y1498100D02*
X1061997D01*
X1065096Y1501198D02*
Y1509197D01*
X1050900Y1501198D02*
Y1509197D01*
X1065154Y1514957D02*
Y1522957D01*
X1054056Y1526055D02*
X1062056D01*
X1050958Y1514957D02*
Y1522957D01*
X1078043Y1524581D02*
X1086042D01*
X1074944Y1513483D02*
Y1521483D01*
X1089140Y1513483D02*
Y1521483D01*
X1074886Y1499724D02*
Y1507724D01*
X1077984Y1496626D02*
X1085984D01*
X1089082Y1499724D02*
Y1507724D01*
X1000100Y1524002D02*
Y1532003D01*
X1003198Y1520904D02*
X1011197D01*
X1003198Y1535100D02*
X1011197D01*
X1016957Y1520845D02*
X1024957D01*
X1028055Y1523944D02*
Y1531944D01*
X1016957Y1535041D02*
X1024957D01*
X961202Y1646501D02*
X969202D01*
X958104Y1635403D02*
Y1643403D01*
X972300Y1635403D02*
Y1643403D01*
X958046Y1621644D02*
Y1629644D01*
X961144Y1618546D02*
X969144D01*
X972242Y1621644D02*
Y1629644D01*
X951300Y1525083D02*
Y1533082D01*
X954398Y1521984D02*
X962397D01*
X954398Y1536180D02*
X962397D01*
X968157Y1521926D02*
X976156D01*
X979255Y1525024D02*
Y1533024D01*
X968157Y1536122D02*
X976156D01*
X991682Y1646500D02*
X999682D01*
X988584Y1635403D02*
Y1643402D01*
X1002780Y1635403D02*
Y1643402D01*
X988525Y1621644D02*
Y1629644D01*
X991624Y1618545D02*
X999624D01*
X1002721Y1621644D02*
Y1629644D01*
X991682Y1609020D02*
X999682D01*
X988584Y1597923D02*
Y1605922D01*
X1002780Y1597923D02*
Y1605922D01*
X988525Y1584164D02*
Y1592163D01*
X991624Y1581065D02*
X999624D01*
X1002721Y1584164D02*
Y1592163D01*
X961202Y1609020D02*
X969202D01*
X958104Y1597923D02*
Y1605923D01*
X972300Y1597923D02*
Y1605923D01*
X958045Y1584164D02*
Y1592164D01*
X961144Y1581066D02*
X969144D01*
X972241Y1584164D02*
Y1592164D01*
X1050220Y1586037D02*
Y1594037D01*
X1039123Y1597136D02*
X1047123D01*
X1039123Y1582940D02*
X1047123D01*
X1025364Y1597194D02*
X1033364D01*
X1022266Y1586096D02*
Y1594096D01*
X1025364Y1582998D02*
X1033364D01*
X1041313Y751790D02*
X1043211D01*
X1021313D02*
X1026688D01*
X1001313D02*
X1006688D01*
X984790Y810210D02*
X986688D01*
X984790Y751790D02*
Y810210D01*
Y751790D02*
X986688D01*
X1001313Y810210D02*
X1006688D01*
X1021313D02*
X1026688D01*
X1043211Y751790D02*
Y810210D01*
X1041313D02*
X1043211D01*
X1000031Y792429D02*
X1027971D01*
X1000031Y770839D02*
Y792429D01*
Y770839D02*
X1027971D01*
Y792429D01*
X1382313Y1144012D02*
X1385374Y1136622D01*
X1370874Y1142629D02*
X1378264Y1145690D01*
X1376307Y1129513D02*
X1383698Y1132574D01*
X1358140Y1137417D02*
X1365531Y1140479D01*
X1356463Y1133369D02*
X1359524Y1125978D01*
X1363572Y1124302D02*
X1370963Y1127363D01*
X1359161Y1525306D02*
X1362222Y1532697D01*
X1360837Y1521257D02*
X1368228Y1518196D01*
X1366270Y1534373D02*
X1373660Y1531311D01*
X1373526Y1515938D02*
X1380917Y1512876D01*
X1384966Y1514553D02*
X1388026Y1521944D01*
X1378959Y1529054D02*
X1386350Y1525992D01*
X1241998Y774100D02*
X1249997D01*
X1253096Y777198D02*
Y785197D01*
X1238900Y777198D02*
Y785197D01*
X1253154Y790956D02*
Y798957D01*
X1242056Y802055D02*
X1250056D01*
X1238958Y790956D02*
Y798957D01*
X1055099Y1190003D02*
Y1198003D01*
X1058197Y1186904D02*
X1066197D01*
X1058197Y1201100D02*
X1066197D01*
X1071956Y1186846D02*
X1079956D01*
X1083054Y1189944D02*
Y1197944D01*
X1071956Y1201042D02*
X1079956D01*
X1239997Y1311100D02*
X1247998D01*
X1251096Y1314198D02*
Y1322198D01*
X1236900Y1314198D02*
Y1322198D01*
X1251155Y1327956D02*
Y1335956D01*
X1240056Y1339055D02*
X1248056D01*
X1236959Y1327956D02*
Y1335956D01*
X997100Y1471002D02*
Y1479002D01*
X1000198Y1467904D02*
X1008198D01*
X1000198Y1482100D02*
X1008198D01*
X1013956Y1467845D02*
X1021956D01*
X1025055Y1470943D02*
Y1478943D01*
X1013956Y1482041D02*
X1021956D01*
X1346998Y1308100D02*
X1354998D01*
X1358096Y1311198D02*
Y1319198D01*
X1343900Y1311198D02*
Y1319198D01*
X1358154Y1324957D02*
Y1332956D01*
X1347056Y1336055D02*
X1355056D01*
X1343958Y1324957D02*
Y1332956D01*
X1013100Y1193002D02*
Y1201002D01*
X1016198Y1189904D02*
X1024198D01*
X1016198Y1204100D02*
X1024198D01*
X1029957Y1189846D02*
X1037957D01*
X1041055Y1192944D02*
Y1200944D01*
X1029957Y1204042D02*
X1037957D01*
X1434002Y795900D02*
X1442003D01*
X1430904Y784803D02*
Y792803D01*
X1445101Y784803D02*
Y792803D01*
X1430845Y771044D02*
Y779044D01*
X1433944Y767946D02*
X1441944D01*
X1445042Y771044D02*
Y779044D01*
X1539100Y1054002D02*
Y1062002D01*
X1542198Y1050904D02*
X1550197D01*
X1542198Y1065100D02*
X1550197D01*
X1555956Y1050845D02*
X1563956D01*
X1567055Y1053944D02*
Y1061944D01*
X1555956Y1065041D02*
X1563956D01*
X1055100Y1112002D02*
Y1120002D01*
X1058197Y1108904D02*
X1066197D01*
X1058197Y1123100D02*
X1066197D01*
X1071956Y1108846D02*
X1079956D01*
X1083055Y1111944D02*
Y1119943D01*
X1071956Y1123042D02*
X1079956D01*
X961100Y1470003D02*
Y1478003D01*
X964198Y1466904D02*
X972197D01*
X964198Y1481100D02*
X972197D01*
X977956Y1466846D02*
X985956D01*
X989055Y1469944D02*
Y1477944D01*
X977956Y1481042D02*
X985956D01*
X1087782Y1396490D02*
X1095173Y1393427D01*
X1099222Y1395104D02*
X1102283Y1402495D01*
X1086105Y1400537D02*
X1089167Y1407927D01*
X1104541Y1407793D02*
X1107603Y1415184D01*
X1098534Y1422293D02*
X1105925Y1419232D01*
X1091425Y1413226D02*
X1094487Y1420617D01*
X1490626Y1263372D02*
X1498017Y1260310D01*
X1483517Y1254305D02*
X1486578Y1261696D01*
X1496633Y1248872D02*
X1499694Y1256263D01*
X1478197Y1241616D02*
X1481259Y1249007D01*
X1479874Y1237567D02*
X1487265Y1234506D01*
X1491313Y1236183D02*
X1494374Y1243574D01*
X1481308Y1422780D02*
X1488700Y1425841D01*
X1479631Y1418732D02*
X1482693Y1411341D01*
X1492747Y1424165D02*
X1495809Y1416774D01*
X1484842Y1405998D02*
X1487904Y1398607D01*
X1491952Y1396930D02*
X1499343Y1399992D01*
X1497958Y1411431D02*
X1501020Y1404040D01*
X1102301Y1233159D02*
X1109692Y1236220D01*
X1108308Y1247659D02*
X1111369Y1240268D01*
X1095192Y1242226D02*
X1098253Y1234835D01*
X1103096Y1260393D02*
X1106157Y1253002D01*
X1091657Y1259008D02*
X1099048Y1262070D01*
X1089980Y1254960D02*
X1093042Y1247569D01*
X1224100Y1603002D02*
Y1611003D01*
X1227198Y1599904D02*
X1235197D01*
X1227198Y1614100D02*
X1235197D01*
X1240957Y1599845D02*
X1248957D01*
X1252055Y1602944D02*
Y1610944D01*
X1240957Y1614041D02*
X1248957D01*
X1301100Y1615002D02*
Y1623003D01*
X1304198Y1611904D02*
X1312198D01*
X1304198Y1626100D02*
X1312198D01*
X1317957Y1611845D02*
X1325957D01*
X1329055Y1614944D02*
Y1622944D01*
X1317957Y1626042D02*
X1325957D01*
X1264101Y1616002D02*
Y1624002D01*
X1267198Y1612904D02*
X1275198D01*
X1267198Y1627100D02*
X1275198D01*
X1280957Y1612845D02*
X1288957D01*
X1292055Y1615943D02*
Y1623943D01*
X1280957Y1627041D02*
X1288957D01*
X1504843Y822617D02*
X1515000Y807383D01*
Y822617D02*
X1504843Y807383D01*
X1520078D02*
X1525157D01*
X1522618D01*
Y822617D01*
X1520078Y820078D01*
X1157343Y757078D02*
X1154804Y759617D01*
X1149726D01*
X1147187Y757078D01*
Y746922D01*
X1149726Y744382D01*
X1154804D01*
X1157343Y746922D01*
X1172578Y744382D02*
X1162422D01*
X1172578Y754539D01*
Y757078D01*
X1170039Y759617D01*
X1164961D01*
X1162422Y757078D01*
X1187813Y759617D02*
X1177657D01*
Y752000D01*
X1182735Y754539D01*
X1185274D01*
X1187813Y752000D01*
Y746922D01*
X1185274Y744382D01*
X1180196D01*
X1177657Y746922D01*
X1476251Y1509582D02*
X1484249D01*
Y1505583D01*
X1482916Y1504250D01*
X1480250D01*
X1478917Y1505583D01*
Y1509582D01*
X1476251Y1501584D02*
Y1498918D01*
Y1500251D01*
X1484249D01*
X1482916Y1501584D01*
X1581003Y1016251D02*
Y1024249D01*
X1585002D01*
X1586335Y1022916D01*
Y1020250D01*
X1585002Y1018917D01*
X1581003D01*
X1589001Y1016251D02*
X1591666D01*
X1590334D01*
Y1024249D01*
X1589001Y1022916D01*
X1599664Y1016251D02*
Y1024249D01*
X1595665Y1020250D01*
X1600997D01*
X1514253Y1123251D02*
Y1131249D01*
X1518252D01*
X1519585Y1129916D01*
Y1127250D01*
X1518252Y1125917D01*
X1514253D01*
X1522251Y1123251D02*
X1524917D01*
X1523584D01*
Y1131249D01*
X1522251Y1129916D01*
X1534247Y1131249D02*
X1528915D01*
Y1127250D01*
X1531581Y1128583D01*
X1532914D01*
X1534247Y1127250D01*
Y1124584D01*
X1532914Y1123251D01*
X1530248D01*
X1528915Y1124584D01*
X1512253Y1155001D02*
Y1162999D01*
X1516252D01*
X1517585Y1161666D01*
Y1159000D01*
X1516252Y1157667D01*
X1512253D01*
X1520251Y1155001D02*
X1522916D01*
X1521584D01*
Y1162999D01*
X1520251Y1161666D01*
X1526915D02*
X1528248Y1162999D01*
X1530914D01*
X1532247Y1161666D01*
Y1160333D01*
X1530914Y1159000D01*
X1529581D01*
X1530914D01*
X1532247Y1157667D01*
Y1156334D01*
X1530914Y1155001D01*
X1528248D01*
X1526915Y1156334D01*
X1512003Y1186501D02*
Y1194499D01*
X1516002D01*
X1517335Y1193166D01*
Y1190500D01*
X1516002Y1189167D01*
X1512003D01*
X1520001Y1186501D02*
X1522666D01*
X1521334D01*
Y1194499D01*
X1520001Y1193166D01*
X1531997Y1194499D02*
X1529331Y1193166D01*
X1526665Y1190500D01*
Y1187834D01*
X1527998Y1186501D01*
X1530664D01*
X1531997Y1187834D01*
Y1189167D01*
X1530664Y1190500D01*
X1526665D01*
X1573997Y1333249D02*
Y1325251D01*
X1569998D01*
X1568665Y1326584D01*
Y1329250D01*
X1569998Y1330583D01*
X1573997D01*
X1565999Y1333249D02*
X1563333D01*
X1564666D01*
Y1325251D01*
X1565999Y1326584D01*
X1559335Y1325251D02*
X1554003D01*
Y1326584D01*
X1559335Y1331916D01*
Y1333249D01*
X1605747D02*
Y1325251D01*
X1601748D01*
X1600415Y1326584D01*
Y1329250D01*
X1601748Y1330583D01*
X1605747D01*
X1597749Y1333249D02*
X1595083D01*
X1596416D01*
Y1325251D01*
X1597749Y1326584D01*
X1591085D02*
X1589752Y1325251D01*
X1587086D01*
X1585753Y1326584D01*
Y1327917D01*
X1587086Y1329250D01*
X1585753Y1330583D01*
Y1331916D01*
X1587086Y1333249D01*
X1589752D01*
X1591085Y1331916D01*
Y1330583D01*
X1589752Y1329250D01*
X1591085Y1327917D01*
Y1326584D01*
X1589752Y1329250D02*
X1587086D01*
X1637747Y1332749D02*
Y1324751D01*
X1633748D01*
X1632415Y1326084D01*
Y1328750D01*
X1633748Y1330083D01*
X1637747D01*
X1629749Y1332749D02*
X1627084D01*
X1628416D01*
Y1324751D01*
X1629749Y1326084D01*
X1623085Y1331416D02*
X1621752Y1332749D01*
X1619086D01*
X1617753Y1331416D01*
Y1326084D01*
X1619086Y1324751D01*
X1621752D01*
X1623085Y1326084D01*
Y1327417D01*
X1621752Y1328750D01*
X1617753D01*
X1552837Y1341701D02*
Y1349699D01*
X1556835D01*
X1558168Y1348366D01*
Y1345700D01*
X1556835Y1344367D01*
X1552837D01*
X1566166Y1341701D02*
X1560834D01*
X1566166Y1347033D01*
Y1348366D01*
X1564833Y1349699D01*
X1562167D01*
X1560834Y1348366D01*
X1568832D02*
X1570164Y1349699D01*
X1572830D01*
X1574163Y1348366D01*
Y1343034D01*
X1572830Y1341701D01*
X1570164D01*
X1568832Y1343034D01*
Y1348366D01*
X1589170Y1341851D02*
Y1349849D01*
X1593168D01*
X1594501Y1348516D01*
Y1345850D01*
X1593168Y1344517D01*
X1589170D01*
X1602499Y1341851D02*
X1597167D01*
X1602499Y1347183D01*
Y1348516D01*
X1601166Y1349849D01*
X1598500D01*
X1597167Y1348516D01*
X1605164Y1341851D02*
X1607830D01*
X1606497D01*
Y1349849D01*
X1605164Y1348516D01*
X1477751Y1542415D02*
X1485749D01*
Y1538416D01*
X1484416Y1537083D01*
X1481750D01*
X1480417Y1538416D01*
Y1542415D01*
X1477751Y1529086D02*
Y1534417D01*
X1483083Y1529086D01*
X1484416D01*
X1485749Y1530418D01*
Y1533084D01*
X1484416Y1534417D01*
X1478751Y1573165D02*
X1486749D01*
Y1569166D01*
X1485416Y1567833D01*
X1482750D01*
X1481417Y1569166D01*
Y1573165D01*
X1485416Y1565167D02*
X1486749Y1563834D01*
Y1561168D01*
X1485416Y1559836D01*
X1484083D01*
X1482750Y1561168D01*
Y1562501D01*
Y1561168D01*
X1481417Y1559836D01*
X1480084D01*
X1478751Y1561168D01*
Y1563834D01*
X1480084Y1565167D01*
X1610249Y1552585D02*
X1602251D01*
Y1556584D01*
X1603584Y1557917D01*
X1606250D01*
X1607583Y1556584D01*
Y1552585D01*
X1602251Y1565914D02*
Y1560583D01*
X1606250D01*
X1604917Y1563249D01*
Y1564582D01*
X1606250Y1565914D01*
X1608916D01*
X1610249Y1564582D01*
Y1561916D01*
X1608916Y1560583D01*
X1621586Y1343001D02*
Y1350999D01*
X1625584D01*
X1626917Y1349666D01*
Y1347000D01*
X1625584Y1345667D01*
X1621586D01*
X1633582Y1343001D02*
Y1350999D01*
X1629583Y1347000D01*
X1634915D01*
X1609749Y1575836D02*
X1601751D01*
Y1579834D01*
X1603084Y1581167D01*
X1605750D01*
X1607083Y1579834D01*
Y1575836D01*
X1601751Y1589164D02*
X1603084Y1586499D01*
X1605750Y1583833D01*
X1608416D01*
X1609749Y1585166D01*
Y1587832D01*
X1608416Y1589164D01*
X1607083D01*
X1605750Y1587832D01*
Y1583833D01*
X1600251Y1609915D02*
X1608249D01*
Y1605916D01*
X1606916Y1604583D01*
X1604250D01*
X1602917Y1605916D01*
Y1609915D01*
X1608249Y1601917D02*
Y1596586D01*
X1606916D01*
X1601584Y1601917D01*
X1600251D01*
X1366751Y1598665D02*
X1374749D01*
Y1594666D01*
X1373416Y1593333D01*
X1370750D01*
X1369417Y1594666D01*
Y1598665D01*
X1373416Y1590667D02*
X1374749Y1589334D01*
Y1586668D01*
X1373416Y1585336D01*
X1372083D01*
X1370750Y1586668D01*
X1369417Y1585336D01*
X1368084D01*
X1366751Y1586668D01*
Y1589334D01*
X1368084Y1590667D01*
X1369417D01*
X1370750Y1589334D01*
X1372083Y1590667D01*
X1373416D01*
X1370750Y1589334D02*
Y1586668D01*
X1367501Y1625997D02*
X1375499D01*
Y1621998D01*
X1374166Y1620665D01*
X1371500D01*
X1370167Y1621998D01*
Y1625997D01*
X1367501Y1617999D02*
Y1615334D01*
Y1616666D01*
X1375499D01*
X1374166Y1617999D01*
Y1611335D02*
X1375499Y1610002D01*
Y1607336D01*
X1374166Y1606003D01*
X1368834D01*
X1367501Y1607336D01*
Y1610002D01*
X1368834Y1611335D01*
X1374166D01*
X1600001Y1642415D02*
X1607999D01*
Y1638416D01*
X1606666Y1637083D01*
X1604000D01*
X1602667Y1638416D01*
Y1642415D01*
X1601334Y1634417D02*
X1600001Y1633084D01*
Y1630418D01*
X1601334Y1629086D01*
X1606666D01*
X1607999Y1630418D01*
Y1633084D01*
X1606666Y1634417D01*
X1605333D01*
X1604000Y1633084D01*
Y1629086D01*
X1600001Y1672414D02*
X1607999D01*
Y1668415D01*
X1606666Y1667082D01*
X1604000D01*
X1602667Y1668415D01*
Y1672414D01*
X1600001Y1664417D02*
Y1661751D01*
Y1663083D01*
X1607999D01*
X1606666Y1664417D01*
X1600001Y1657752D02*
Y1655086D01*
Y1656419D01*
X1607999D01*
X1606666Y1657752D01*
X1367751Y1677997D02*
X1375749D01*
Y1673998D01*
X1374416Y1672665D01*
X1371750D01*
X1370417Y1673998D01*
Y1677997D01*
X1367751Y1669999D02*
Y1667334D01*
Y1668666D01*
X1375749D01*
X1374416Y1669999D01*
X1367751Y1658003D02*
Y1663335D01*
X1373083Y1658003D01*
X1374416D01*
X1375749Y1659336D01*
Y1662002D01*
X1374416Y1663335D01*
X1176528Y811276D02*
Y826511D01*
X1184146D01*
X1186685Y823972D01*
Y818894D01*
X1184146Y816354D01*
X1176528D01*
X1181606D02*
X1186685Y811276D01*
X1191763D02*
X1196841D01*
X1194302D01*
Y826511D01*
X1191763Y823972D01*
X1204459Y813815D02*
X1206998Y811276D01*
X1212076D01*
X1214616Y813815D01*
Y823972D01*
X1212076Y826511D01*
X1206998D01*
X1204459Y823972D01*
Y821433D01*
X1206998Y818894D01*
X1214616D01*
X953388Y746419D02*
X968623D01*
Y756576D01*
X953388Y761654D02*
Y766732D01*
Y764193D01*
X968623D01*
Y761654D01*
Y766732D01*
Y774350D02*
X953388D01*
X968623Y784507D01*
X953388D01*
Y789585D02*
X968623D01*
X963544D01*
X953388Y799742D01*
X961005Y792124D01*
X968623Y799742D01*
Y804820D02*
Y809899D01*
Y807359D01*
X953388D01*
X955927Y804820D01*
X1044069Y1384617D02*
Y1369382D01*
X1054226D01*
X1069461Y1384617D02*
X1059304D01*
Y1369382D01*
X1069461D01*
X1059304Y1377000D02*
X1064382D01*
X1074539Y1384617D02*
Y1369382D01*
X1082157D01*
X1084696Y1371922D01*
Y1382078D01*
X1082157Y1384617D01*
X1074539D01*
X1099931D02*
X1094853Y1382078D01*
X1089774Y1377000D01*
Y1371922D01*
X1092313Y1369382D01*
X1097392D01*
X1099931Y1371922D01*
Y1374461D01*
X1097392Y1377000D01*
X1089774D01*
X1355956Y1064976D02*
Y1052281D01*
X1358495Y1049741D01*
X1363574D01*
X1366113Y1052281D01*
Y1064976D01*
X1371191Y1049741D02*
X1376270D01*
X1373730D01*
Y1064976D01*
X1371191Y1062437D01*
X1383887D02*
X1386426Y1064976D01*
X1391505D01*
X1394044Y1062437D01*
Y1052281D01*
X1391505Y1049741D01*
X1386426D01*
X1383887Y1052281D01*
Y1062437D01*
X1328001Y752617D02*
Y739922D01*
X1330540Y737383D01*
X1335619D01*
X1338158Y739922D01*
Y752617D01*
X1343236Y739922D02*
X1345775Y737383D01*
X1350854D01*
X1353393Y739922D01*
Y750078D01*
X1350854Y752617D01*
X1345775D01*
X1343236Y750078D01*
Y747539D01*
X1345775Y745000D01*
X1353393D01*
X1085054Y782868D02*
Y770172D01*
X1087593Y767633D01*
X1092672D01*
X1095211Y770172D01*
Y782868D01*
X1100289D02*
X1110446D01*
Y780328D01*
X1100289Y770172D01*
Y767633D01*
X1223304Y1670618D02*
Y1657922D01*
X1225843Y1655383D01*
X1230922D01*
X1233461Y1657922D01*
Y1670618D01*
X1248696D02*
X1243617Y1668078D01*
X1238539Y1663000D01*
Y1657922D01*
X1241078Y1655383D01*
X1246157D01*
X1248696Y1657922D01*
Y1660461D01*
X1246157Y1663000D01*
X1238539D01*
X1253304Y1386617D02*
Y1373922D01*
X1255843Y1371382D01*
X1260922D01*
X1263461Y1373922D01*
Y1386617D01*
X1276157Y1371382D02*
Y1386617D01*
X1268539Y1379000D01*
X1278696D01*
X1066292Y1672839D02*
Y1660143D01*
X1068831Y1657604D01*
X1073910D01*
X1076449Y1660143D01*
Y1672839D01*
X1081527Y1670300D02*
X1084066Y1672839D01*
X1089145D01*
X1091684Y1670300D01*
Y1667761D01*
X1089145Y1665222D01*
X1086605D01*
X1089145D01*
X1091684Y1662682D01*
Y1660143D01*
X1089145Y1657604D01*
X1084066D01*
X1081527Y1660143D01*
X1019304Y1128617D02*
Y1115922D01*
X1021843Y1113382D01*
X1026922D01*
X1029461Y1115922D01*
Y1128617D01*
X1044696Y1113382D02*
X1034539D01*
X1044696Y1123539D01*
Y1126078D01*
X1042157Y1128617D01*
X1037078D01*
X1034539Y1126078D01*
X987806Y1030219D02*
Y1017523D01*
X990345Y1014984D01*
X995424D01*
X997963Y1017523D01*
Y1030219D01*
X1003041Y1014984D02*
X1008119D01*
X1005580D01*
Y1030219D01*
X1003041Y1027680D01*
X1062000Y802078D02*
X1059461Y804617D01*
X1054382D01*
X1051843Y802078D01*
Y799539D01*
X1054382Y797000D01*
X1059461D01*
X1062000Y794461D01*
Y791922D01*
X1059461Y789382D01*
X1054382D01*
X1051843Y791922D01*
X1067078Y789382D02*
X1072157D01*
X1069618D01*
Y804617D01*
X1067078Y802078D01*
X1091956Y1186383D02*
Y1201618D01*
X1099574D01*
X1102113Y1199078D01*
Y1194000D01*
X1099574Y1191461D01*
X1091956D01*
X1097035D02*
X1102113Y1186383D01*
X1107191D02*
X1112270D01*
X1109731D01*
Y1201618D01*
X1107191Y1199078D01*
X1119887D02*
X1122427Y1201618D01*
X1127505D01*
X1130044Y1199078D01*
Y1196539D01*
X1127505Y1194000D01*
X1130044Y1191461D01*
Y1188922D01*
X1127505Y1186383D01*
X1122427D01*
X1119887Y1188922D01*
Y1191461D01*
X1122427Y1194000D01*
X1119887Y1196539D01*
Y1199078D01*
X1122427Y1194000D02*
X1127505D01*
X1093956Y1159382D02*
Y1174618D01*
X1101574D01*
X1104113Y1172078D01*
Y1167000D01*
X1101574Y1164461D01*
X1093956D01*
X1099035D02*
X1104113Y1159382D01*
X1109191D02*
X1114270D01*
X1111730D01*
Y1174618D01*
X1109191Y1172078D01*
X1121887Y1174618D02*
X1132044D01*
Y1172078D01*
X1121887Y1161922D01*
Y1159382D01*
X1091956Y1108382D02*
Y1123617D01*
X1099574D01*
X1102113Y1121078D01*
Y1116000D01*
X1099574Y1113461D01*
X1091956D01*
X1097035D02*
X1102113Y1108382D01*
X1107191D02*
X1112270D01*
X1109730D01*
Y1123617D01*
X1107191Y1121078D01*
X1130044Y1123617D02*
X1119887D01*
Y1116000D01*
X1124966Y1118539D01*
X1127505D01*
X1130044Y1116000D01*
Y1110921D01*
X1127505Y1108382D01*
X1122426D01*
X1119887Y1110921D01*
X1093956Y1085382D02*
Y1100617D01*
X1101573D01*
X1104113Y1098078D01*
Y1093000D01*
X1101573Y1090461D01*
X1093956D01*
X1099034D02*
X1104113Y1085382D01*
X1109191D02*
X1114269D01*
X1111730D01*
Y1100617D01*
X1109191Y1098078D01*
X1129504Y1085382D02*
Y1100617D01*
X1121887Y1093000D01*
X1132044D01*
X952780Y1038044D02*
X937545D01*
Y1045662D01*
X940084Y1048201D01*
X945162D01*
X947702Y1045662D01*
Y1038044D01*
Y1043122D02*
X952780Y1048201D01*
Y1053279D02*
Y1058357D01*
Y1055818D01*
X937545D01*
X940084Y1053279D01*
Y1065975D02*
X937545Y1068514D01*
Y1073593D01*
X940084Y1076132D01*
X942623D01*
X945162Y1073593D01*
Y1071053D01*
Y1073593D01*
X947702Y1076132D01*
X950241D01*
X952780Y1073593D01*
Y1068514D01*
X950241Y1065975D01*
X1329206Y1630883D02*
Y1646118D01*
X1336824D01*
X1339363Y1643578D01*
Y1638500D01*
X1336824Y1635961D01*
X1329206D01*
X1334285D02*
X1339363Y1630883D01*
X1344441D02*
X1349520D01*
X1346980D01*
Y1646118D01*
X1344441Y1643578D01*
X1367294Y1630883D02*
X1357137D01*
X1367294Y1641039D01*
Y1643578D01*
X1364755Y1646118D01*
X1359676D01*
X1357137Y1643578D01*
X1225495Y1629382D02*
Y1644617D01*
X1233113D01*
X1235652Y1642078D01*
Y1637000D01*
X1233113Y1634461D01*
X1225495D01*
X1230574D02*
X1235652Y1629382D01*
X1240730D02*
X1245809D01*
X1243270D01*
Y1644617D01*
X1240730Y1642078D01*
X1253426Y1629382D02*
X1258505D01*
X1255965D01*
Y1644617D01*
X1253426Y1642078D01*
X1000304Y1498383D02*
Y1513618D01*
X1007922D01*
X1010461Y1511078D01*
Y1506000D01*
X1007922Y1503461D01*
X1000304D01*
X1005383D02*
X1010461Y1498383D01*
X1025696Y1513618D02*
X1020618Y1511078D01*
X1015539Y1506000D01*
Y1500922D01*
X1018078Y1498383D01*
X1023157D01*
X1025696Y1500922D01*
Y1503461D01*
X1023157Y1506000D01*
X1015539D01*
X954424Y1496062D02*
Y1511297D01*
X962042D01*
X964581Y1508758D01*
Y1503680D01*
X962042Y1501141D01*
X954424D01*
X959502D02*
X964581Y1496062D01*
X979816Y1511297D02*
X969659D01*
Y1503680D01*
X974738Y1506219D01*
X977277D01*
X979816Y1503680D01*
Y1498602D01*
X977277Y1496062D01*
X972198D01*
X969659Y1498602D01*
X962584Y1445703D02*
Y1460938D01*
X970202D01*
X972741Y1458398D01*
Y1453320D01*
X970202Y1450781D01*
X962584D01*
X967663D02*
X972741Y1445703D01*
X985437D02*
Y1460938D01*
X977819Y1453320D01*
X987976D01*
X1001464Y1441983D02*
Y1457218D01*
X1009082D01*
X1011621Y1454678D01*
Y1449600D01*
X1009082Y1447061D01*
X1001464D01*
X1006543D02*
X1011621Y1441983D01*
X1016699Y1454678D02*
X1019238Y1457218D01*
X1024317D01*
X1026856Y1454678D01*
Y1452139D01*
X1024317Y1449600D01*
X1021777D01*
X1024317D01*
X1026856Y1447061D01*
Y1444522D01*
X1024317Y1441983D01*
X1019238D01*
X1016699Y1444522D01*
X1234566Y1346082D02*
Y1361317D01*
X1242183D01*
X1244722Y1358778D01*
Y1353700D01*
X1242183Y1351160D01*
X1234566D01*
X1239644D02*
X1244722Y1346082D01*
X1249801D02*
X1254879D01*
X1252340D01*
Y1361317D01*
X1249801Y1358778D01*
X1195304Y1346382D02*
Y1361617D01*
X1202922D01*
X1205461Y1359078D01*
Y1354000D01*
X1202922Y1351461D01*
X1195304D01*
X1200383D02*
X1205461Y1346382D01*
X1210539Y1359078D02*
X1213078Y1361617D01*
X1218157D01*
X1220696Y1359078D01*
Y1348922D01*
X1218157Y1346382D01*
X1213078D01*
X1210539Y1348922D01*
Y1359078D01*
X1033781Y1656082D02*
Y1666238D01*
X1031242Y1668777D01*
X1026163D01*
X1023624Y1666238D01*
Y1656082D01*
X1026163Y1653542D01*
X1031242D01*
X1028702Y1658621D02*
X1033781Y1653542D01*
X1031242D02*
X1033781Y1656082D01*
X1038859Y1666238D02*
X1041398Y1668777D01*
X1046477D01*
X1049016Y1666238D01*
Y1656082D01*
X1046477Y1653542D01*
X1041398D01*
X1038859Y1656082D01*
Y1666238D01*
X1137069Y1168617D02*
Y1153382D01*
X1147226D01*
X1162461Y1168617D02*
X1152304D01*
Y1153382D01*
X1162461D01*
X1152304Y1161000D02*
X1157383D01*
X1167539Y1168617D02*
Y1153382D01*
X1175157D01*
X1177696Y1155922D01*
Y1166078D01*
X1175157Y1168617D01*
X1167539D01*
X1182774Y1166078D02*
X1185313Y1168617D01*
X1190392D01*
X1192931Y1166078D01*
Y1163539D01*
X1190392Y1161000D01*
X1192931Y1158461D01*
Y1155922D01*
X1190392Y1153382D01*
X1185313D01*
X1182774Y1155922D01*
Y1158461D01*
X1185313Y1161000D01*
X1182774Y1163539D01*
Y1166078D01*
X1185313Y1161000D02*
X1190392D01*
X1105069Y1227617D02*
Y1212383D01*
X1115226D01*
X1130461Y1227617D02*
X1120304D01*
Y1212383D01*
X1130461D01*
X1120304Y1220000D02*
X1125383D01*
X1135539Y1227617D02*
Y1212383D01*
X1143157D01*
X1145696Y1214922D01*
Y1225078D01*
X1143157Y1227617D01*
X1135539D01*
X1150774D02*
X1160931D01*
Y1225078D01*
X1150774Y1214922D01*
Y1212383D01*
X1137017Y1499789D02*
Y1484554D01*
X1147174D01*
X1162409Y1499789D02*
X1152252D01*
Y1484554D01*
X1162409D01*
X1152252Y1492171D02*
X1157330D01*
X1167487Y1499789D02*
Y1484554D01*
X1175105D01*
X1177644Y1487093D01*
Y1497250D01*
X1175105Y1499789D01*
X1167487D01*
X1192879D02*
X1182722D01*
Y1492171D01*
X1187801Y1494711D01*
X1190340D01*
X1192879Y1492171D01*
Y1487093D01*
X1190340Y1484554D01*
X1185261D01*
X1182722Y1487093D01*
X1387069Y1483618D02*
Y1468383D01*
X1397226D01*
X1412461Y1483618D02*
X1402304D01*
Y1468383D01*
X1412461D01*
X1402304Y1476000D02*
X1407383D01*
X1417539Y1483618D02*
Y1468383D01*
X1425157D01*
X1427696Y1470922D01*
Y1481078D01*
X1425157Y1483618D01*
X1417539D01*
X1440392Y1468383D02*
Y1483618D01*
X1432774Y1476000D01*
X1442931D01*
X1481069Y1376617D02*
Y1361382D01*
X1491226D01*
X1506461Y1376617D02*
X1496304D01*
Y1361382D01*
X1506461D01*
X1496304Y1369000D02*
X1501382D01*
X1511539Y1376617D02*
Y1361382D01*
X1519157D01*
X1521696Y1363922D01*
Y1374078D01*
X1519157Y1376617D01*
X1511539D01*
X1526774Y1374078D02*
X1529314Y1376617D01*
X1534392D01*
X1536931Y1374078D01*
Y1371539D01*
X1534392Y1369000D01*
X1531853D01*
X1534392D01*
X1536931Y1366461D01*
Y1363922D01*
X1534392Y1361382D01*
X1529314D01*
X1526774Y1363922D01*
X1483069Y1292617D02*
Y1277383D01*
X1493226D01*
X1508461Y1292617D02*
X1498304D01*
Y1277383D01*
X1508461D01*
X1498304Y1285000D02*
X1503383D01*
X1513539Y1292617D02*
Y1277383D01*
X1521157D01*
X1523696Y1279922D01*
Y1290078D01*
X1521157Y1292617D01*
X1513539D01*
X1538931Y1277383D02*
X1528774D01*
X1538931Y1287539D01*
Y1290078D01*
X1536392Y1292617D01*
X1531313D01*
X1528774Y1290078D01*
X1396608Y1172617D02*
Y1157383D01*
X1406765D01*
X1422000Y1172617D02*
X1411843D01*
Y1157383D01*
X1422000D01*
X1411843Y1165000D02*
X1416922D01*
X1427078Y1172617D02*
Y1157383D01*
X1434696D01*
X1437235Y1159922D01*
Y1170078D01*
X1434696Y1172617D01*
X1427078D01*
X1442313Y1157383D02*
X1447392D01*
X1444853D01*
Y1172617D01*
X1442313Y1170078D01*
X1023624Y1572258D02*
Y1557023D01*
X1033781D01*
X1038859Y1569718D02*
X1041398Y1572258D01*
X1046477D01*
X1049016Y1569718D01*
Y1559562D01*
X1046477Y1557023D01*
X1041398D01*
X1038859Y1559562D01*
Y1569718D01*
X1442209Y817368D02*
X1439669Y819907D01*
X1434591D01*
X1432052Y817368D01*
Y807211D01*
X1434591Y804672D01*
X1439669D01*
X1442209Y807211D01*
X1449826Y804672D02*
X1454905D01*
X1457444Y807211D01*
Y812290D01*
X1454905Y814829D01*
X1449826D01*
X1447287Y812290D01*
Y807211D01*
X1449826Y804672D01*
X1462522Y814829D02*
Y807211D01*
X1465061Y804672D01*
X1472679D01*
Y814829D01*
X1480296Y817368D02*
Y814829D01*
X1477757D01*
X1482836D01*
X1480296D01*
Y807211D01*
X1482836Y804672D01*
X1236113Y762078D02*
X1233574Y764617D01*
X1228495D01*
X1225956Y762078D01*
Y751922D01*
X1228495Y749382D01*
X1233574D01*
X1236113Y751922D01*
X1241191Y749382D02*
X1246270D01*
X1243730D01*
Y759539D01*
X1241191D01*
X1253887Y749382D02*
Y759539D01*
X1261505D01*
X1264044Y757000D01*
Y749382D01*
X1550413Y1086608D02*
X1547874Y1089147D01*
X1542795D01*
X1540256Y1086608D01*
Y1076451D01*
X1542795Y1073912D01*
X1547874D01*
X1550413Y1076451D01*
X1565648Y1073912D02*
X1555491D01*
X1565648Y1084069D01*
Y1086608D01*
X1563109Y1089147D01*
X1558030D01*
X1555491Y1086608D01*
X1578344Y1073912D02*
Y1089147D01*
X1570726Y1081529D01*
X1580883D01*
X1579593Y847578D02*
X1577054Y850117D01*
X1571976D01*
X1569437Y847578D01*
Y837422D01*
X1571976Y834883D01*
X1577054D01*
X1579593Y837422D01*
X1594828Y834883D02*
X1584672D01*
X1594828Y845039D01*
Y847578D01*
X1592289Y850117D01*
X1587211D01*
X1584672Y847578D01*
X1599907D02*
X1602446Y850117D01*
X1607524D01*
X1610063Y847578D01*
Y845039D01*
X1607524Y842500D01*
X1604985D01*
X1607524D01*
X1610063Y839961D01*
Y837422D01*
X1607524Y834883D01*
X1602446D01*
X1599907Y837422D01*
X1529843Y846828D02*
X1527304Y849368D01*
X1522226D01*
X1519687Y846828D01*
Y836672D01*
X1522226Y834133D01*
X1527304D01*
X1529843Y836672D01*
X1545078Y834133D02*
X1534922D01*
X1545078Y844289D01*
Y846828D01*
X1542539Y849368D01*
X1537461D01*
X1534922Y846828D01*
X1560313Y834133D02*
X1550157D01*
X1560313Y844289D01*
Y846828D01*
X1557774Y849368D01*
X1552696D01*
X1550157Y846828D01*
X1221383Y1591078D02*
X1218843Y1593618D01*
X1213765D01*
X1211226Y1591078D01*
Y1580922D01*
X1213765Y1578383D01*
X1218843D01*
X1221383Y1580922D01*
X1236618Y1578383D02*
X1226461D01*
X1236618Y1588539D01*
Y1591078D01*
X1234078Y1593618D01*
X1229000D01*
X1226461Y1591078D01*
X1241696Y1578383D02*
X1246774D01*
X1244235D01*
Y1593618D01*
X1241696Y1591078D01*
X1267343Y1030078D02*
X1264804Y1032617D01*
X1259726D01*
X1257187Y1030078D01*
Y1019922D01*
X1259726Y1017383D01*
X1264804D01*
X1267343Y1019922D01*
X1282578Y1017383D02*
X1272422D01*
X1282578Y1027539D01*
Y1030078D01*
X1280039Y1032617D01*
X1274961D01*
X1272422Y1030078D01*
X1287657D02*
X1290196Y1032617D01*
X1295274D01*
X1297814Y1030078D01*
Y1019922D01*
X1295274Y1017383D01*
X1290196D01*
X1287657Y1019922D01*
Y1030078D01*
X1173113Y1124078D02*
X1170574Y1126618D01*
X1165495D01*
X1162956Y1124078D01*
Y1113922D01*
X1165495Y1111383D01*
X1170574D01*
X1173113Y1113922D01*
X1178191Y1111383D02*
X1183270D01*
X1180730D01*
Y1126618D01*
X1178191Y1124078D01*
X1190887Y1113922D02*
X1193426Y1111383D01*
X1198505D01*
X1201044Y1113922D01*
Y1124078D01*
X1198505Y1126618D01*
X1193426D01*
X1190887Y1124078D01*
Y1121539D01*
X1193426Y1119000D01*
X1201044D01*
X1056113Y1267078D02*
X1053574Y1269617D01*
X1048495D01*
X1045956Y1267078D01*
Y1256922D01*
X1048495Y1254382D01*
X1053574D01*
X1056113Y1256922D01*
X1061191Y1254382D02*
X1066270D01*
X1063730D01*
Y1269617D01*
X1061191Y1267078D01*
X1073887D02*
X1076426Y1269617D01*
X1081505D01*
X1084044Y1267078D01*
Y1264539D01*
X1081505Y1262000D01*
X1084044Y1259461D01*
Y1256922D01*
X1081505Y1254382D01*
X1076426D01*
X1073887Y1256922D01*
Y1259461D01*
X1076426Y1262000D01*
X1073887Y1264539D01*
Y1267078D01*
X1076426Y1262000D02*
X1081505D01*
X1087113Y1451078D02*
X1084574Y1453618D01*
X1079495D01*
X1076956Y1451078D01*
Y1440922D01*
X1079495Y1438383D01*
X1084574D01*
X1087113Y1440922D01*
X1092191Y1438383D02*
X1097270D01*
X1094730D01*
Y1453618D01*
X1092191Y1451078D01*
X1104887Y1453618D02*
X1115044D01*
Y1451078D01*
X1104887Y1440922D01*
Y1438383D01*
X1191113Y1548078D02*
X1188574Y1550618D01*
X1183495D01*
X1180956Y1548078D01*
Y1537922D01*
X1183495Y1535383D01*
X1188574D01*
X1191113Y1537922D01*
X1196191Y1535383D02*
X1201270D01*
X1198730D01*
Y1550618D01*
X1196191Y1548078D01*
X1219044Y1550618D02*
X1213966Y1548078D01*
X1208887Y1543000D01*
Y1537922D01*
X1211426Y1535383D01*
X1216505D01*
X1219044Y1537922D01*
Y1540461D01*
X1216505Y1543000D01*
X1208887D01*
X1385645Y1550757D02*
X1383106Y1553297D01*
X1378028D01*
X1375489Y1550757D01*
Y1540601D01*
X1378028Y1538062D01*
X1383106D01*
X1385645Y1540601D01*
X1390724Y1538062D02*
X1395802D01*
X1393263D01*
Y1553297D01*
X1390724Y1550757D01*
X1413576Y1553297D02*
X1403420D01*
Y1545679D01*
X1408498Y1548218D01*
X1411037D01*
X1413576Y1545679D01*
Y1540601D01*
X1411037Y1538062D01*
X1405959D01*
X1403420Y1540601D01*
X1507755Y1441013D02*
X1505216Y1443553D01*
X1500138D01*
X1497598Y1441013D01*
Y1430857D01*
X1500138Y1428317D01*
X1505216D01*
X1507755Y1430857D01*
X1512834Y1428317D02*
X1517912D01*
X1515373D01*
Y1443553D01*
X1512834Y1441013D01*
X1533147Y1428317D02*
Y1443553D01*
X1525529Y1435935D01*
X1535686D01*
X1478113Y1226078D02*
X1475574Y1228617D01*
X1470495D01*
X1467956Y1226078D01*
Y1215922D01*
X1470495Y1213382D01*
X1475574D01*
X1478113Y1215922D01*
X1483191Y1213382D02*
X1488270D01*
X1485730D01*
Y1228617D01*
X1483191Y1226078D01*
X1495887D02*
X1498426Y1228617D01*
X1503505D01*
X1506044Y1226078D01*
Y1223539D01*
X1503505Y1221000D01*
X1500966D01*
X1503505D01*
X1506044Y1218461D01*
Y1215922D01*
X1503505Y1213382D01*
X1498426D01*
X1495887Y1215922D01*
X1401113Y1131078D02*
X1398574Y1133617D01*
X1393495D01*
X1390956Y1131078D01*
Y1120922D01*
X1393495Y1118382D01*
X1398574D01*
X1401113Y1120922D01*
X1406191Y1118382D02*
X1411270D01*
X1408730D01*
Y1133617D01*
X1406191Y1131078D01*
X1429044Y1118382D02*
X1418887D01*
X1429044Y1128539D01*
Y1131078D01*
X1426505Y1133617D01*
X1421426D01*
X1418887Y1131078D01*
X1075692Y1488438D02*
X1073153Y1490977D01*
X1068074D01*
X1065535Y1488438D01*
Y1478282D01*
X1068074Y1475742D01*
X1073153D01*
X1075692Y1478282D01*
X1080770Y1475742D02*
X1085849D01*
X1083310D01*
Y1490977D01*
X1080770Y1488438D01*
X1093466Y1475742D02*
X1098545D01*
X1096005D01*
Y1490977D01*
X1093466Y1488438D01*
X985113Y1666078D02*
X982574Y1668618D01*
X977495D01*
X974956Y1666078D01*
Y1655922D01*
X977495Y1653383D01*
X982574D01*
X985113Y1655922D01*
X990191Y1653383D02*
X995270D01*
X992730D01*
Y1668618D01*
X990191Y1666078D01*
X1002887D02*
X1005426Y1668618D01*
X1010505D01*
X1013044Y1666078D01*
Y1655922D01*
X1010505Y1653383D01*
X1005426D01*
X1002887Y1655922D01*
Y1666078D01*
X952461D02*
X949922Y1668618D01*
X944843D01*
X942304Y1666078D01*
Y1655922D01*
X944843Y1653383D01*
X949922D01*
X952461Y1655922D01*
X957539D02*
X960078Y1653383D01*
X965157D01*
X967696Y1655922D01*
Y1666078D01*
X965157Y1668618D01*
X960078D01*
X957539Y1666078D01*
Y1663539D01*
X960078Y1661000D01*
X967696D01*
X995461Y1572078D02*
X992922Y1574617D01*
X987843D01*
X985304Y1572078D01*
Y1561922D01*
X987843Y1559382D01*
X992922D01*
X995461Y1561922D01*
X1000539Y1572078D02*
X1003078Y1574617D01*
X1008157D01*
X1010696Y1572078D01*
Y1569539D01*
X1008157Y1567000D01*
X1010696Y1564461D01*
Y1561922D01*
X1008157Y1559382D01*
X1003078D01*
X1000539Y1561922D01*
Y1564461D01*
X1003078Y1567000D01*
X1000539Y1569539D01*
Y1572078D01*
X1003078Y1567000D02*
X1008157D01*
X962461Y1570078D02*
X959922Y1572617D01*
X954843D01*
X952304Y1570078D01*
Y1559922D01*
X954843Y1557383D01*
X959922D01*
X962461Y1559922D01*
X967539Y1572617D02*
X977696D01*
Y1570078D01*
X967539Y1559922D01*
Y1557383D01*
X1045301Y1489758D02*
X1042762Y1492297D01*
X1037683D01*
X1035144Y1489758D01*
Y1479601D01*
X1037683Y1477062D01*
X1042762D01*
X1045301Y1479601D01*
X1060536Y1492297D02*
X1055458Y1489758D01*
X1050379Y1484680D01*
Y1479601D01*
X1052918Y1477062D01*
X1057997D01*
X1060536Y1479601D01*
Y1482140D01*
X1057997Y1484680D01*
X1050379D01*
X1380461Y1324078D02*
X1377922Y1326617D01*
X1372843D01*
X1370304Y1324078D01*
Y1313922D01*
X1372843Y1311382D01*
X1377922D01*
X1380461Y1313922D01*
X1395696Y1326617D02*
X1385539D01*
Y1319000D01*
X1390618Y1321539D01*
X1393157D01*
X1395696Y1319000D01*
Y1313922D01*
X1393157Y1311382D01*
X1388078D01*
X1385539Y1313922D01*
X1026461Y1225078D02*
X1023922Y1227618D01*
X1018844D01*
X1016304Y1225078D01*
Y1214922D01*
X1018844Y1212383D01*
X1023922D01*
X1026461Y1214922D01*
X1039157Y1212383D02*
Y1227618D01*
X1031540Y1220000D01*
X1041696D01*
X963084Y1061461D02*
X960545Y1058922D01*
Y1053843D01*
X963084Y1051304D01*
X973241D01*
X975780Y1053843D01*
Y1058922D01*
X973241Y1061461D01*
X963084Y1066539D02*
X960545Y1069078D01*
Y1074157D01*
X963084Y1076696D01*
X965623D01*
X968162Y1074157D01*
Y1071617D01*
Y1074157D01*
X970701Y1076696D01*
X973241D01*
X975780Y1074157D01*
Y1069078D01*
X973241Y1066539D01*
X990084Y1062223D02*
X987545Y1059684D01*
Y1054606D01*
X990084Y1052066D01*
X1000240D01*
X1002780Y1054606D01*
Y1059684D01*
X1000240Y1062223D01*
X1002780Y1077458D02*
Y1067301D01*
X992623Y1077458D01*
X990084D01*
X987545Y1074919D01*
Y1069841D01*
X990084Y1067301D01*
X1015084Y1067000D02*
X1012545Y1064461D01*
Y1059382D01*
X1015084Y1056843D01*
X1025240D01*
X1027780Y1059382D01*
Y1064461D01*
X1025240Y1067000D01*
X1027780Y1072078D02*
Y1077157D01*
Y1074617D01*
X1012545D01*
X1015084Y1072078D01*
X991461Y1233078D02*
X988922Y1235618D01*
X983843D01*
X981304Y1233078D01*
Y1222922D01*
X983843Y1220383D01*
X988922D01*
X991461Y1222922D01*
X996539Y1233078D02*
X999078Y1235618D01*
X1004157D01*
X1006696Y1233078D01*
Y1222922D01*
X1004157Y1220383D01*
X999078D01*
X996539Y1222922D01*
Y1233078D01*
X1094956Y1133382D02*
Y1148617D01*
X1102574D01*
X1105113Y1146078D01*
Y1141000D01*
X1102574Y1138461D01*
X1094956D01*
X1100034D02*
X1105113Y1133382D01*
X1110191D02*
X1115270D01*
X1112730D01*
Y1148617D01*
X1110191Y1146078D01*
X1133044Y1148617D02*
X1127965Y1146078D01*
X1122887Y1141000D01*
Y1135922D01*
X1125426Y1133382D01*
X1130505D01*
X1133044Y1135922D01*
Y1138461D01*
X1130505Y1141000D01*
X1122887D01*
D11*
X993401Y843700D02*
G03*
X993401Y843700I-2000J0D01*
G01*
D12*
X1093671Y1639570D02*
G03*
X1093671Y1639570I-1501J0D01*
G01*
X1075136Y1646893D02*
G03*
X1075136Y1646893I-1501J0D01*
G01*
X1274269Y1319183D02*
G03*
X1274269Y1319183I-1501J0D01*
G01*
X1266596Y1300049D02*
G03*
X1266596Y1300049I-1501J0D01*
G01*
D13*
X1203035Y1167093D02*
G03*
X1203035Y1167093I-749J0D01*
G01*
X1382470Y1489225D02*
G03*
X1382470Y1489225I-749J0D01*
G01*
X1241733Y1505129D02*
G03*
X1241733Y1505129I-749J0D01*
G01*
X1131774Y1417664D02*
G03*
X1131774Y1417664I-749J0D01*
G01*
X1115597Y1277583D02*
G03*
X1115597Y1277583I-749J0D01*
G01*
X1453945Y1238159D02*
G03*
X1453945Y1238159I-749J0D01*
G01*
X1470259Y1378486D02*
G03*
X1470259Y1378486I-749J0D01*
G01*
X1342634Y1150470D02*
G03*
X1342634Y1150470I-749J0D01*
G01*
D14*
X1470417Y1328097D02*
G03*
X1470417Y1328097I-178264J0D01*
G01*
X1269318Y1087682D02*
Y1173059D01*
Y1087682D02*
X1291818D01*
X1314318D01*
X1269318Y1173059D02*
X1291818D01*
X1314318D01*
X1291818Y1119084D02*
X1314318D01*
X1269318D02*
X1291818D01*
D15*
X1441818Y1328097D02*
G03*
X1441818Y1328097I-150000J0D01*
G01*
X1056739Y1305597D02*
Y1350626D01*
X1142145Y1305597D02*
Y1350626D01*
X1056739Y1305597D02*
X1142145D01*
X1056739Y1350626D02*
X1142145D01*
X1527223Y1305597D02*
Y1350625D01*
X1441818Y1305597D02*
Y1350625D01*
X1527223D01*
X1441818Y1305597D02*
X1527223D01*
X1277000Y1562024D02*
X1322029D01*
X1277000Y1476618D02*
X1322029D01*
X1277000D02*
Y1562024D01*
X1322029Y1476618D02*
Y1562024D01*
X1269318Y1087682D02*
X1314346D01*
X1269318Y1173088D02*
X1314346D01*
Y1087682D02*
Y1173088D01*
X1269318Y1087682D02*
Y1173088D01*
D16*
X1502321Y752620D02*
X1502470Y770126D01*
X1502321Y752620D02*
X1616620D01*
X1616470Y770126D02*
X1616620Y752620D01*
X1616470Y783374D02*
X1616620Y800880D01*
X1502321D02*
X1616620D01*
X1502321D02*
X1502470Y783374D01*
X1502321Y752620D02*
X1502470Y770126D01*
X1502321Y752620D02*
X1616620D01*
X1616470Y770126D02*
X1616620Y752620D01*
X1616470Y783374D02*
X1616620Y800880D01*
X1502321D02*
X1616620D01*
X1502321D02*
X1502470Y783374D01*
X1084646Y1645882D02*
X1120074D01*
Y1544358D02*
Y1645882D01*
X1084646Y1544358D02*
X1120074D01*
X1084646D02*
Y1645882D01*
X1266056Y1311661D02*
Y1342089D01*
X1317580D01*
Y1311661D02*
Y1342089D01*
X1266056Y1311661D02*
X1317580D01*
X995744Y1168256D02*
X999403D01*
X1028256Y1164598D02*
Y1168256D01*
X1024597Y1135744D02*
X1028256D01*
X995744D02*
X999403D01*
X995744Y1164598D02*
Y1168256D01*
X1024597D02*
X1028256D01*
Y1135744D02*
Y1139402D01*
X995744Y1135744D02*
Y1139402D01*
X1038502Y1626126D02*
Y1635234D01*
X1023978Y1615418D02*
Y1625734D01*
Y1615418D02*
X1038502D01*
X1023978Y1635626D02*
Y1645942D01*
X1038502D01*
X1325286Y824262D02*
X1354714D01*
X1325286Y757738D02*
Y824262D01*
Y757738D02*
X1354714D01*
Y824262D01*
D17*
X1200093Y1158531D02*
X1202589Y1164559D01*
X1200093Y1158531D02*
X1237048Y1143224D01*
X1239640Y1149482D01*
X1227731Y1149789D02*
X1229084Y1146523D01*
X1211443Y1156536D02*
X1227731Y1149789D01*
X1208177Y1155183D02*
X1211443Y1156536D01*
X1207745Y1155361D02*
X1208177Y1155183D01*
X1375830Y1501135D02*
X1376262Y1500957D01*
X1372564Y1499782D02*
X1375830Y1501135D01*
X1356276Y1506529D02*
X1372564Y1499782D01*
X1354923Y1509795D02*
X1356276Y1506529D01*
X1344367Y1506836D02*
X1346959Y1513094D01*
X1383914Y1497787D01*
X1381418Y1491759D02*
X1383914Y1497787D01*
X1228397Y1509385D02*
X1228829Y1509564D01*
X1227044Y1506119D02*
X1228397Y1509385D01*
X1210755Y1499372D02*
X1227044Y1506119D01*
X1207490Y1500725D02*
X1210755Y1499372D01*
X1199526Y1497426D02*
X1202118Y1491169D01*
X1199526Y1497426D02*
X1236481Y1512734D01*
X1238978Y1506706D01*
X1122463Y1419857D02*
X1128491Y1417360D01*
X1107156Y1382902D02*
X1122463Y1419857D01*
X1107156Y1382902D02*
X1113414Y1380310D01*
X1110454Y1390865D02*
X1113720Y1392218D01*
X1120467Y1408507D01*
X1119114Y1411773D02*
X1120467Y1408507D01*
X1119114Y1411773D02*
X1119293Y1412204D01*
X1110413Y1265428D02*
X1110592Y1264996D01*
X1113858Y1263643D01*
X1120605Y1247355D01*
X1119252Y1244089D02*
X1120605Y1247355D01*
X1122551Y1236125D02*
X1128809Y1238717D01*
X1107243Y1273080D02*
X1122551Y1236125D01*
X1107243Y1273080D02*
X1113271Y1275577D01*
X1464927Y1243618D02*
X1465106Y1244049D01*
X1463753Y1247316D02*
X1465106Y1244049D01*
X1463753Y1247316D02*
X1470500Y1263604D01*
X1473766Y1264957D01*
X1470807Y1275513D02*
X1477065Y1272921D01*
X1461758Y1235965D02*
X1477065Y1272921D01*
X1455730Y1238462D02*
X1461758Y1235965D01*
X1473766Y1391073D02*
X1473945Y1390641D01*
X1470500Y1392426D02*
X1473766Y1391073D01*
X1463753Y1408714D02*
X1470500Y1392426D01*
X1463753Y1408714D02*
X1465106Y1411980D01*
X1455549Y1417352D02*
X1461808Y1419944D01*
X1477115Y1382989D01*
X1471087Y1380492D02*
X1477115Y1382989D01*
X1354041Y1146035D02*
X1354472Y1146214D01*
X1355825Y1149480D01*
X1372114Y1156227D01*
X1375379Y1154874D01*
X1380751Y1164430D02*
X1383343Y1158172D01*
X1346388Y1142865D02*
X1383343Y1158172D01*
X1343891Y1148893D02*
X1346388Y1142865D01*
D18*
X996670Y1123000D02*
X1005134Y1131464D01*
Y1123000D02*
X996670Y1131464D01*
X1000902Y1123000D02*
Y1131464D01*
X1005134Y1127232D02*
X996670D01*
M02*
