G04*
G04 #@! TF.GenerationSoftware,Altium Limited,Altium Designer,23.5.1 (21)*
G04*
G04 Layer_Physical_Order=2*
G04 Layer_Color=16711680*
%FSLAX44Y44*%
%MOMM*%
G71*
G04*
G04 #@! TF.SameCoordinates,5C111197-4597-48D1-979B-7C2AAD06A796*
G04*
G04*
G04 #@! TF.FilePolarity,Positive*
G04*
G01*
G75*
%ADD10C,0.2540*%
%ADD91C,1.7000*%
%ADD92R,1.7000X1.7000*%
%ADD93R,1.7000X1.7000*%
%ADD94C,1.8000*%
%ADD95R,1.8000X1.8000*%
%ADD96R,1.5240X1.5240*%
%ADD97C,1.5240*%
%ADD98C,1.2700*%
%ADD99O,2.0000X1.5000*%
%ADD100O,1.5000X2.0000*%
G36*
X1075936Y1083650D02*
X1075075Y1083642D01*
X1073517Y1083521D01*
X1072821Y1083409D01*
X1072181Y1083262D01*
X1071595Y1083081D01*
X1071065Y1082864D01*
X1070589Y1082614D01*
X1070169Y1082328D01*
X1069804Y1082008D01*
X1068008Y1083804D01*
X1068328Y1084169D01*
X1068614Y1084589D01*
X1068864Y1085064D01*
X1069081Y1085595D01*
X1069262Y1086180D01*
X1069409Y1086821D01*
X1069521Y1087517D01*
X1069599Y1088269D01*
X1069650Y1089936D01*
X1075936Y1083650D01*
D02*
G37*
G36*
X979622Y1083623D02*
X979726Y1083114D01*
X979901Y1082619D01*
X980146Y1082138D01*
X980461Y1081671D01*
X980845Y1081219D01*
X981300Y1080780D01*
X981825Y1080357D01*
X982419Y1079947D01*
X983084Y1079551D01*
X974512Y1077194D01*
X974993Y1078040D01*
X976413Y1080931D01*
X976641Y1081530D01*
X976945Y1082580D01*
X977021Y1083030D01*
X977047Y1083431D01*
X979587Y1084146D01*
X979622Y1083623D01*
D02*
G37*
G36*
X1007150Y1077842D02*
X1008337Y1076826D01*
X1008908Y1076413D01*
X1009465Y1076064D01*
X1010007Y1075778D01*
X1010535Y1075556D01*
X1011049Y1075397D01*
X1011547Y1075302D01*
X1012032Y1075270D01*
Y1072730D01*
X1011547Y1072698D01*
X1011049Y1072603D01*
X1010535Y1072444D01*
X1010007Y1072222D01*
X1009465Y1071936D01*
X1008908Y1071587D01*
X1008337Y1071174D01*
X1007751Y1070698D01*
X1006535Y1069555D01*
Y1078445D01*
X1007150Y1077842D01*
D02*
G37*
G36*
X982791Y1068296D02*
X982122Y1067942D01*
X981523Y1067568D01*
X980995Y1067175D01*
X980537Y1066763D01*
X980150Y1066331D01*
X979833Y1065880D01*
X979587Y1065410D01*
X979411Y1064920D01*
X979305Y1064411D01*
X979270Y1063882D01*
X976730Y1064163D01*
X976706Y1064648D01*
X976635Y1065180D01*
X976516Y1065758D01*
X976350Y1066381D01*
X975874Y1067768D01*
X975565Y1068531D01*
X974353Y1071096D01*
X982791Y1068296D01*
D02*
G37*
G36*
X971835Y995477D02*
X971705Y995301D01*
X971640Y995098D01*
X971638Y994867D01*
X971700Y994607D01*
X971826Y994320D01*
X972016Y994005D01*
X972270Y993662D01*
X972587Y993290D01*
X972968Y992891D01*
X970741Y991527D01*
X970331Y991918D01*
X969573Y992536D01*
X969222Y992762D01*
X968892Y992933D01*
X968581Y993049D01*
X968290Y993110D01*
X968019Y993116D01*
X967767Y993067D01*
X967535Y992963D01*
X972028Y995624D01*
X971835Y995477D01*
D02*
G37*
G36*
X973002Y977629D02*
X973090Y977415D01*
X973235Y977226D01*
X973439Y977062D01*
X973702Y976923D01*
X974022Y976809D01*
X974401Y976721D01*
X974838Y976658D01*
X975334Y976620D01*
X975888Y976608D01*
Y974068D01*
X975334Y974055D01*
X974838Y974017D01*
X974401Y973954D01*
X974022Y973866D01*
X973702Y973752D01*
X973439Y973614D01*
X973235Y973450D01*
X973090Y973260D01*
X973002Y973046D01*
X972973Y972806D01*
Y977869D01*
X973002Y977629D01*
D02*
G37*
G36*
X972222Y957579D02*
X971841Y957180D01*
X971523Y956809D01*
X971270Y956466D01*
X971080Y956151D01*
X970954Y955863D01*
X970892Y955604D01*
X970893Y955373D01*
X970959Y955169D01*
X971088Y954994D01*
X971281Y954847D01*
X966789Y957507D01*
X967021Y957403D01*
X967273Y957354D01*
X967544Y957360D01*
X967835Y957421D01*
X968146Y957537D01*
X968476Y957709D01*
X968826Y957935D01*
X969196Y958216D01*
X969585Y958552D01*
X969994Y958943D01*
X972222Y957579D01*
D02*
G37*
G36*
X968876Y931522D02*
X966161Y932457D01*
X966179Y932461D01*
X966196Y932489D01*
X966210Y932539D01*
X966223Y932612D01*
X966233Y932708D01*
X966253Y933131D01*
X966257Y933527D01*
X968797D01*
X968876Y931522D01*
D02*
G37*
G36*
X971449Y907427D02*
X971068Y907028D01*
X970751Y906656D01*
X970497Y906313D01*
X970307Y905998D01*
X970181Y905711D01*
X970119Y905451D01*
X970120Y905220D01*
X970186Y905017D01*
X970315Y904842D01*
X970509Y904694D01*
X966016Y907354D01*
X966248Y907250D01*
X966500Y907201D01*
X966771Y907207D01*
X967062Y907269D01*
X967373Y907385D01*
X967703Y907556D01*
X968053Y907782D01*
X968423Y908063D01*
X968812Y908400D01*
X969221Y908791D01*
X971449Y907427D01*
D02*
G37*
G36*
X967347Y883592D02*
X967438Y882439D01*
X967492Y882149D01*
X967559Y881906D01*
X967637Y881710D01*
X967728Y881561D01*
X967831Y881459D01*
X967946Y881404D01*
X964181Y882382D01*
X964299Y882370D01*
X964404Y882398D01*
X964497Y882466D01*
X964578Y882575D01*
X964646Y882723D01*
X964702Y882912D01*
X964745Y883142D01*
X964776Y883411D01*
X964794Y883721D01*
X964801Y884070D01*
X967341D01*
X967347Y883592D01*
D02*
G37*
G36*
X1158964Y855906D02*
X1159013Y855529D01*
X1159094Y855190D01*
X1159208Y854889D01*
X1159355Y854627D01*
X1159534Y854404D01*
X1159746Y854219D01*
X1159990Y854072D01*
X1160267Y853964D01*
X1160576Y853894D01*
X1154938Y852927D01*
X1155217Y853103D01*
X1155467Y853316D01*
X1155687Y853564D01*
X1155879Y853849D01*
X1156040Y854171D01*
X1156173Y854529D01*
X1156276Y854922D01*
X1156349Y855353D01*
X1156393Y855819D01*
X1156408Y856322D01*
X1158948D01*
X1158964Y855906D01*
D02*
G37*
G36*
X952731Y857083D02*
X953104Y856764D01*
X953451Y856505D01*
X953774Y856308D01*
X954071Y856171D01*
X954344Y856094D01*
X954591Y856079D01*
X954814Y856124D01*
X955012Y856229D01*
X955184Y856395D01*
X951972Y852457D01*
X952103Y852663D01*
X952177Y852891D01*
X952193Y853141D01*
X952153Y853412D01*
X952055Y853705D01*
X951901Y854019D01*
X951689Y854355D01*
X951420Y854713D01*
X951094Y855092D01*
X950711Y855493D01*
X952334Y857462D01*
X952731Y857083D01*
D02*
G37*
G36*
X1108324Y858743D02*
X1108484Y858075D01*
X1108752Y857396D01*
X1109127Y856706D01*
X1109608Y856004D01*
X1110197Y855292D01*
X1110893Y854568D01*
X1111696Y853833D01*
X1112606Y853087D01*
X1113624Y852329D01*
X1101177Y850369D01*
X1102042Y851558D01*
X1104592Y855588D01*
X1105002Y856415D01*
X1105320Y857168D01*
X1105548Y857850D01*
X1105685Y858459D01*
X1105730Y858995D01*
X1108270Y859399D01*
X1108324Y858743D01*
D02*
G37*
G36*
X977044Y843380D02*
X976157Y843837D01*
X972570Y845401D01*
X972021Y845569D01*
X971529Y845690D01*
X971438Y845705D01*
X971117Y845674D01*
X970674Y845586D01*
X970282Y845474D01*
X969940Y845337D01*
X969648Y845175D01*
X969406Y844988D01*
X969215Y844776D01*
X969073Y844539D01*
X970275Y847114D01*
X969876Y848326D01*
X970404Y848361D01*
X970906Y848465D01*
X971436Y849599D01*
X971353Y849357D01*
X971342Y849141D01*
X971402Y848950D01*
X971535Y848784D01*
X971596Y848743D01*
X971876Y848889D01*
X972330Y849205D01*
X972765Y849592D01*
X973182Y850049D01*
X973581Y850577D01*
X973961Y851175D01*
X974322Y851843D01*
X977044Y843380D01*
D02*
G37*
G36*
X1094017Y854221D02*
X1093621Y853754D01*
X1093268Y853187D01*
X1092959Y852522D01*
X1092692Y851758D01*
X1092469Y850894D01*
X1092289Y849932D01*
X1092152Y848870D01*
X1092007Y846449D01*
X1092000Y845090D01*
X1083090Y854000D01*
X1084449Y854007D01*
X1086870Y854152D01*
X1087932Y854289D01*
X1088894Y854469D01*
X1089758Y854692D01*
X1090522Y854958D01*
X1091188Y855268D01*
X1091754Y855621D01*
X1092221Y856017D01*
X1094017Y854221D01*
D02*
G37*
G36*
X1125046Y855621D02*
X1125613Y855268D01*
X1126278Y854958D01*
X1127042Y854692D01*
X1127906Y854469D01*
X1128868Y854288D01*
X1129930Y854152D01*
X1132351Y854007D01*
X1133710Y854000D01*
X1124801Y845090D01*
X1124793Y846449D01*
X1124649Y848870D01*
X1124512Y849931D01*
X1124332Y850894D01*
X1124108Y851758D01*
X1123842Y852522D01*
X1123532Y853187D01*
X1123179Y853754D01*
X1122783Y854221D01*
X1124579Y856017D01*
X1125046Y855621D01*
D02*
G37*
G36*
X976465Y820555D02*
X975850Y821158D01*
X974663Y822174D01*
X974092Y822587D01*
X973535Y822936D01*
X972992Y823222D01*
X972465Y823444D01*
X972001Y823588D01*
X971746Y823528D01*
X971425Y823415D01*
X971163Y823276D01*
X970959Y823112D01*
X970813Y822923D01*
X970726Y822709D01*
X970697Y822469D01*
Y827531D01*
X970726Y827292D01*
X970813Y827077D01*
X970959Y826888D01*
X971163Y826724D01*
X971425Y826585D01*
X971746Y826472D01*
X972001Y826413D01*
X972465Y826556D01*
X972992Y826778D01*
X973535Y827064D01*
X974092Y827413D01*
X974663Y827826D01*
X975249Y828302D01*
X976465Y829445D01*
X976465Y820555D01*
D02*
G37*
G36*
X1153179Y819178D02*
X1153611Y818894D01*
X1154063Y818688D01*
X1154536Y818558D01*
X1155030Y818506D01*
X1155545Y818532D01*
X1156081Y818635D01*
X1156637Y818816D01*
X1157215Y819074D01*
X1157813Y819409D01*
X1155505Y811070D01*
X1155053Y811928D01*
X1152580Y816050D01*
X1152325Y816369D01*
X1152095Y816621D01*
X1152768Y819540D01*
X1153179Y819178D01*
D02*
G37*
G36*
X1166289Y817842D02*
X1167476Y816826D01*
X1168047Y816413D01*
X1168604Y816064D01*
X1169146Y815778D01*
X1169674Y815556D01*
X1170188Y815397D01*
X1170686Y815302D01*
X1171171Y815270D01*
Y812730D01*
X1170686Y812698D01*
X1170188Y812603D01*
X1169674Y812444D01*
X1169146Y812222D01*
X1168604Y811936D01*
X1168047Y811587D01*
X1167476Y811174D01*
X1166889Y810698D01*
X1165674Y809555D01*
Y818445D01*
X1166289Y817842D01*
D02*
G37*
G36*
X1023444Y811150D02*
X1023087Y810735D01*
X1022769Y810245D01*
X1022490Y809678D01*
X1022250Y809035D01*
X1022048Y808316D01*
X1021885Y807521D01*
X1021760Y806650D01*
X1021628Y804678D01*
X1021620Y803578D01*
X1014077Y811122D01*
X1015177Y811130D01*
X1017148Y811262D01*
X1018020Y811386D01*
X1018815Y811549D01*
X1019534Y811751D01*
X1020177Y811992D01*
X1020743Y812271D01*
X1021234Y812589D01*
X1021648Y812946D01*
X1023444Y811150D01*
D02*
G37*
G36*
X1133396Y745344D02*
X1139176Y742664D01*
X1139795Y742478D01*
X1140316Y742366D01*
X1140738Y742329D01*
X1141516Y739789D01*
X1140862Y739738D01*
X1140220Y739584D01*
X1139591Y739328D01*
X1138974Y738969D01*
X1138369Y738507D01*
X1137777Y737943D01*
X1137197Y737276D01*
X1136629Y736507D01*
X1136075Y735635D01*
X1135532Y734661D01*
X1132089Y746052D01*
X1133396Y745344D01*
D02*
G37*
G36*
X1389970Y859135D02*
X1390017Y858568D01*
X1390159Y857940D01*
X1390397Y857253D01*
X1390728Y856506D01*
X1391155Y855699D01*
X1391677Y854833D01*
X1393004Y852919D01*
X1394711Y850765D01*
X1382174Y852025D01*
X1383173Y852856D01*
X1384854Y854456D01*
X1385538Y855224D01*
X1386116Y855971D01*
X1386589Y856698D01*
X1386957Y857403D01*
X1387220Y858087D01*
X1387377Y858750D01*
X1387430Y859392D01*
X1389970Y859135D01*
D02*
G37*
G36*
X1175847Y855621D02*
X1176413Y855268D01*
X1177078Y854958D01*
X1177842Y854692D01*
X1178706Y854469D01*
X1179669Y854289D01*
X1180730Y854152D01*
X1183151Y854007D01*
X1184510Y854000D01*
X1175601Y845090D01*
X1175593Y846449D01*
X1175449Y848870D01*
X1175312Y849932D01*
X1175132Y850894D01*
X1174908Y851758D01*
X1174642Y852522D01*
X1174332Y853187D01*
X1173979Y853754D01*
X1173584Y854221D01*
X1175379Y856017D01*
X1175847Y855621D01*
D02*
G37*
G36*
X1415999Y836418D02*
X1415756Y836260D01*
X1415542Y836065D01*
X1415356Y835833D01*
X1415199Y835565D01*
X1415071Y835261D01*
X1414971Y834920D01*
X1414899Y834542D01*
X1414856Y834128D01*
X1414842Y833678D01*
X1412302D01*
X1412287Y834108D01*
X1412243Y834500D01*
X1412170Y834856D01*
X1412068Y835175D01*
X1411936Y835457D01*
X1411775Y835702D01*
X1411585Y835911D01*
X1411366Y836083D01*
X1411117Y836217D01*
X1410839Y836315D01*
X1416270Y836540D01*
X1415999Y836418D01*
D02*
G37*
G36*
X1276465Y809555D02*
X1275850Y810158D01*
X1274663Y811174D01*
X1274092Y811587D01*
X1273535Y811936D01*
X1272992Y812222D01*
X1272465Y812444D01*
X1271951Y812603D01*
X1271452Y812698D01*
X1270968Y812730D01*
Y815270D01*
X1271452Y815302D01*
X1271951Y815397D01*
X1272465Y815556D01*
X1272992Y815778D01*
X1273535Y816064D01*
X1274092Y816413D01*
X1274663Y816826D01*
X1275249Y817302D01*
X1276465Y818445D01*
Y809555D01*
D02*
G37*
G36*
X1279937Y783650D02*
X1279075Y783642D01*
X1277517Y783521D01*
X1276822Y783409D01*
X1276181Y783262D01*
X1275595Y783081D01*
X1275065Y782865D01*
X1274589Y782614D01*
X1274169Y782328D01*
X1273804Y782009D01*
X1272009Y783804D01*
X1272328Y784169D01*
X1272614Y784589D01*
X1272865Y785065D01*
X1273081Y785595D01*
X1273262Y786181D01*
X1273409Y786822D01*
X1273521Y787517D01*
X1273599Y788269D01*
X1273650Y789937D01*
X1279937Y783650D01*
D02*
G37*
G36*
X1182437Y774151D02*
X1181575Y774142D01*
X1180017Y774022D01*
X1179322Y773909D01*
X1178681Y773762D01*
X1178095Y773581D01*
X1177565Y773365D01*
X1177089Y773114D01*
X1176669Y772829D01*
X1176304Y772509D01*
X1174509Y774305D01*
X1174828Y774670D01*
X1175114Y775090D01*
X1175365Y775565D01*
X1175581Y776095D01*
X1175762Y776681D01*
X1175909Y777322D01*
X1176021Y778018D01*
X1176099Y778769D01*
X1176150Y780437D01*
X1182437Y774151D01*
D02*
G37*
G36*
X1463910Y836001D02*
X1462551Y835993D01*
X1460130Y835849D01*
X1459069Y835712D01*
X1458106Y835531D01*
X1457242Y835308D01*
X1456478Y835042D01*
X1455813Y834732D01*
X1455247Y834379D01*
X1454780Y833983D01*
X1452984Y835779D01*
X1453379Y836246D01*
X1453732Y836813D01*
X1454042Y837478D01*
X1454308Y838242D01*
X1454532Y839106D01*
X1454712Y840069D01*
X1454849Y841130D01*
X1454993Y843551D01*
X1455001Y844910D01*
X1463910Y836001D01*
D02*
G37*
G36*
X1439536Y836049D02*
X1438108Y835883D01*
X1434491Y835254D01*
X1433507Y835000D01*
X1432634Y834725D01*
X1431872Y834428D01*
X1431221Y834109D01*
X1430681Y833768D01*
X1430251Y833405D01*
X1428247Y834993D01*
X1428667Y835487D01*
X1429025Y836069D01*
X1429321Y836739D01*
X1429555Y837496D01*
X1429728Y838342D01*
X1429840Y839275D01*
X1429890Y840296D01*
X1429878Y841404D01*
X1429669Y843885D01*
X1439536Y836049D01*
D02*
G37*
G36*
X1465465Y758555D02*
X1464850Y759158D01*
X1463663Y760174D01*
X1463092Y760587D01*
X1462535Y760937D01*
X1461993Y761222D01*
X1461465Y761444D01*
X1460951Y761603D01*
X1460453Y761699D01*
X1459968Y761730D01*
Y764270D01*
X1460453Y764302D01*
X1460951Y764397D01*
X1461465Y764556D01*
X1461993Y764778D01*
X1462535Y765064D01*
X1463092Y765413D01*
X1463663Y765826D01*
X1464250Y766302D01*
X1465465Y767445D01*
Y758555D01*
D02*
G37*
G36*
X1477992Y769196D02*
X1477672Y768831D01*
X1477386Y768411D01*
X1477136Y767936D01*
X1476920Y767405D01*
X1476738Y766820D01*
X1476591Y766179D01*
X1476479Y765483D01*
X1476401Y764732D01*
X1476350Y763064D01*
X1470064Y769350D01*
X1470925Y769358D01*
X1472483Y769479D01*
X1473179Y769591D01*
X1473819Y769738D01*
X1474405Y769920D01*
X1474935Y770136D01*
X1475411Y770387D01*
X1475831Y770672D01*
X1476196Y770992D01*
X1477992Y769196D01*
D02*
G37*
G36*
X1556445Y753509D02*
X1556081Y753828D01*
X1555661Y754114D01*
X1555185Y754364D01*
X1554655Y754581D01*
X1554069Y754762D01*
X1553428Y754909D01*
X1552733Y755021D01*
X1551981Y755099D01*
X1550314Y755150D01*
X1556600Y761436D01*
X1556608Y760575D01*
X1556729Y759017D01*
X1556841Y758322D01*
X1556988Y757681D01*
X1557169Y757095D01*
X1557386Y756565D01*
X1557636Y756089D01*
X1557922Y755669D01*
X1558241Y755304D01*
X1556445Y753509D01*
D02*
G37*
G36*
X1567730Y751510D02*
X1567702Y751953D01*
X1567617Y752431D01*
X1567475Y752943D01*
X1567277Y753488D01*
X1567022Y754067D01*
X1566710Y754680D01*
X1565916Y756008D01*
X1565435Y756723D01*
X1564896Y757472D01*
X1573675Y756072D01*
X1573028Y755587D01*
X1572449Y755099D01*
X1571939Y754609D01*
X1571496Y754115D01*
X1571121Y753619D01*
X1570815Y753120D01*
X1570576Y752618D01*
X1570406Y752114D01*
X1570304Y751606D01*
X1570270Y751096D01*
X1567730Y751510D01*
D02*
G37*
G36*
X1183330Y983090D02*
X1183280Y983700D01*
X1183129Y984350D01*
X1182877Y985040D01*
X1182525Y985769D01*
X1182073Y986537D01*
X1181519Y987345D01*
X1180865Y988193D01*
X1179256Y990006D01*
X1178300Y990973D01*
X1190900D01*
X1189944Y990006D01*
X1188335Y988193D01*
X1187681Y987345D01*
X1187128Y986537D01*
X1186675Y985769D01*
X1186323Y985040D01*
X1186071Y984350D01*
X1185920Y983700D01*
X1185870Y983090D01*
X1183330D01*
D02*
G37*
G36*
X1312730Y1058968D02*
X1312698Y1059453D01*
X1312603Y1059951D01*
X1312444Y1060465D01*
X1312222Y1060993D01*
X1311936Y1061535D01*
X1311587Y1062092D01*
X1311174Y1062663D01*
X1310698Y1063250D01*
X1309555Y1064465D01*
X1318445D01*
X1317842Y1063850D01*
X1316826Y1062663D01*
X1316413Y1062092D01*
X1316064Y1061535D01*
X1315778Y1060993D01*
X1315556Y1060465D01*
X1315397Y1059951D01*
X1315302Y1059453D01*
X1315270Y1058968D01*
X1312730D01*
D02*
G37*
G36*
X1335032Y1037730D02*
X1334547Y1037698D01*
X1334049Y1037603D01*
X1333535Y1037444D01*
X1333008Y1037222D01*
X1332465Y1036936D01*
X1331908Y1036587D01*
X1331337Y1036174D01*
X1330751Y1035698D01*
X1329535Y1034555D01*
Y1043445D01*
X1330150Y1042842D01*
X1331337Y1041826D01*
X1331908Y1041413D01*
X1332465Y1041064D01*
X1333008Y1040778D01*
X1333535Y1040556D01*
X1334049Y1040397D01*
X1334547Y1040302D01*
X1335032Y1040270D01*
Y1037730D01*
D02*
G37*
G36*
X1335968Y1040270D02*
X1336452Y1040302D01*
X1336951Y1040397D01*
X1337465Y1040556D01*
X1337993Y1040778D01*
X1338535Y1041064D01*
X1339092Y1041413D01*
X1339663Y1041826D01*
X1340249Y1042302D01*
X1341465Y1043445D01*
Y1034555D01*
X1340850Y1035158D01*
X1339663Y1036174D01*
X1339092Y1036587D01*
X1338535Y1036936D01*
X1337993Y1037222D01*
X1337465Y1037444D01*
X1336951Y1037603D01*
X1336452Y1037698D01*
X1335968Y1037730D01*
Y1040270D01*
D02*
G37*
G36*
X1356364Y1102682D02*
X1356762Y1102334D01*
X1357197Y1102048D01*
X1357668Y1101826D01*
X1358177Y1101666D01*
X1358721Y1101569D01*
X1359303Y1101534D01*
X1359921Y1101563D01*
X1360576Y1101654D01*
X1361267Y1101808D01*
X1361995Y1102025D01*
X1357936Y1094116D01*
X1357632Y1095067D01*
X1356201Y1098709D01*
X1355932Y1099216D01*
X1355669Y1099649D01*
X1355412Y1100008D01*
X1355161Y1100294D01*
X1356364Y1102682D01*
D02*
G37*
G36*
X1366270Y1120032D02*
X1366302Y1119547D01*
X1366397Y1119048D01*
X1366556Y1118535D01*
X1366778Y1118007D01*
X1367064Y1117465D01*
X1367413Y1116908D01*
X1367826Y1116336D01*
X1368302Y1115750D01*
X1369445Y1114535D01*
X1360555D01*
X1361158Y1115150D01*
X1362174Y1116336D01*
X1362587Y1116908D01*
X1362936Y1117465D01*
X1363222Y1118007D01*
X1363444Y1118535D01*
X1363603Y1119048D01*
X1363698Y1119547D01*
X1363730Y1120032D01*
X1366270D01*
D02*
G37*
G36*
X1440239Y986174D02*
X1440220Y986587D01*
X1440163Y986959D01*
X1440068Y987287D01*
X1439934Y987574D01*
X1439763Y987818D01*
X1439553Y988020D01*
X1439305Y988180D01*
X1439019Y988297D01*
X1438695Y988372D01*
X1438333Y988404D01*
X1444315Y990448D01*
X1444024Y990178D01*
X1443763Y989873D01*
X1443532Y989533D01*
X1443332Y989158D01*
X1443163Y988748D01*
X1443025Y988303D01*
X1442918Y987823D01*
X1442841Y987308D01*
X1442795Y986759D01*
X1442779Y986174D01*
X1440239D01*
D02*
G37*
G36*
X1486144Y1029586D02*
X1485723Y1029578D01*
X1484982Y1029511D01*
X1484662Y1029452D01*
X1484377Y1029377D01*
X1484125Y1029285D01*
X1483907Y1029176D01*
X1483722Y1029051D01*
X1483572Y1028908D01*
X1483455Y1028749D01*
X1484253Y1033106D01*
X1484303Y1032920D01*
X1484384Y1032753D01*
X1484496Y1032606D01*
X1484639Y1032479D01*
X1484812Y1032371D01*
X1485017Y1032283D01*
X1485253Y1032214D01*
X1485519Y1032165D01*
X1485816Y1032136D01*
X1486144Y1032126D01*
Y1029586D01*
D02*
G37*
G36*
X1494804Y1039992D02*
X1495169Y1039671D01*
X1495589Y1039386D01*
X1496064Y1039136D01*
X1496595Y1038919D01*
X1497180Y1038738D01*
X1497821Y1038591D01*
X1498517Y1038479D01*
X1499268Y1038401D01*
X1500936Y1038350D01*
X1494650Y1032064D01*
X1494642Y1032925D01*
X1494521Y1034482D01*
X1494409Y1035179D01*
X1494262Y1035819D01*
X1494080Y1036405D01*
X1493864Y1036935D01*
X1493614Y1037411D01*
X1493328Y1037831D01*
X1493008Y1038195D01*
X1494804Y1039992D01*
D02*
G37*
G36*
X1524122Y1064465D02*
X1530445D01*
X1529842Y1063850D01*
X1528826Y1062663D01*
X1528413Y1062092D01*
X1528064Y1061535D01*
X1527778Y1060993D01*
X1527556Y1060465D01*
X1527397Y1059951D01*
X1527302Y1059453D01*
X1527270Y1058968D01*
X1524730D01*
X1524698Y1059453D01*
X1524603Y1059951D01*
X1524444Y1060465D01*
X1524222Y1060993D01*
X1523936Y1061535D01*
X1523587Y1062092D01*
X1523302Y1062487D01*
X1522822Y1062409D01*
X1522181Y1062262D01*
X1521595Y1062081D01*
X1521065Y1061865D01*
X1520589Y1061614D01*
X1520169Y1061329D01*
X1519805Y1061009D01*
X1518009Y1062805D01*
X1518328Y1063169D01*
X1518614Y1063590D01*
X1518864Y1064065D01*
X1519081Y1064595D01*
X1519262Y1065181D01*
X1519409Y1065822D01*
X1519521Y1066518D01*
X1519599Y1067269D01*
X1519650Y1068937D01*
X1524122Y1064465D01*
D02*
G37*
G36*
X1524841Y1085110D02*
X1525355Y1085144D01*
X1525863Y1085247D01*
X1526366Y1085419D01*
X1526863Y1085659D01*
X1527354Y1085968D01*
X1527841Y1086345D01*
X1528321Y1086792D01*
X1528796Y1087306D01*
X1529266Y1087890D01*
X1529730Y1088542D01*
X1531354Y1079801D01*
X1530583Y1080327D01*
X1528494Y1081573D01*
X1527873Y1081878D01*
X1527288Y1082127D01*
X1526741Y1082321D01*
X1526232Y1082459D01*
X1525759Y1082542D01*
X1525324Y1082570D01*
X1524841Y1085110D01*
D02*
G37*
G36*
X1329842Y1350850D02*
X1328826Y1349663D01*
X1328413Y1349092D01*
X1328064Y1348535D01*
X1327778Y1347992D01*
X1327556Y1347464D01*
X1327397Y1346951D01*
X1327302Y1346452D01*
X1327270Y1345968D01*
X1324730D01*
X1324698Y1346452D01*
X1324603Y1346951D01*
X1324444Y1347464D01*
X1324222Y1347992D01*
X1323936Y1348535D01*
X1323587Y1349092D01*
X1323174Y1349663D01*
X1322698Y1350249D01*
X1321555Y1351465D01*
X1330445D01*
X1329842Y1350850D01*
D02*
G37*
G36*
X1342842Y1288850D02*
X1341826Y1287663D01*
X1341413Y1287092D01*
X1341064Y1286535D01*
X1340778Y1285992D01*
X1340556Y1285465D01*
X1340397Y1284951D01*
X1340302Y1284453D01*
X1340270Y1283968D01*
X1337730D01*
X1337698Y1284453D01*
X1337603Y1284951D01*
X1337444Y1285465D01*
X1337222Y1285992D01*
X1336936Y1286535D01*
X1336587Y1287092D01*
X1336174Y1287663D01*
X1335698Y1288249D01*
X1334555Y1289465D01*
X1343445D01*
X1342842Y1288850D01*
D02*
G37*
G36*
X1093083Y1250479D02*
X1092468Y1251082D01*
X1091281Y1252098D01*
X1090709Y1252511D01*
X1090153Y1252860D01*
X1089610Y1253146D01*
X1089082Y1253368D01*
X1088569Y1253527D01*
X1088070Y1253622D01*
X1087586Y1253654D01*
Y1256194D01*
X1088070Y1256225D01*
X1088569Y1256321D01*
X1089082Y1256479D01*
X1089610Y1256702D01*
X1090153Y1256987D01*
X1090709Y1257337D01*
X1091281Y1257749D01*
X1091867Y1258226D01*
X1093083Y1259369D01*
Y1250479D01*
D02*
G37*
G36*
X1034552Y1224297D02*
X1034647Y1223799D01*
X1034806Y1223285D01*
X1035028Y1222757D01*
X1035314Y1222215D01*
X1035663Y1221658D01*
X1036076Y1221087D01*
X1036552Y1220501D01*
X1037695Y1219285D01*
X1028805D01*
X1029408Y1219900D01*
X1030424Y1221087D01*
X1030837Y1221658D01*
X1031186Y1222215D01*
X1031472Y1222757D01*
X1031694Y1223285D01*
X1031853Y1223799D01*
X1031948Y1224297D01*
X1031980Y1224782D01*
X1034520D01*
X1034552Y1224297D01*
D02*
G37*
G36*
X1050304Y1218145D02*
X1050408Y1217636D01*
X1050580Y1217134D01*
X1050821Y1216640D01*
X1051131Y1216153D01*
X1051510Y1215672D01*
X1051958Y1215199D01*
X1052475Y1214733D01*
X1053061Y1214273D01*
X1053715Y1213821D01*
X1044999Y1212071D01*
X1045518Y1212855D01*
X1046747Y1214969D01*
X1047047Y1215595D01*
X1047484Y1216730D01*
X1047621Y1217239D01*
X1047703Y1217709D01*
X1047730Y1218139D01*
X1050270Y1218660D01*
X1050304Y1218145D01*
D02*
G37*
G36*
X1050186Y1202150D02*
X1049325Y1202142D01*
X1047767Y1202021D01*
X1047072Y1201909D01*
X1046431Y1201762D01*
X1045845Y1201581D01*
X1045315Y1201365D01*
X1044839Y1201114D01*
X1044419Y1200828D01*
X1044054Y1200508D01*
X1042259Y1202305D01*
X1042578Y1202669D01*
X1042864Y1203089D01*
X1043114Y1203565D01*
X1043331Y1204095D01*
X1043512Y1204681D01*
X1043659Y1205322D01*
X1043771Y1206017D01*
X1043849Y1206769D01*
X1043900Y1208437D01*
X1050186Y1202150D01*
D02*
G37*
G36*
X1079842Y1188850D02*
X1078826Y1187663D01*
X1078413Y1187092D01*
X1078064Y1186535D01*
X1077778Y1185993D01*
X1077556Y1185465D01*
X1077397Y1184951D01*
X1077302Y1184453D01*
X1077270Y1183968D01*
X1074730D01*
X1074698Y1184453D01*
X1074603Y1184951D01*
X1074444Y1185465D01*
X1074222Y1185993D01*
X1073936Y1186535D01*
X1073587Y1187092D01*
X1073174Y1187663D01*
X1072698Y1188250D01*
X1071555Y1189465D01*
X1080445D01*
X1079842Y1188850D01*
D02*
G37*
G36*
X960164Y1188198D02*
X960252Y1187984D01*
X960397Y1187795D01*
X960601Y1187631D01*
X960864Y1187492D01*
X961184Y1187378D01*
X961563Y1187290D01*
X962000Y1187227D01*
X962496Y1187189D01*
X963050Y1187177D01*
Y1184637D01*
X962496Y1184624D01*
X962000Y1184586D01*
X961563Y1184523D01*
X961184Y1184435D01*
X960864Y1184321D01*
X960601Y1184183D01*
X960397Y1184019D01*
X960252Y1183830D01*
X960164Y1183615D01*
X960135Y1183375D01*
Y1188438D01*
X960164Y1188198D01*
D02*
G37*
G36*
X965985Y1186579D02*
X966223Y1186395D01*
X966456Y1186250D01*
X966683Y1186147D01*
X966905Y1186084D01*
X967122Y1186062D01*
X967334Y1186080D01*
X967540Y1186140D01*
X967741Y1186240D01*
X967937Y1186380D01*
X965666Y1181957D01*
X965665Y1182211D01*
X965626Y1182476D01*
X965549Y1182753D01*
X965434Y1183041D01*
X965281Y1183341D01*
X965090Y1183652D01*
X964861Y1183974D01*
X964594Y1184307D01*
X963946Y1185009D01*
X965742Y1186805D01*
X965985Y1186579D01*
D02*
G37*
G36*
X1025899Y1175457D02*
X1025084Y1175547D01*
X1024318Y1175590D01*
X1023600Y1175586D01*
X1022930Y1175534D01*
X1022308Y1175436D01*
X1021734Y1175291D01*
X1021208Y1175098D01*
X1020730Y1174858D01*
X1020301Y1174572D01*
X1019920Y1174238D01*
X1018353Y1176263D01*
X1018653Y1176605D01*
X1018933Y1177009D01*
X1019193Y1177475D01*
X1019433Y1178003D01*
X1019652Y1178593D01*
X1019850Y1179245D01*
X1020187Y1180736D01*
X1020324Y1181574D01*
X1020442Y1182475D01*
X1025899Y1175457D01*
D02*
G37*
G36*
X1077304Y1176644D02*
X1077406Y1176136D01*
X1077576Y1175632D01*
X1077815Y1175130D01*
X1078121Y1174631D01*
X1078496Y1174135D01*
X1078939Y1173641D01*
X1079449Y1173151D01*
X1080028Y1172663D01*
X1080675Y1172178D01*
X1071896Y1170778D01*
X1072435Y1171527D01*
X1073710Y1173569D01*
X1074022Y1174183D01*
X1074277Y1174762D01*
X1074475Y1175307D01*
X1074616Y1175819D01*
X1074702Y1176297D01*
X1074730Y1176740D01*
X1077270Y1177154D01*
X1077304Y1176644D01*
D02*
G37*
G36*
X962886Y1154852D02*
X962444Y1155509D01*
X961993Y1156096D01*
X961535Y1156615D01*
X961068Y1157064D01*
X960592Y1157444D01*
X960108Y1157755D01*
X959863Y1157876D01*
X959821Y1157856D01*
X959583Y1157693D01*
X959400Y1157505D01*
X959270Y1157291D01*
X959195Y1157053D01*
X959393Y1158074D01*
X959116Y1158170D01*
X958607Y1158274D01*
X958090Y1158308D01*
X958646Y1160848D01*
X959071Y1160875D01*
X959538Y1160956D01*
X959974Y1161072D01*
X960176Y1162115D01*
X960158Y1161874D01*
X960204Y1161659D01*
X960314Y1161469D01*
X960487Y1161304D01*
X960553Y1161266D01*
X960594Y1161280D01*
X961183Y1161523D01*
X962485Y1162170D01*
X963197Y1162574D01*
X964745Y1163545D01*
X962886Y1154852D01*
D02*
G37*
G36*
X1080675Y1161822D02*
X1080028Y1161337D01*
X1079449Y1160849D01*
X1078939Y1160359D01*
X1078496Y1159865D01*
X1078121Y1159369D01*
X1077815Y1158870D01*
X1077576Y1158368D01*
X1077406Y1157864D01*
X1077304Y1157356D01*
X1077270Y1156846D01*
X1074730Y1157260D01*
X1074702Y1157703D01*
X1074616Y1158181D01*
X1074475Y1158693D01*
X1074277Y1159238D01*
X1074022Y1159817D01*
X1073710Y1160431D01*
X1072435Y1162473D01*
X1071896Y1163222D01*
X1080675Y1161822D01*
D02*
G37*
G36*
X990842Y1160850D02*
X989826Y1159664D01*
X989413Y1159092D01*
X989064Y1158535D01*
X988778Y1157993D01*
X988556Y1157465D01*
X988397Y1156952D01*
X988302Y1156453D01*
X988270Y1155968D01*
X985730D01*
X985698Y1156453D01*
X985603Y1156952D01*
X985444Y1157465D01*
X985222Y1157993D01*
X984936Y1158535D01*
X984587Y1159092D01*
X984174Y1159664D01*
X983698Y1160250D01*
X982555Y1161465D01*
X991445D01*
X990842Y1160850D01*
D02*
G37*
G36*
X1077304Y1150644D02*
X1077406Y1150136D01*
X1077576Y1149632D01*
X1077815Y1149130D01*
X1078121Y1148631D01*
X1078496Y1148135D01*
X1078939Y1147641D01*
X1079449Y1147151D01*
X1080028Y1146663D01*
X1080675Y1146178D01*
X1071896Y1144778D01*
X1072435Y1145527D01*
X1073710Y1147570D01*
X1074022Y1148183D01*
X1074277Y1148762D01*
X1074475Y1149307D01*
X1074616Y1149819D01*
X1074702Y1150297D01*
X1074730Y1150740D01*
X1077270Y1151154D01*
X1077304Y1150644D01*
D02*
G37*
G36*
X959535Y1138291D02*
X959623Y1138077D01*
X959768Y1137888D01*
X959973Y1137724D01*
X960235Y1137585D01*
X960555Y1137471D01*
X960934Y1137383D01*
X961372Y1137320D01*
X961867Y1137282D01*
X962421Y1137270D01*
Y1134730D01*
X961867Y1134717D01*
X961372Y1134679D01*
X960934Y1134616D01*
X960555Y1134528D01*
X960235Y1134415D01*
X959973Y1134276D01*
X959768Y1134112D01*
X959623Y1133923D01*
X959535Y1133708D01*
X959506Y1133469D01*
Y1138531D01*
X959535Y1138291D01*
D02*
G37*
G36*
X968465Y1131555D02*
X967850Y1132158D01*
X966663Y1133174D01*
X966092Y1133587D01*
X965535Y1133936D01*
X964992Y1134222D01*
X964464Y1134444D01*
X963951Y1134603D01*
X963452Y1134698D01*
X962968Y1134730D01*
Y1137270D01*
X963452Y1137301D01*
X963951Y1137397D01*
X964464Y1137555D01*
X964992Y1137778D01*
X965535Y1138064D01*
X966092Y1138413D01*
X966663Y1138826D01*
X967249Y1139302D01*
X968465Y1140445D01*
Y1131555D01*
D02*
G37*
G36*
X1080675Y1135822D02*
X1080028Y1135337D01*
X1079449Y1134849D01*
X1078939Y1134359D01*
X1078496Y1133865D01*
X1078121Y1133369D01*
X1077815Y1132870D01*
X1077576Y1132368D01*
X1077406Y1131864D01*
X1077304Y1131356D01*
X1077270Y1130846D01*
X1074730Y1131260D01*
X1074702Y1131703D01*
X1074616Y1132181D01*
X1074475Y1132693D01*
X1074277Y1133238D01*
X1074022Y1133817D01*
X1073710Y1134430D01*
X1072435Y1136473D01*
X1071896Y1137222D01*
X1080675Y1135822D01*
D02*
G37*
G36*
X1077302Y1125547D02*
X1077397Y1125049D01*
X1077556Y1124535D01*
X1077778Y1124007D01*
X1078064Y1123465D01*
X1078413Y1122908D01*
X1078826Y1122336D01*
X1079302Y1121750D01*
X1080445Y1120535D01*
X1071555D01*
X1072158Y1121150D01*
X1073174Y1122336D01*
X1073587Y1122908D01*
X1073936Y1123465D01*
X1074222Y1124007D01*
X1074444Y1124535D01*
X1074603Y1125049D01*
X1074698Y1125547D01*
X1074730Y1126031D01*
X1077270D01*
X1077302Y1125547D01*
D02*
G37*
G36*
X1000402Y1424072D02*
X1000273Y1423896D01*
X1000207Y1423693D01*
X1000205Y1423462D01*
X1000268Y1423203D01*
X1000394Y1422915D01*
X1000583Y1422600D01*
X1000837Y1422257D01*
X1001154Y1421886D01*
X1001536Y1421486D01*
X999308Y1420122D01*
X998899Y1420513D01*
X998140Y1421131D01*
X997790Y1421357D01*
X997459Y1421528D01*
X997149Y1421644D01*
X996858Y1421705D01*
X996587Y1421711D01*
X996335Y1421662D01*
X996103Y1421558D01*
X1000595Y1424219D01*
X1000402Y1424072D01*
D02*
G37*
G36*
X1001535Y1406292D02*
X1001623Y1406077D01*
X1001768Y1405888D01*
X1001972Y1405724D01*
X1002235Y1405585D01*
X1002555Y1405472D01*
X1002934Y1405384D01*
X1003371Y1405321D01*
X1003867Y1405283D01*
X1004421Y1405270D01*
Y1402730D01*
X1003867Y1402718D01*
X1003371Y1402680D01*
X1002934Y1402617D01*
X1002555Y1402529D01*
X1002235Y1402415D01*
X1001972Y1402276D01*
X1001768Y1402112D01*
X1001623Y1401923D01*
X1001535Y1401709D01*
X1001506Y1401469D01*
Y1406531D01*
X1001535Y1406292D01*
D02*
G37*
G36*
X1040465Y1399555D02*
X1039850Y1400159D01*
X1038664Y1401174D01*
X1038092Y1401587D01*
X1037535Y1401936D01*
X1036993Y1402222D01*
X1036465Y1402444D01*
X1035952Y1402603D01*
X1035453Y1402699D01*
X1034968Y1402730D01*
Y1405270D01*
X1035453Y1405302D01*
X1035952Y1405397D01*
X1036465Y1405556D01*
X1036993Y1405778D01*
X1037535Y1406064D01*
X1038092Y1406413D01*
X1038664Y1406826D01*
X1039250Y1407302D01*
X1040465Y1408445D01*
Y1399555D01*
D02*
G37*
G36*
X1000907Y1386421D02*
X1000526Y1386022D01*
X1000208Y1385650D01*
X999955Y1385307D01*
X999765Y1384992D01*
X999639Y1384704D01*
X999576Y1384445D01*
X999578Y1384214D01*
X999644Y1384011D01*
X999773Y1383835D01*
X999966Y1383688D01*
X995474Y1386349D01*
X995706Y1386245D01*
X995958Y1386196D01*
X996229Y1386202D01*
X996520Y1386263D01*
X996831Y1386379D01*
X997161Y1386550D01*
X997511Y1386776D01*
X997881Y1387057D01*
X998270Y1387394D01*
X998679Y1387785D01*
X1000907Y1386421D01*
D02*
G37*
G36*
X985110Y1387393D02*
X985869Y1386776D01*
X986219Y1386550D01*
X986550Y1386379D01*
X986860Y1386263D01*
X987151Y1386201D01*
X987422Y1386196D01*
X987674Y1386245D01*
X987906Y1386349D01*
X983414Y1383688D01*
X983607Y1383835D01*
X983736Y1384011D01*
X983802Y1384214D01*
X983804Y1384445D01*
X983742Y1384704D01*
X983615Y1384992D01*
X983426Y1385307D01*
X983172Y1385650D01*
X982855Y1386021D01*
X982473Y1386421D01*
X984701Y1387785D01*
X985110Y1387393D01*
D02*
G37*
G36*
X1089700Y1388557D02*
X1089727Y1388138D01*
X1089806Y1387676D01*
X1089939Y1387171D01*
X1090125Y1386622D01*
X1090363Y1386029D01*
X1091000Y1384714D01*
X1091397Y1383992D01*
X1092352Y1382417D01*
X1083690Y1384419D01*
X1084350Y1384848D01*
X1084940Y1385287D01*
X1085460Y1385736D01*
X1085911Y1386195D01*
X1086293Y1386664D01*
X1086605Y1387142D01*
X1086848Y1387631D01*
X1087021Y1388130D01*
X1087125Y1388639D01*
X1087160Y1389158D01*
X1089700Y1388557D01*
D02*
G37*
G36*
X979899Y1430177D02*
X980452Y1430190D01*
X980948Y1430227D01*
X981385Y1430291D01*
X981764Y1430379D01*
X982084Y1430492D01*
X982347Y1430631D01*
X982551Y1430795D01*
X982697Y1430984D01*
X982784Y1431198D01*
X982813Y1431438D01*
Y1426376D01*
X982784Y1426615D01*
X982697Y1426830D01*
X982551Y1427019D01*
X982347Y1427183D01*
X982084Y1427322D01*
X981764Y1427435D01*
X981385Y1427523D01*
X980948Y1427587D01*
X980452Y1427624D01*
X979899Y1427637D01*
Y1430177D01*
D02*
G37*
G36*
X953195Y1585009D02*
X952831Y1585329D01*
X952411Y1585614D01*
X951935Y1585865D01*
X951405Y1586081D01*
X950819Y1586262D01*
X950178Y1586409D01*
X949482Y1586521D01*
X948731Y1586599D01*
X947063Y1586650D01*
X953350Y1592937D01*
X953358Y1592075D01*
X953479Y1590517D01*
X953591Y1589822D01*
X953738Y1589181D01*
X953919Y1588595D01*
X954135Y1588065D01*
X954386Y1587590D01*
X954671Y1587169D01*
X954991Y1586805D01*
X953195Y1585009D01*
D02*
G37*
G36*
X954572Y1602241D02*
X954175Y1602588D01*
X953741Y1602874D01*
X953268Y1603098D01*
X952758Y1603260D01*
X952210Y1603361D01*
X951625Y1603401D01*
X951002Y1603379D01*
X950341Y1603295D01*
X949642Y1603150D01*
X948905Y1602943D01*
X953094Y1610784D01*
X953380Y1609838D01*
X954492Y1606782D01*
X954762Y1606199D01*
X955292Y1605252D01*
X955552Y1604888D01*
X955809Y1604596D01*
X954572Y1602241D01*
D02*
G37*
G36*
X1111264Y1498468D02*
X1110873Y1498059D01*
X1110259Y1497303D01*
X1110035Y1496955D01*
X1109867Y1496627D01*
X1109807Y1496463D01*
X1110003Y1496376D01*
X1110334Y1496273D01*
X1110718Y1496194D01*
X1111155Y1496137D01*
X1111645Y1496103D01*
X1112187Y1496092D01*
X1112364Y1493552D01*
X1111880Y1493540D01*
X1111451Y1493506D01*
X1111078Y1493449D01*
X1110761Y1493368D01*
X1110499Y1493265D01*
X1110292Y1493138D01*
X1110140Y1492989D01*
X1110043Y1492817D01*
X1110002Y1492621D01*
X1110016Y1492403D01*
X1109340Y1496109D01*
X1107088Y1499676D01*
X1107241Y1499488D01*
X1107421Y1499363D01*
X1107628Y1499302D01*
X1107862Y1499303D01*
X1108124Y1499368D01*
X1108414Y1499497D01*
X1108731Y1499688D01*
X1109075Y1499943D01*
X1109447Y1500261D01*
X1109846Y1500642D01*
X1111264Y1498468D01*
D02*
G37*
G36*
X1136414Y1494144D02*
X1136102Y1494139D01*
X1135586Y1494100D01*
X1135381Y1494066D01*
X1135213Y1494023D01*
X1135079Y1493970D01*
X1134982Y1493907D01*
X1134920Y1493834D01*
X1134894Y1493752D01*
X1134904Y1493660D01*
X1133913Y1497151D01*
X1133962Y1497062D01*
X1134055Y1496983D01*
X1134194Y1496913D01*
X1134377Y1496852D01*
X1134604Y1496801D01*
X1134877Y1496759D01*
X1135556Y1496703D01*
X1136414Y1496684D01*
Y1494144D01*
D02*
G37*
G36*
X1292730Y1369968D02*
X1292698Y1370452D01*
X1292603Y1370951D01*
X1292444Y1371464D01*
X1292222Y1371992D01*
X1291936Y1372535D01*
X1291587Y1373092D01*
X1291174Y1373663D01*
X1290698Y1374249D01*
X1289555Y1375465D01*
X1298445D01*
X1297842Y1374850D01*
X1296826Y1373663D01*
X1296413Y1373092D01*
X1296064Y1372535D01*
X1295778Y1371992D01*
X1295556Y1371464D01*
X1295397Y1370951D01*
X1295302Y1370452D01*
X1295270Y1369968D01*
X1292730D01*
D02*
G37*
G36*
X1302102Y1373898D02*
X1302451Y1374287D01*
X1302757Y1374715D01*
X1303020Y1375181D01*
X1303241Y1375686D01*
X1303418Y1376229D01*
X1303554Y1376811D01*
X1303646Y1377431D01*
X1303696Y1378090D01*
X1303703Y1378788D01*
X1303668Y1379523D01*
X1309523Y1373668D01*
X1308788Y1373703D01*
X1308090Y1373696D01*
X1307431Y1373646D01*
X1306811Y1373553D01*
X1306229Y1373418D01*
X1305686Y1373240D01*
X1305181Y1373020D01*
X1304715Y1372757D01*
X1304287Y1372451D01*
X1303898Y1372102D01*
X1302102Y1373898D01*
D02*
G37*
G36*
X1312677Y1395570D02*
X1312242Y1395542D01*
X1311769Y1395459D01*
X1311259Y1395321D01*
X1310712Y1395127D01*
X1310128Y1394878D01*
X1309506Y1394573D01*
X1308151Y1393798D01*
X1306647Y1392802D01*
X1308271Y1401542D01*
X1308735Y1400890D01*
X1309204Y1400306D01*
X1309679Y1399792D01*
X1310160Y1399345D01*
X1310646Y1398968D01*
X1311138Y1398659D01*
X1311635Y1398419D01*
X1312137Y1398247D01*
X1312646Y1398144D01*
X1313159Y1398110D01*
X1312677Y1395570D01*
D02*
G37*
G36*
X1183270Y1419154D02*
X1183304Y1418644D01*
X1183406Y1418136D01*
X1183577Y1417632D01*
X1183815Y1417130D01*
X1184121Y1416631D01*
X1184496Y1416134D01*
X1184939Y1415641D01*
X1185450Y1415151D01*
X1186029Y1414663D01*
X1186675Y1414178D01*
X1177896Y1412778D01*
X1178435Y1413527D01*
X1179710Y1415570D01*
X1180022Y1416183D01*
X1180277Y1416762D01*
X1180475Y1417307D01*
X1180617Y1417819D01*
X1180702Y1418297D01*
X1180730Y1418741D01*
X1183270Y1419154D01*
D02*
G37*
G36*
X1151178Y1478235D02*
X1151166Y1478789D01*
X1151128Y1479284D01*
X1151065Y1479721D01*
X1150976Y1480100D01*
X1150863Y1480421D01*
X1150724Y1480683D01*
X1150560Y1480887D01*
X1150371Y1481033D01*
X1150157Y1481120D01*
X1149917Y1481149D01*
X1154979D01*
X1154740Y1481120D01*
X1154525Y1481033D01*
X1154336Y1480887D01*
X1154172Y1480683D01*
X1154034Y1480421D01*
X1153920Y1480100D01*
X1153832Y1479721D01*
X1153769Y1479284D01*
X1153731Y1478789D01*
X1153718Y1478235D01*
X1151178D01*
D02*
G37*
G36*
X1169032Y1562730D02*
X1168547Y1562698D01*
X1168049Y1562603D01*
X1167535Y1562444D01*
X1167008Y1562222D01*
X1166465Y1561936D01*
X1165908Y1561587D01*
X1165337Y1561174D01*
X1164751Y1560698D01*
X1163535Y1559555D01*
Y1568445D01*
X1164150Y1567842D01*
X1165337Y1566826D01*
X1165908Y1566413D01*
X1166465Y1566064D01*
X1167008Y1565778D01*
X1167535Y1565556D01*
X1168049Y1565397D01*
X1168547Y1565302D01*
X1169032Y1565270D01*
Y1562730D01*
D02*
G37*
G36*
X1170032Y1579730D02*
X1169548Y1579698D01*
X1169049Y1579603D01*
X1168536Y1579444D01*
X1168008Y1579222D01*
X1167465Y1578936D01*
X1166908Y1578587D01*
X1166337Y1578174D01*
X1165751Y1577698D01*
X1164535Y1576555D01*
Y1585445D01*
X1165150Y1584842D01*
X1166337Y1583826D01*
X1166908Y1583413D01*
X1167465Y1583064D01*
X1168008Y1582778D01*
X1168536Y1582556D01*
X1169049Y1582397D01*
X1169548Y1582302D01*
X1170032Y1582270D01*
Y1579730D01*
D02*
G37*
G36*
X1279590Y1591245D02*
X1279288Y1591512D01*
X1278915Y1591776D01*
X1278472Y1592041D01*
X1277957Y1592303D01*
X1276717Y1592826D01*
X1275990Y1593086D01*
X1273387Y1593858D01*
X1281108Y1598264D01*
X1280919Y1597513D01*
X1280789Y1596803D01*
X1280719Y1596131D01*
X1280708Y1595500D01*
X1280756Y1594907D01*
X1280864Y1594355D01*
X1281031Y1593841D01*
X1281258Y1593367D01*
X1281544Y1592933D01*
X1281889Y1592538D01*
X1279590Y1591245D01*
D02*
G37*
G36*
X1297805Y1607991D02*
X1298169Y1607671D01*
X1298589Y1607386D01*
X1299065Y1607135D01*
X1299595Y1606919D01*
X1300181Y1606738D01*
X1300821Y1606591D01*
X1301517Y1606479D01*
X1302269Y1606401D01*
X1303936Y1606349D01*
X1297650Y1600063D01*
X1297642Y1600925D01*
X1297521Y1602482D01*
X1297409Y1603178D01*
X1297262Y1603819D01*
X1297081Y1604405D01*
X1296864Y1604935D01*
X1296614Y1605410D01*
X1296328Y1605831D01*
X1296008Y1606195D01*
X1297805Y1607991D01*
D02*
G37*
G36*
X1304328Y1585827D02*
X1304788Y1585841D01*
X1305217Y1585883D01*
X1305614Y1585953D01*
X1305981Y1586051D01*
X1306317Y1586177D01*
X1306622Y1586332D01*
X1306896Y1586514D01*
X1307139Y1586724D01*
X1307352Y1586963D01*
X1307533Y1587229D01*
X1307053Y1581775D01*
X1306924Y1582062D01*
X1306763Y1582319D01*
X1306570Y1582546D01*
X1306345Y1582742D01*
X1306089Y1582909D01*
X1305800Y1583045D01*
X1305480Y1583151D01*
X1305128Y1583226D01*
X1304744Y1583271D01*
X1304328Y1583287D01*
Y1585827D01*
D02*
G37*
G36*
X1313997Y1598570D02*
X1313518Y1598539D01*
X1313021Y1598445D01*
X1312508Y1598288D01*
X1311976Y1598069D01*
X1311427Y1597788D01*
X1310861Y1597444D01*
X1310277Y1597037D01*
X1309676Y1596568D01*
X1308421Y1595442D01*
X1308645Y1604329D01*
X1309240Y1603717D01*
X1310393Y1602687D01*
X1310952Y1602269D01*
X1311500Y1601915D01*
X1312036Y1601625D01*
X1312560Y1601400D01*
X1313072Y1601239D01*
X1313573Y1601142D01*
X1314062Y1601110D01*
X1313997Y1598570D01*
D02*
G37*
D10*
X985000Y987566D02*
Y1058654D01*
X1074922Y986078D02*
X1130000Y931000D01*
X986488Y986078D02*
X1074922D01*
X985000Y987566D02*
X986488Y986078D01*
X1375000Y821738D02*
Y1132000D01*
X1387250Y810000D02*
X1417512D01*
X1377000Y820250D02*
X1387250Y810000D01*
X1376488Y820250D02*
X1377000D01*
X1375000Y821738D02*
X1376488Y820250D01*
X1480000Y773000D02*
Y791500D01*
X1518000Y829500D01*
X1470000Y763000D02*
X1480000Y773000D01*
X1518000Y829500D02*
Y1001000D01*
X1130459Y741059D02*
X1143059D01*
X1182500Y780500D01*
X1020659Y1192171D02*
X1033921D01*
X1050250Y1208500D01*
X1049000Y1209750D02*
X1050250Y1208500D01*
X1049000Y1209750D02*
Y1238000D01*
X1065924Y1254924D01*
X1153250Y1525500D02*
X1171329D01*
X1191000Y1316346D02*
Y1505829D01*
X1171329Y1525500D02*
X1191000Y1505829D01*
X1033250Y1236750D02*
X1061500Y1265000D01*
X1033250Y1214750D02*
Y1236750D01*
X1061500Y1265000D02*
X1139654D01*
X1191000Y1316346D01*
X1146500Y1532250D02*
X1153250Y1525500D01*
X1146500Y1532250D02*
Y1602500D01*
X1163750Y1619750D01*
X1284250D02*
X1304000Y1600000D01*
X1163750Y1619750D02*
X1284250D01*
X990162Y1097772D02*
X994398Y1102007D01*
X1025636Y1181750D02*
X1026750D01*
X994398Y1150512D02*
X1025636Y1181750D01*
X994398Y1102007D02*
Y1150512D01*
X1273000Y1234000D02*
X1375000Y1132000D01*
X1419000Y811488D02*
Y828250D01*
X1413200Y845000D02*
X1413572Y844628D01*
Y833678D02*
Y844628D01*
Y833678D02*
X1419000Y828250D01*
X1417512Y810000D02*
X1419000Y811488D01*
X1424402Y805988D02*
Y829352D01*
X1438600Y843550D01*
Y845000D01*
X1265000Y804500D02*
X1422914D01*
X1424402Y805988D01*
X1257250Y796750D02*
X1265000Y804500D01*
X1297250Y729000D02*
X1381000D01*
X1270750Y780750D02*
X1280000Y790000D01*
X1270750Y755500D02*
X1297250Y729000D01*
X1270750Y755500D02*
Y780750D01*
X1557250Y714000D02*
X1569000Y725750D01*
X1259500Y746250D02*
X1291750Y714000D01*
X1557250D01*
X1257250Y747738D02*
Y796750D01*
X1258738Y746250D02*
X1259500D01*
X1257250Y747738D02*
X1258738Y746250D01*
X1296000Y721250D02*
X1551250D01*
X1264250Y753000D02*
X1296000Y721250D01*
X1264250Y753000D02*
Y792000D01*
X1551250Y721250D02*
X1559750Y729750D01*
X1072500Y1383500D02*
X1164948Y1475948D01*
X1128000Y1491000D02*
X1132414Y1495414D01*
X1136414D01*
X1147000Y1506000D01*
X1158298D01*
X1164948Y1499351D01*
Y1475948D02*
Y1499351D01*
X1569000Y760250D02*
X1570000Y761250D01*
X1569000Y725750D02*
Y760250D01*
X1550250Y761500D02*
X1559750Y752000D01*
Y729750D02*
Y752000D01*
X1264250Y792000D02*
X1271500Y799250D01*
X1427500D01*
X1429750Y801500D01*
Y825012D01*
X1431238Y826500D02*
X1445500D01*
X1429750Y825012D02*
X1431238Y826500D01*
X1445500D02*
X1464000Y845000D01*
X1128000Y738600D02*
X1130459Y741059D01*
X1161139Y814000D02*
X1281000D01*
X1156512D02*
X1161139D01*
X1060000Y1074000D02*
X1076000Y1090000D01*
X1002000Y1074000D02*
X1060000D01*
X1000295Y1165399D02*
X1002399D01*
X995744Y1169951D02*
Y1176822D01*
X1002399Y1165399D02*
X1015000Y1178000D01*
X995744Y1169951D02*
X1000295Y1165399D01*
X993566Y1179000D02*
X995744Y1176822D01*
X977500Y1156965D02*
X981649Y1152816D01*
X977500Y1172524D02*
X983976Y1179000D01*
X977500Y1156965D02*
Y1172524D01*
X950310Y1183000D02*
X953216Y1185907D01*
X964844D01*
X969251Y1181500D02*
X972000D01*
X964844Y1185907D02*
X969251Y1181500D01*
X981649Y1129000D02*
Y1152816D01*
X950320Y1160907D02*
X951648Y1159578D01*
X966922D01*
X968250Y1158250D01*
X983976Y1179000D02*
X993566D01*
X991690Y1379000D02*
X1003690Y1391000D01*
X1070000D02*
X1152448Y1473448D01*
X1003690Y1391000D02*
X1070000D01*
X999000Y1366000D02*
X1016500Y1383500D01*
X1072500D01*
X992319Y1428907D02*
X1001601Y1419625D01*
X1087625D01*
X1140408Y1472408D01*
X1291052Y1584948D02*
X1303250Y1572750D01*
X1320750D02*
X1325000Y1577000D01*
X1303250Y1572750D02*
X1320750D01*
X1265738Y1610750D02*
X1278135D01*
X1264250Y1591398D02*
X1273000Y1582648D01*
X1264250Y1591398D02*
Y1609262D01*
X1265738Y1610750D01*
X1278135D02*
X1304328Y1584557D01*
X1090250Y861250D02*
X1097000Y868000D01*
X1068000Y861250D02*
X1090250D01*
X1057600Y845000D02*
X1060558Y847958D01*
Y853808D01*
X1068000Y861250D01*
X1157678Y846522D02*
X1159200Y845000D01*
X1157678Y846522D02*
Y856322D01*
X1126000Y860000D02*
X1154000D01*
X1157678Y856322D01*
X1131000Y865000D02*
X1164600D01*
X1184600Y845000D01*
X1314000Y1025000D02*
X1324250Y1014750D01*
X1321944Y976944D02*
X1321944Y976944D01*
X1321944Y976944D02*
Y981568D01*
X1322144Y981768D01*
X1324250Y984250D02*
Y1014750D01*
X1322144Y982144D02*
X1324250Y984250D01*
X1322144Y981768D02*
Y982144D01*
X1320000Y975000D02*
X1321944Y976944D01*
X1388700Y907700D02*
X1400500Y919501D01*
X1281000Y1242000D02*
X1400500Y1122500D01*
Y919501D02*
Y1122500D01*
X1415000Y763000D02*
X1470000D01*
X1381000Y729000D02*
X1415000Y763000D01*
X1141512Y829000D02*
X1156512Y814000D01*
X1116000Y829000D02*
X1141512D01*
X1109000Y822000D02*
X1116000Y829000D01*
X1014000Y803502D02*
X1014000D01*
X1032498Y822000D01*
X1109000D01*
X1015000Y1186512D02*
X1020659Y1192171D01*
X1015000Y1178000D02*
Y1186512D01*
X974512Y1121863D02*
X981649Y1129000D01*
X970025Y1121863D02*
X974512D01*
X968081Y1119919D02*
X970025Y1121863D01*
X955344Y825000D02*
X981000D01*
X1065924Y1254924D02*
X1097617D01*
X1325000Y1039000D02*
X1344000D01*
X981000Y825000D02*
X981000Y825000D01*
X955185Y824842D02*
X955344Y825000D01*
X978317Y1075683D02*
Y1108317D01*
Y1075683D02*
X980000Y1074000D01*
X1076000Y1116000D02*
Y1194000D01*
X960400Y845094D02*
X962742D01*
X964704Y847056D01*
X947000Y861000D02*
X960400Y847599D01*
X1103454Y1490371D02*
X1107905Y1494822D01*
X1388700Y844800D02*
Y907700D01*
X1314000Y1025000D02*
Y1069000D01*
X1177000Y931000D02*
X1184600Y938600D01*
X1130000Y931000D02*
X1177000D01*
X1184600Y938600D02*
Y997400D01*
X985000Y1058654D02*
X990162Y1063817D01*
Y1097772D01*
X1074000Y980000D02*
X1123034Y930966D01*
Y872966D02*
Y930966D01*
Y872966D02*
X1125000Y871000D01*
X1131000Y865000D01*
X1097000Y868000D02*
Y915000D01*
X1060000Y952000D02*
X1097000Y915000D01*
X996000Y952000D02*
X1060000D01*
X989000Y945000D02*
X996000Y952000D01*
X989000Y907000D02*
Y945000D01*
X961820Y874907D02*
X966071Y879157D01*
Y884070D01*
X989000Y907000D01*
X984064Y980000D02*
X1074000D01*
X963467Y975338D02*
X1070662D01*
X1118000Y868000D02*
Y928000D01*
X1070662Y975338D02*
X1118000Y928000D01*
Y868000D02*
X1126000Y860000D01*
X1112000Y866800D02*
X1133800Y845000D01*
X1112000Y866800D02*
Y925000D01*
X1068000Y970000D02*
X1112500Y925500D01*
X1112000Y925000D02*
X1112500Y925500D01*
X963752Y1000312D02*
X984064Y980000D01*
X962268Y900041D02*
X982000Y919774D01*
Y952000D02*
X989000Y959000D01*
X982000Y919774D02*
Y952000D01*
X967527Y933527D02*
X978000Y944000D01*
X967527Y929966D02*
Y933527D01*
X978000Y944000D02*
Y956486D01*
X962643Y925082D02*
X967527Y929966D01*
X989000Y959000D02*
X1062000D01*
X1102000Y919000D01*
X978000Y956486D02*
X986480Y964966D01*
X1064034D02*
X1107000Y922000D01*
X986480Y964966D02*
X1064034D01*
X1083000Y845000D02*
X1102000Y864000D01*
Y919000D01*
X963005Y950159D02*
X982846Y970000D01*
X1068000D01*
X1107000Y846400D02*
Y922000D01*
X978000Y1035000D02*
Y1068251D01*
X947000Y1004000D02*
X978000Y1035000D01*
X978317Y1108317D02*
X987000Y1117000D01*
Y1166000D01*
X947000Y861000D02*
Y1004000D01*
X960400Y845094D02*
Y847599D01*
X964704Y847056D02*
X978056D01*
X980000Y849000D01*
X952685Y824842D02*
X955185D01*
X1326000Y1356000D02*
Y1358749D01*
Y1241000D02*
Y1356000D01*
X950000Y1136000D02*
X973000D01*
X1533000Y1016000D02*
Y1039000D01*
X1518000Y1001000D02*
X1533000Y1016000D01*
X1526000Y1046000D02*
Y1069000D01*
Y1046000D02*
X1533000Y1039000D01*
X1316000Y1407000D02*
X1329000Y1394000D01*
Y1361749D02*
Y1394000D01*
X1293000Y1407000D02*
X1316000D01*
X1326000Y1358749D02*
X1329000Y1361749D01*
X1287000Y1413000D02*
X1293000Y1407000D01*
X1287000Y1413000D02*
Y1583000D01*
X1288948Y1584948D02*
X1291052D01*
X1287000Y1583000D02*
X1288948Y1584948D01*
X1325000Y1577000D02*
Y1589000D01*
X1314160Y1599840D02*
X1325000Y1589000D01*
X1304000Y1600000D02*
X1304160Y1599840D01*
X1314160D01*
X1312443Y1584557D02*
X1313000Y1584000D01*
X1304328Y1584557D02*
X1312443D01*
X1339488Y1249000D02*
X1340000D01*
X1339000Y1249488D02*
X1339488Y1249000D01*
X1339000Y1249488D02*
Y1294000D01*
X1516052Y1075052D02*
X1524840Y1083840D01*
X1513948Y1075052D02*
X1516052D01*
X1340000Y1249000D02*
X1513948Y1075052D01*
X1533840Y1083840D02*
X1535000Y1085000D01*
X1524840Y1083840D02*
X1533840D01*
X1506000Y1061000D02*
X1518000D01*
X1526000Y1069000D01*
X1326000Y1241000D02*
X1506000Y1061000D01*
X1107000Y846400D02*
X1108400Y845000D01*
X1439500Y997200D02*
X1441509Y995190D01*
X1445683Y982000D02*
X1502000D01*
X1441509Y986174D02*
X1445683Y982000D01*
X1441509Y986174D02*
Y995190D01*
X1502000Y982000D02*
X1506000Y986000D01*
Y1008512D02*
X1507488Y1010000D01*
X1506000Y986000D02*
Y1008512D01*
X1507488Y1010000D02*
X1516000D01*
X1525000Y1019000D01*
Y1037000D01*
X1506000Y1056000D02*
X1525000Y1037000D01*
X1499000Y1056000D02*
X1506000D01*
X1312488Y1242512D02*
X1499000Y1056000D01*
X1312488Y1242512D02*
Y1366000D01*
X1314000D01*
X1323000Y1375000D02*
Y1387000D01*
X1314000Y1366000D02*
X1323000Y1375000D01*
X1303000Y1398000D02*
X1304160Y1396840D01*
X1313160D01*
X1323000Y1387000D01*
X1247000Y1564000D02*
X1258000Y1553000D01*
Y1223000D02*
X1352000Y1129000D01*
X1258000Y1223000D02*
Y1553000D01*
X1352000Y1105250D02*
Y1129000D01*
Y1105250D02*
X1361250Y1096000D01*
X1364000D01*
X1159000Y1564000D02*
X1247000D01*
X1266000Y1227381D02*
X1365000Y1128381D01*
Y1110000D02*
Y1128381D01*
X1266000Y1227381D02*
Y1575000D01*
X1160000Y1581000D02*
X1260000D01*
X1266000Y1575000D01*
X1281000Y1242000D02*
Y1591631D01*
X1273000Y1234000D02*
Y1582648D01*
X1275000Y1597631D02*
Y1600000D01*
Y1597631D02*
X1281000Y1591631D01*
X1182000Y1412000D02*
Y1506000D01*
X1170000Y1518000D02*
X1182000Y1506000D01*
X1102541Y1491541D02*
X1129000Y1518000D01*
X1170000D01*
X1102541Y1491284D02*
Y1491541D01*
X1516000Y1025000D02*
Y1038000D01*
X1508592Y1045408D02*
X1516000Y1038000D01*
X1510000Y1019000D02*
X1516000Y1025000D01*
X1498000Y1019000D02*
X1510000D01*
X1497592Y1045408D02*
X1508592D01*
X1303000Y1240000D02*
X1497592Y1045408D01*
X1486144Y1030856D02*
X1498000Y1019000D01*
X1478000Y1032000D02*
X1479144Y1030856D01*
X1486144D01*
X1303000Y1373000D02*
X1310000Y1380000D01*
X1303000Y1240000D02*
Y1373000D01*
X1294000Y1239000D02*
Y1380000D01*
Y1239000D02*
X1501000Y1032000D01*
X956000Y1444000D02*
Y1584000D01*
X1087000Y1379000D02*
X1088430Y1380430D01*
X1159000Y1514000D02*
X1171000Y1502000D01*
Y1473000D02*
Y1502000D01*
X1112364Y1494822D02*
X1124541Y1507000D01*
X1088430Y1390430D02*
X1171000Y1473000D01*
X1141000Y1507000D02*
X1148000Y1514000D01*
X1088430Y1380430D02*
Y1390430D01*
X1107905Y1494822D02*
X1112364D01*
X1148000Y1514000D02*
X1159000D01*
X1124541Y1507000D02*
X1141000D01*
X1121000Y1476000D02*
X1138920D01*
X1102541Y1489458D02*
X1105600Y1486400D01*
X1110600D01*
X1121000Y1476000D01*
X1138920D02*
X1140408Y1474512D01*
Y1472408D02*
Y1474512D01*
X947000Y1592000D02*
Y1593000D01*
X984000Y1366000D02*
X999000D01*
X979093Y1428907D02*
X992319D01*
X972000Y1378000D02*
X984000Y1366000D01*
X972000Y1378000D02*
Y1419000D01*
X949000Y1442000D02*
Y1467251D01*
Y1442000D02*
X972000Y1419000D01*
X946000Y1470251D02*
Y1473000D01*
Y1470251D02*
X949000Y1467251D01*
X956000Y1444000D02*
X977000Y1423000D01*
Y1393690D02*
X991690Y1379000D01*
X977000Y1393690D02*
Y1423000D01*
X947000Y1593000D02*
X956000Y1584000D01*
X992000Y1404000D02*
X1045000D01*
X1152448Y1473448D02*
Y1490655D01*
X961200Y1446800D02*
X979093Y1428907D01*
X949609Y1609000D02*
X961200Y1597409D01*
Y1446800D02*
Y1597409D01*
X947000Y1609000D02*
X949609D01*
D91*
X1581600Y1500000D02*
D03*
X1556200D02*
D03*
X1530800D02*
D03*
X1591650Y993652D02*
D03*
Y968252D02*
D03*
Y942852D02*
D03*
X1629250Y1124000D02*
D03*
X1603850D02*
D03*
X1578450D02*
D03*
X1629100Y1156250D02*
D03*
X1603700D02*
D03*
X1578300D02*
D03*
X1629750Y1189250D02*
D03*
X1604350D02*
D03*
X1578950D02*
D03*
X1564000Y1228650D02*
D03*
Y1254050D02*
D03*
Y1279450D02*
D03*
X1595750Y1228550D02*
D03*
Y1253950D02*
D03*
Y1279350D02*
D03*
X1628000Y1228800D02*
D03*
Y1254200D02*
D03*
Y1279600D02*
D03*
X1565250Y1370100D02*
D03*
Y1395500D02*
D03*
Y1420900D02*
D03*
X1597750Y1369850D02*
D03*
Y1395250D02*
D03*
Y1420650D02*
D03*
X1580800Y1532000D02*
D03*
X1555400D02*
D03*
X1530000D02*
D03*
X1581150Y1565500D02*
D03*
X1555750D02*
D03*
X1530350D02*
D03*
X1629500Y1480700D02*
D03*
Y1506100D02*
D03*
Y1531500D02*
D03*
X1628750Y1370300D02*
D03*
Y1395700D02*
D03*
Y1421100D02*
D03*
X1629750Y1589700D02*
D03*
Y1615100D02*
D03*
Y1640500D02*
D03*
X1581300Y1597750D02*
D03*
X1555900D02*
D03*
X1530500D02*
D03*
X1471600Y1598000D02*
D03*
X1446200D02*
D03*
X1420800D02*
D03*
X1471300Y1631500D02*
D03*
X1445900D02*
D03*
X1420500D02*
D03*
X1581650Y1631250D02*
D03*
X1556250D02*
D03*
X1530850D02*
D03*
X1581350Y1663250D02*
D03*
X1555950D02*
D03*
X1530550D02*
D03*
X1419850Y1664250D02*
D03*
X1445250D02*
D03*
X1470650D02*
D03*
X1128000Y789400D02*
D03*
Y764000D02*
D03*
Y738600D02*
D03*
D92*
X1505400Y1500000D02*
D03*
X1553050Y1124000D02*
D03*
X1552900Y1156250D02*
D03*
X1553550Y1189250D02*
D03*
X1504600Y1532000D02*
D03*
X1504950Y1565500D02*
D03*
X1505100Y1597750D02*
D03*
X1395400Y1598000D02*
D03*
X1395100Y1631500D02*
D03*
X1505450Y1631250D02*
D03*
X1505150Y1663250D02*
D03*
X1394450Y1664250D02*
D03*
D93*
X1591650Y917452D02*
D03*
X1564000Y1304850D02*
D03*
X1595750Y1304750D02*
D03*
X1628000Y1305000D02*
D03*
X1565250Y1446300D02*
D03*
X1597750Y1446050D02*
D03*
X1629500Y1556900D02*
D03*
X1628750Y1446500D02*
D03*
X1629750Y1665900D02*
D03*
X1128000Y814800D02*
D03*
D94*
X1108400Y997400D02*
D03*
X1133800D02*
D03*
X1159200D02*
D03*
X1184600D02*
D03*
X1286200D02*
D03*
X1260800D02*
D03*
X1235400D02*
D03*
X1210000D02*
D03*
X1489400D02*
D03*
X1464000D02*
D03*
X1438600D02*
D03*
X1413200D02*
D03*
X1311600D02*
D03*
X1337000D02*
D03*
X1362400D02*
D03*
X1387800D02*
D03*
X1083000D02*
D03*
X1057600D02*
D03*
X1006800D02*
D03*
X1032200D02*
D03*
X1489400Y845000D02*
D03*
X1362400D02*
D03*
X1387800D02*
D03*
X1337000D02*
D03*
X1260800D02*
D03*
X1286200D02*
D03*
X1235400D02*
D03*
X1032200D02*
D03*
X1057600D02*
D03*
X1083000D02*
D03*
X1108400D02*
D03*
X1133800D02*
D03*
X1159200D02*
D03*
X1184600D02*
D03*
X1210000D02*
D03*
X1311600D02*
D03*
X1438600D02*
D03*
X1413200D02*
D03*
X1464000D02*
D03*
D95*
X1006800D02*
D03*
D96*
X994001Y758499D02*
D03*
D97*
X1014000D02*
D03*
X1034000D02*
D03*
Y803501D02*
D03*
X1014000D02*
D03*
X994001D02*
D03*
D98*
X1570000Y761250D02*
D03*
X1550250Y761500D02*
D03*
X1050250Y1208500D02*
D03*
X1033250Y1214750D02*
D03*
X1026750Y1181750D02*
D03*
X1182500Y780500D02*
D03*
X1161139Y814000D02*
D03*
X1012000Y1152000D02*
D03*
X1076000Y1090000D02*
D03*
X972000Y1181500D02*
D03*
X968250Y1158250D02*
D03*
X1280000Y790000D02*
D03*
X1281000Y814000D02*
D03*
X968081Y1119919D02*
D03*
X1097617Y1254924D02*
D03*
X1346000Y1039000D02*
D03*
X1325000D02*
D03*
X981000Y825000D02*
D03*
X1077000Y1167000D02*
D03*
X1002000Y1074000D02*
D03*
X980000D02*
D03*
X1076000Y1116000D02*
D03*
Y1194000D02*
D03*
X1077000Y1141000D02*
D03*
X1320000Y975000D02*
D03*
X1314000Y1069000D02*
D03*
X987000Y1166000D02*
D03*
X980000Y849000D02*
D03*
X973000Y1136000D02*
D03*
X1470000Y763000D02*
D03*
X1304000Y1600000D02*
D03*
X1313000Y1584000D02*
D03*
X1339000Y1294000D02*
D03*
X1535000Y1085000D02*
D03*
X1526000Y1069000D02*
D03*
X1326000Y1356000D02*
D03*
X1303000Y1398000D02*
D03*
X1364000Y1096000D02*
D03*
X1365000Y1110000D02*
D03*
X1159000Y1564000D02*
D03*
X1160000Y1581000D02*
D03*
X1183000Y1409000D02*
D03*
X1478000Y1032000D02*
D03*
X1501000D02*
D03*
X1310000Y1380000D02*
D03*
X1294000D02*
D03*
X1087000Y1379000D02*
D03*
X1275000Y1600000D02*
D03*
X1045000Y1404000D02*
D03*
X946000Y1473000D02*
D03*
X947000Y1609000D02*
D03*
Y1593000D02*
D03*
D99*
X963752Y1000312D02*
D03*
X963467Y975338D02*
D03*
X963005Y950159D02*
D03*
X962643Y925082D02*
D03*
X962233Y900006D02*
D03*
X961820Y874907D02*
D03*
X961191Y825000D02*
D03*
X961500Y850000D02*
D03*
X950000Y1136000D02*
D03*
X950629Y1185907D02*
D03*
X950320Y1160907D02*
D03*
X992000Y1404000D02*
D03*
X991690Y1379000D02*
D03*
X992319Y1428907D02*
D03*
D100*
X1127448Y1490965D02*
D03*
X1152448Y1490655D02*
D03*
X1102541Y1491284D02*
D03*
M02*
