G04*
G04 #@! TF.GenerationSoftware,Altium Limited,Altium Designer,23.5.1 (21)*
G04*
G04 Layer_Color=32896*
%FSLAX44Y44*%
%MOMM*%
G71*
G04*
G04 #@! TF.SameCoordinates,5C111197-4597-48D1-979B-7C2AAD06A796*
G04*
G04*
G04 #@! TF.FilePolarity,Positive*
G04*
G01*
G75*
%ADD10C,0.2540*%
D10*
X1128338Y1523078D02*
X1125799Y1525618D01*
X1120721D01*
X1118182Y1523078D01*
Y1520539D01*
X1120721Y1518000D01*
X1125799D01*
X1128338Y1515461D01*
Y1512922D01*
X1125799Y1510383D01*
X1120721D01*
X1118182Y1512922D01*
X1133417Y1510383D02*
Y1525618D01*
X1141034D01*
X1143573Y1523078D01*
Y1518000D01*
X1141034Y1515461D01*
X1133417D01*
X1158808Y1510383D02*
X1148652D01*
X1158808Y1520539D01*
Y1523078D01*
X1156269Y1525618D01*
X1151191D01*
X1148652Y1523078D01*
X948382Y1411869D02*
X945843Y1414408D01*
X940765D01*
X938226Y1411869D01*
Y1409330D01*
X940765Y1406790D01*
X945843D01*
X948382Y1404251D01*
Y1401712D01*
X945843Y1399173D01*
X940765D01*
X938226Y1401712D01*
X953461Y1399173D02*
Y1414408D01*
X961078D01*
X963618Y1411869D01*
Y1406790D01*
X961078Y1404251D01*
X953461D01*
X968696Y1399173D02*
X973774D01*
X971235D01*
Y1414408D01*
X968696Y1411869D01*
X937827Y1210905D02*
Y1200908D01*
X944491D01*
X947824Y1210905D02*
X951156D01*
X949490D01*
Y1200908D01*
X947824D01*
X951156D01*
X956154D02*
Y1210905D01*
X962819Y1200908D01*
Y1210905D01*
X966151D02*
Y1200908D01*
Y1204241D01*
X972815Y1210905D01*
X967817Y1205907D01*
X972815Y1200908D01*
X982812D02*
X976148D01*
X982812Y1207573D01*
Y1209239D01*
X981146Y1210905D01*
X977814D01*
X976148Y1209239D01*
M02*
